<?xml version="1.0" encoding="utf-8"?>
<svg version="1.1" xmlns="http://www.w3.org/2000/svg" xmlns:xlink="http://www.w3.org/1999/xlink" x="0px" y="0px"
	 width="62px" height="62px" viewBox="0 0 62 62" enable-background="new 0 0 62 62" xml:space="preserve">
<polygon fill="#0070df" points="5.879,13.339 6.321,15.039 8.463,14.443 8.463,24.302 10.537,24.302 10.537,12.319 9.075,12.319 "/>
<path fill="#0070df" d="M17.303,22.602c-1.02,0-1.819-0.356-2.72-1.121l-1.139,1.598c1.003,0.833,2.159,1.428,3.808,1.428
	c3.196,0,5.1-2.651,5.1-6.477c0-2.38-0.561-3.688-1.445-4.572c-0.833-0.833-1.802-1.258-3.298-1.258
	c-2.635,0-4.437,1.784-4.437,4.113s1.683,3.808,4.215,3.808c1.275,0,2.193-0.544,2.788-1.258
	C20.107,21.055,19.054,22.602,17.303,22.602z M17.694,18.37c-1.479,0-2.431-0.884-2.431-2.125c0-1.258,0.884-2.243,2.363-2.243
	c1.513,0,2.481,0.952,2.481,2.192C20.107,17.385,19.207,18.37,17.694,18.37z"/>
<path fill="#0070df" d="M24.137,21.039c0,2.074,1.938,3.434,4.539,3.434s4.539-1.326,4.539-3.45c0-1.445-0.851-2.295-2.143-2.89
	c1.003-0.527,1.734-1.326,1.734-2.652c0-1.87-1.751-3.246-4.131-3.246s-4.131,1.394-4.131,3.212c0,1.36,0.731,2.159,1.734,2.687
	C24.936,18.693,24.137,19.594,24.137,21.039z M28.676,13.984c1.275,0,2.125,0.748,2.125,1.666c0,1.054-0.901,1.785-2.125,1.785
	c-1.224,0-2.125-0.731-2.125-1.768C26.551,14.732,27.401,13.984,28.676,13.984z M28.676,19.101c1.411,0,2.499,0.714,2.499,1.802
	c0,1.02-0.935,1.818-2.499,1.818s-2.499-0.815-2.499-1.784C26.177,19.815,27.265,19.101,28.676,19.101z"/>
<path fill="#0070df" d="M57.167,23H55V5c0-2.664-2.337-5-5-5H5C2.336,0,0,2.336,0,5v26c0,2.663,2.336,5,5,5h11v10H2c-0.552,0-1,0.447-1,1
	s0.448,1,1,1h14v1c0,2.663,2.336,5,5,5h9.54l5.665,6.609c0.618,0.888,1.658,1.415,2.795,1.415s2.177-0.527,2.795-1.415L47.46,54H57
	c2.663,0,5-2.337,5-5V27.833C62,25.168,59.832,23,57.167,23z M41,19h12v12c0,1.57-1.43,3-3,3h-9V19z M53,5v12H41V2h9
	C51.542,2,53,3.458,53,5z M2,31V5c0-1.542,1.458-3,3-3h34v32h-3c-0.292,0-0.569,0.128-0.759,0.35l-6,7
	c-0.026,0.03-0.051,0.062-0.073,0.096c-0.483,0.727-1.853,0.727-2.336,0c-0.022-0.033-0.046-0.065-0.073-0.096l-6-7
	C20.569,34.128,20.292,34,20,34H5C3.458,34,2,32.542,2,31z M60,49c0,1.57-1.43,3-3,3H47c-0.292,0-0.569,0.128-0.759,0.35l-6,7
	c-0.026,0.03-0.051,0.062-0.073,0.096c-0.484,0.727-1.852,0.727-2.336,0c-0.022-0.033-0.047-0.065-0.073-0.096l-6-7
	C31.569,52.128,31.292,52,31,52H21c-1.542,0-3-1.458-3-3v-1h35c0.553,0,1-0.447,1-1s-0.447-1-1-1H18V36h1.54l5.665,6.609
	c0.618,0.888,1.658,1.415,2.795,1.415s2.177-0.527,2.795-1.415L36.46,36H50c2.663,0,5-2.337,5-5v-6h2.167
	C58.729,25,60,26.271,60,27.833V49z"/>
<path fill="#0070df" d="M49,25h-4c-0.404,0-0.77,0.244-0.924,0.617c-0.155,0.374-0.069,0.804,0.217,1.09l2,2C46.488,28.902,46.744,29,47,29
	s0.512-0.098,0.707-0.293l2-2c0.286-0.286,0.372-0.716,0.217-1.09C49.77,25.243,49.404,25,49,25z"/>
<path fill="#0070df" d="M44.076,10.383C44.23,10.756,44.596,11,45,11h4c0.404,0,0.77-0.244,0.924-0.617c0.155-0.374,0.069-0.804-0.217-1.09l-2-2
	c-0.391-0.391-1.023-0.391-1.414,0l-2,2C44.007,9.579,43.921,10.009,44.076,10.383z"/>
<path fill="#0070df" d="M6,45c0.256,0,0.512-0.098,0.707-0.293l2-2c0.286-0.286,0.372-0.716,0.217-1.09S8.404,41,8,41H4
	c-0.404,0-0.769,0.243-0.924,0.617s-0.069,0.804,0.217,1.09l2,2C5.488,44.902,5.744,45,6,45z"/>
<path fill="#0070df" d="M6.707,49.293c-0.391-0.391-1.023-0.391-1.414,0l-2,2c-0.286,0.286-0.372,0.716-0.217,1.09S3.596,53,4,53h4
	c0.404,0,0.769-0.243,0.924-0.617s0.069-0.804-0.217-1.09L6.707,49.293z"/>
</svg>
