<?xml version="1.0" encoding="utf-8"?>
<svg version="1.1" xmlns="http://www.w3.org/2000/svg" xmlns:xlink="http://www.w3.org/1999/xlink" x="0px" y="0px" width="62px" height="62px" viewBox="0 0 62 62" enable-background="new 0 0 62 62" xml:space="preserve">
<path fill="#0070df" d="M31.895,32.553c-0.34-0.678-1.449-0.678-1.789,0l-5,10c-0.155,0.31-0.139,0.678,0.044,0.973S25.653,44,26,44h10c0.347,0,0.668-0.18,0.851-0.475s0.199-0.663,0.044-0.973L31.895,32.553z M27.618,42L31,35.236L34.382,42H27.618z"/>
<path fill="#0070df" d="M50.021,19.088l-38.863,17.51c-0.503,0.228-0.728,0.819-0.501,1.323c0.167,0.37,0.531,0.589,0.913,0.589c0.137,0,0.276-0.028,0.41-0.088l38.863-17.51c0.503-0.228,0.728-0.819,0.501-1.323C51.116,19.085,50.527,18.86,50.021,19.088z"/>
<path fill="#0070df" d="M31,0C13.906,0,0,13.906,0,31s13.906,31,31,31s31-13.906,31-31S48.094,0,31,0z M31,60C15.01,60,2,46.99,2,31S15.01,2,31,2s29,13.01,29,29S46.99,60,31,60z"/>
</svg>
