<?xml version="1.0" encoding="utf-8"?>
<svg version="1.1" xmlns="http://www.w3.org/2000/svg" xmlns:xlink="http://www.w3.org/1999/xlink" x="0px" y="0px" width="62px"
	 height="62px" viewBox="0 0 62 62" enable-background="new 0 0 62 62" xml:space="preserve">
	<path fill="#0070df" d="M61,60H2V1c0-0.553-0.447-1-1-1S0,0.447,0,1v60c0,0.553,0.447,1,1,1h60c0.553,0,1-0.447,1-1S61.553,60,61,60z"/>
	<path fill="#0070df" d="M7,56c0.256,0,0.512-0.098,0.707-0.293L27.414,36H37c0.266,0,0.52-0.105,0.707-0.293L56,17.414V21c0,0.553,0.447,1,1,1s1-0.447,1-1v-6c0-0.013-0.007-0.023-0.007-0.036c-0.004-0.117-0.022-0.234-0.069-0.347c0-0.001-0.001-0.001-0.001-0.002c-0.004-0.01-0.012-0.017-0.016-0.027c-0.045-0.099-0.106-0.186-0.177-0.263c-0.024-0.026-0.05-0.046-0.076-0.069c-0.064-0.056-0.132-0.102-0.208-0.14c-0.032-0.016-0.062-0.033-0.095-0.045C57.239,14.029,57.123,14,57,14h-6c-0.553,0-1,0.447-1,1s0.447,1,1,1h3.586l-18,18H27c-0.266,0-0.52,0.105-0.707,0.293l-20,20c-0.391,0.391-0.391,1.023,0,1.414C6.488,55.902,6.744,56,7,56z"/>
</svg>
