<?xml version="1.0" encoding="utf-8"?>
<svg version="1.1" xmlns="http://www.w3.org/2000/svg" xmlns:xlink="http://www.w3.org/1999/xlink" x="0px" y="0px" width="62px" height="62px" viewBox="0 0 62 62" enable-background="new 0 0 62 62" xml:space="preserve">
    <path fill="#0070df" d="M17,27h-3v-8c0-0.553-0.447-1-1-1s-1,0.447-1,1v8H9c-0.553,0-1,0.447-1,1v24c0,0.553,0.447,1,1,1h3v4c0,0.553,0.447,1,1,1s1-0.447,1-1v-4h3c0.553,0,1-0.447,1-1V28C18,27.447,17.553,27,17,27z M16,51h-6V29h6V51z"/>
    <path fill="#0070df" d="M35,9h-3V1c0-0.553-0.447-1-1-1s-1,0.447-1,1v8h-3c-0.553,0-1,0.447-1,1v42c0,0.553,0.447,1,1,1h3v8c0,0.553,0.447,1,1,1s1-0.447,1-1v-8h3c0.553,0,1-0.447,1-1V10C36,9.447,35.553,9,35,9z M34,51h-6V11h6V51z"/>
    <path fill="#0070df" d="M53,9h-3V5c0-0.553-0.447-1-1-1s-1,0.447-1,1v4h-3c-0.553,0-1,0.447-1,1v28c0,0.553,0.447,1,1,1h3v8c0,0.553,0.447,1,1,1s1-0.447,1-1v-8h3c0.553,0,1-0.447,1-1V10C54,9.447,53.553,9,53,9z M52,37h-6V11h6V37z"/>
</svg>
