<?xml version="1.0" encoding="utf-8"?>
<svg version="1.1" xmlns="http://www.w3.org/2000/svg" xmlns:xlink="http://www.w3.org/1999/xlink" x="0px" y="0px" width="62px" height="62px" viewBox="0 0 62 62" enable-background="new 0 0 62 62" xml:space="preserve">
    <path fill="#0070df" d="M31,62c-0.18,0-0.359-0.048-0.518-0.145C3.314,45.39,3,12.242,3,11.909c0-0.552,0.448-1,1-1c5.514,0,10-4.445,10-9.909c0-0.552,0.448-1,1-1h32c0.553,0,1,0.448,1,1c0,5.464,4.486,9.909,10,9.909c0.553,0,1,0.448,1,1c0,0.333-0.314,33.481-27.482,49.946C31.359,61.952,31.18,62,31,62z M5.033,12.865C5.31,18.294,7.852,45.42,31,59.826C54.148,45.42,56.69,18.294,56.967,12.865C51.164,12.372,46.526,7.762,46.042,2H15.958C15.473,7.762,10.836,12.372,5.033,12.865z"/>
    <path fill="#0070df" d="M30,40c-0.256,0-0.512-0.098-0.707-0.293l-11-11c-0.391-0.391-0.391-1.023,0-1.414l4-4c0.391-0.391,1.023-0.391,1.414,0L30,29.586l11.293-11.293c0.391-0.391,1.023-0.391,1.414,0l4,4c0.391,0.391,0.391,1.023,0,1.414l-16,16C30.512,39.902,30.256,40,30,40z M20.414,28L30,37.586L44.586,23L42,20.414L30.707,31.707c-0.391,0.391-1.023,0.391-1.414,0L23,25.414L20.414,28z"/>
</svg>
