<?xml version="1.0" encoding="utf-8"?>
<svg version="1.1" id="Layer_1" xmlns="http://www.w3.org/2000/svg" xmlns:xlink="http://www.w3.org/1999/xlink" x="0px" y="0px"
	 viewBox="0 0 111.6 66.9" style="enable-background:new 0 0 111.6 66.9;" xml:space="preserve">
<g>
	<path style="fill-rule:evenodd;clip-rule:evenodd; fill:#fff;" d="M33.4,56.9c-16.9,0-29.7-18.1-20.1-36c1.4-2.7,3.6-5,6.2-6.6
		C37.3,3,56.5,15.8,56.8,33l0,0.5l0,0.5C56.6,46.6,46.1,56.9,33.4,56.9 M105.2,14.8C100,9,92.5,5.7,84.6,5.7
		c-8.8,0-17,4.2-22.2,11.1C53.5,1.2,33-5.6,14.6,5.4C10,8.1,6.3,12.3,3.9,17.1c-12.2,25,5.9,49.7,29.5,49.7c12.1,0,23-6.5,29-16.7
		c8.2,10.9,23.8,15,37.6,6.6c4.4-2.6,7.7-6.7,9.7-11.5l1.8-4.4h-10.8l-0.7,1.2c-3.2,5.6-9.1,9.1-15.5,9.1c-9.5,0-17.5-7.8-17.7-17.3
		l0-0.5l0-0.5c0.3-9.5,8.2-17.3,17.7-17.3c5.6,0,10.8,2.6,14.2,7.1l0.7,0.9h11.4l-1.8-3.4c-0.6-1.1-1.3-2.2-2-3.2L105.2,14.8z"/>
</g>
</svg>
