<?xml version="1.0" encoding="UTF-8"?>
<svg width="256px" height="146px" viewBox="0 0 256 146" version="1.1" xmlns="http://www.w3.org/2000/svg" xmlns:xlink="http://www.w3.org/1999/xlink">
    <!-- Generator: Sketch 51.2 (57519) - http://www.bohemiancoding.com/sketch -->
    <title>pic</title>
    <desc>Created with Sketch.</desc>
    <defs>
        <polygon id="path-1" points="0 260 289 260 289 0 0 0"></polygon>
    </defs>
    <g id="Page-1" stroke="none" stroke-width="1" fill="none" fill-rule="evenodd">
        <g id="Desktop" transform="translate(-465.000000, -1161.000000)">
            <g id="the-octafx-demo" transform="translate(400.000000, 863.000000)">
                <g id="partice" transform="translate(0.000000, 236.000000)">
                    <g id="pic" transform="translate(49.000000, 0.000000)">
                        <path d="M20.4933079,202.215722 C16.5964319,201.332011 15.1601019,200.291144 17.0253079,199.064811 C29.9967839,190.536811 88.3869219,190.796522 116.710367,190.806056 C152.335975,190.818189 189.404271,190.593144 221.491652,192.6691 C234.919748,193.538078 265.343356,194.337433 270.561829,197.222278 C284.248002,204.801856 187.179838,206.887056 171.468931,206.990189 C145.278306,207.162367 42.7503539,207.262033 20.4933079,202.215722" id="Fill-4" fill="#D2F0F9"></path>
                        <path d="M251.785875,197.180476 L28.8113926,197.180476 C22.7088686,197.180476 17.7438486,192.217364 17.7438486,186.117187 L17.7438486,185.453031 C17.7438486,185.094809 18.0345826,184.804187 18.3929426,184.804187 L262.219064,184.804187 C262.577424,184.804187 262.868158,185.094809 262.868158,185.453031 L262.868158,186.102453 C262.868158,192.211009 257.897069,197.180476 251.785875,197.180476" id="Fill-6" fill="#D2F0F9"></path>
                        <path d="M241.696278,189.522667 L241.696278,66.5025111 C241.696278,64.2754667 239.944071,62.4534444 237.802003,62.4534444 L42.9755427,62.4534444 C40.8337637,62.4534444 39.0812677,64.2754667 39.0812677,66.5025111 L39.0812677,189.522667 L241.696278,189.522667 Z" id="Fill-8" fill="#D2F0F9"></path>
                        <path d="M245.029373,184.714804 L245.029373,66.45236 C245.029373,64.3114044 243.277166,62.5598711 241.135098,62.5598711 L46.3083485,62.5598711 C44.1665695,62.5598711 42.4143625,64.3114044 42.4143625,66.45236 L42.4143625,184.714804 L245.029373,184.714804 Z" id="Fill-10" fill="#FFFFFF"></path>
                        <path d="M239.693334,184.196278 L224.91503,184.196278 L203.155642,184.196278 L176.47574,184.196278 L147.392225,184.196278 L118.034449,184.196278 L90.5262733,184.196278 L67.3929793,184.196278 L50.7428223,184.196278 L45.5327303,184.196278 C44.7778623,184.196278 43.8995913,184.079856 43.1218923,184.154678 L43.1218923,174.582344 L43.1218923,149.825144 L43.1218923,118.624278 L43.1218923,89.2110556 L43.1218923,69.8702333 C43.1218923,68.7349 43.0768083,67.5888778 43.1218923,66.4541222 C43.2163953,64.0794556 44.9709143,63.0787444 47.0314843,63.0787444 L57.5305653,63.0787444 L77.8900373,63.0787444 L105.06673,63.0787444 L135.872396,63.0787444 L167.556044,63.0787444 L196.939541,63.0787444 L220.979428,63.0787444 L236.632824,63.0787444 C239.550279,63.0787444 244.13931,62.2935444 244.321669,66.5873 C244.48611,70.4610111 244.321669,74.3777667 244.321669,78.2537889 L244.321669,103.753433 L244.321669,135.116656 L244.321669,164.021722 L244.321669,182.236456 L244.321669,184.196278 L239.693334,184.196278 Z M245.736902,66.4024111 C245.619568,63.4707667 243.279246,62.0410556 240.60484,62.0410556 L230.483482,62.0410556 L210.10089,62.0410556 L182.778252,62.0410556 L151.571165,62.0410556 L119.607187,62.0410556 L90.0124313,62.0410556 L65.8237093,62.0410556 L50.3951553,62.0410556 C46.9387153,62.0410556 41.9112713,61.5464778 41.7066593,66.5116111 C41.5595583,70.0863222 41.7066593,73.6983 41.7066593,77.2750333 L41.7066593,102.676744 L41.7066593,134.403389 L41.7066593,163.681989 L41.7066593,182.190811 L41.7066593,184.765967 C41.7066593,185.129389 42.0436333,185.233678 42.3545973,185.233678 L47.7502273,185.233678 L62.5285313,185.233678 L84.2879193,185.233678 L110.967821,185.233678 L140.051625,185.233678 L169.409401,185.233678 L196.917288,185.233678 L220.050582,185.233678 L236.700739,185.233678 C239.332373,185.233678 242.002155,185.364544 244.631766,185.233678 C244.69997,185.230211 244.768752,185.231078 244.837534,185.232233 C244.908917,185.237722 244.982034,185.236567 245.055729,185.226744 C245.134337,185.218944 245.207454,185.2019 245.273635,185.176189 C245.5294,185.088078 245.736902,184.908389 245.736902,184.663989 L245.736902,174.411611 L245.736902,149.293011 L245.736902,117.621544 L245.736902,88.1699 L245.736902,69.2606778 C245.736902,68.3108111 245.77505,67.3519889 245.736902,66.4024111 Z" id="Fill-12" fill="#00BEE6"></path>
                        <path d="M255.20197,197.180476 L32.2271992,197.180476 C26.1246752,197.180476 21.1599442,192.217364 21.1599442,186.117187 L21.1599442,185.453031 C21.1599442,185.094809 21.4503892,184.804187 21.8087492,184.804187 L265.635159,184.804187 C265.993519,184.804187 266.283964,185.094809 266.283964,185.453031 L266.283964,186.102453 C266.283964,192.211009 261.312875,197.180476 255.20197,197.180476" id="Fill-14" fill="#F2FAFD"></path>
                        <path d="M253.65845,193.788284 L33.7707771,193.788284 C27.7526411,193.788284 22.8564031,190.185551 22.8564031,185.757173 L22.8564031,185.275307 C22.8564031,185.015307 23.1430911,184.804129 23.4965381,184.804129 L263.947428,184.804129 C264.300586,184.804129 264.586985,185.015307 264.586985,185.275307 L264.586985,185.746773 C264.586985,190.180929 259.684967,193.788284 253.65845,193.788284" id="Fill-16" fill="#FFFFFF"></path>
                        <path d="M255.564607,196.703144 L248.606932,196.703144 L229.845341,196.703144 L202.447274,196.703144 L169.580749,196.703144 L134.412628,196.703144 L100.11064,196.703144 L69.8425144,196.703144 L46.7756904,196.703144 L34.0776084,196.703144 C32.7389604,196.703144 31.4462634,196.724233 30.1246664,196.388256 C26.0974514,195.364144 22.9863664,191.929256 22.2456594,187.860256 C22.1505784,187.338233 22.0948014,186.808989 22.0742824,186.279167 C22.0685024,186.125478 22.1566474,185.566189 22.0670574,185.4281 C21.9555034,185.2565 21.3162354,185.330744 21.4717174,185.281633 C21.5309624,185.262856 21.6225754,185.283656 21.6844214,185.281633 C24.5723984,185.189189 27.4785824,185.281633 30.3674264,185.281633 L49.5995094,185.281633 L76.7296734,185.281633 L109.10721,185.281633 L144.081123,185.281633 L179.001282,185.281633 L211.094154,185.281633 L238.076061,185.281633 L256.872332,185.281633 L262.508121,185.281633 C263.121957,185.281633 264.561755,184.999967 265.125594,185.281633 C265.947799,185.692144 265.146402,188.625811 264.929941,189.355833 C263.688686,193.542989 259.974458,196.6237 255.564607,196.703144 C254.93372,196.714411 253.624261,197.679589 254.838928,197.657633 C258.532637,197.5909 262.108145,196.083478 264.513492,193.2333 C265.777867,191.734833 266.655271,189.894611 267.009296,187.966278 C267.197435,186.940144 267.705497,184.764811 266.362225,184.386367 C265.747233,184.213322 264.981672,184.327144 264.353964,184.327144 L251.899509,184.327144 L229.298553,184.327144 L199.550338,184.327144 L165.365395,184.327144 L129.526505,184.327144 L94.8161604,184.327144 L63.9055874,184.327144 L39.8336214,184.327144 L25.2495254,184.327144 C24.2992934,184.327144 23.3392354,184.286411 22.3898704,184.327144 C21.5789364,184.361811 20.5798634,184.543811 20.3001114,185.414522 C19.8518724,186.808122 20.4602174,188.908922 20.9460264,190.216433 C21.5971434,191.968833 22.7045914,193.565811 24.1125994,194.794456 C27.7831884,197.997367 32.2014204,197.657633 36.6572224,197.657633 L53.9373994,197.657633 L80.6592064,197.657633 L113.636707,197.657633 L149.270118,197.657633 L184.356163,197.657633 L215.56903,197.657633 L239.584641,197.657633 L253.105217,197.657633 L254.838928,197.657633 C255.473861,197.657633 256.781008,196.703144 255.564607,196.703144" id="Fill-18" fill="#00BEE6"></path>
                        <path d="M115.547633,184.807913 C115.858019,186.676736 117.486245,188.105869 119.442775,188.105869 L168.000844,188.105869 C169.957085,188.105869 171.5856,186.676736 171.896275,184.807913 L115.547633,184.807913 Z" id="Fill-20" fill="#FFFFFF"></path>
                        <path d="M114.849698,184.994651 C115.670747,188.797584 119.223135,188.576296 122.222955,188.576296 L134.724517,188.576296 L164.098766,188.576296 C167.428624,188.576296 171.680681,189.000384 172.600279,184.743318 C172.652588,184.50094 172.348271,184.337429 172.147416,184.337429 L153.057521,184.337429 L122.789106,184.337429 L115.799063,184.337429 C115.177135,184.337429 114.356086,185.27834 115.296203,185.27834 L134.386387,185.27834 L164.654802,185.27834 L171.644845,185.27834 C171.493698,185.14314 171.343129,185.007651 171.192271,184.872162 C170.446073,188.327273 166.826637,187.635384 164.19009,187.635384 L152.039374,187.635384 L124.452879,187.635384 C121.510281,187.635384 117.07442,188.460162 116.245568,184.620829 C116.11783,184.029473 114.718492,184.387118 114.849698,184.994651" id="Fill-22" fill="#00BEE6"></path>
                        <mask id="mask-2" fill="white">
                            <use xlink:href="#path-1"></use>
                        </mask>
                        <g id="Clip-25"></g>
                        <polygon id="Fill-24" fill="#FFFFFF" mask="url(#mask-2)" points="51.836196 179.111978 235.60725 179.111978 235.60725 71.9578889 51.836196 71.9578889"></polygon>
                        <path d="M217.461778,178.708227 L173.565279,178.708227 L120.530889,178.708227 L74.7012691,178.708227 L59.5958171,178.708227 L54.8504371,178.708227 C54.1510571,178.708227 53.2430191,178.559738 52.5346801,178.688582 L52.5346801,168.413093 L52.5346801,142.771027 L52.5346801,111.876093 L52.5346801,85.0429378 L52.5346801,76.2740044 L52.5346801,73.4902711 C52.5346801,73.1953156 52.6132881,72.72876 52.5898791,72.3618711 L69.9816101,72.3618711 L113.878109,72.3618711 L166.913077,72.3618711 L212.742408,72.3618711 C220.124335,72.3618711 227.528226,72.5282711 234.908997,72.3638933 L234.908997,82.6567156 L234.908997,108.298782 L234.908997,139.194004 L234.908997,166.02716 L234.908997,174.795804 L234.908997,177.579827 C234.908997,177.874493 234.830389,178.341049 234.853798,178.708227 L217.461778,178.708227 Z M236.305734,72.0591156 C236.293018,72.0030711 236.305734,71.9311378 236.305734,71.8730711 C236.305734,71.8236711 236.293018,71.78236 236.2751,71.7450933 C236.280591,71.6520711 236.201405,71.5815822 235.999972,71.5610711 C235.899111,71.5402711 235.782933,71.5394044 235.663287,71.5541378 L217.461778,71.5541378 L173.565279,71.5541378 L120.530889,71.5541378 L74.7012691,71.5541378 C67.2858181,71.5541378 59.8339531,71.3386267 52.4208141,71.5541378 C52.3159071,71.5570267 52.2104221,71.5541378 52.1055151,71.5541378 C51.8809621,71.5541378 51.1376541,71.6858711 51.1376541,72.0429378 L51.1376541,82.6567156 L51.1376541,108.298782 L51.1376541,139.194004 L51.1376541,166.02716 L51.1376541,174.795804 C51.1376541,176.078182 50.8472091,177.752582 51.1376541,179.010982 C51.1506591,179.066738 51.1376541,179.138671 51.1376541,179.196738 C51.1376541,179.432182 51.3523811,179.51596 51.5671081,179.51596 L69.9816101,179.51596 L113.878109,179.51596 L166.913077,179.51596 L212.742408,179.51596 C220.157859,179.51596 227.609435,179.731182 235.022863,179.51596 C235.12777,179.512782 235.232966,179.51596 235.337873,179.51596 C235.562715,179.51596 236.305734,179.384227 236.305734,179.02716 L236.305734,168.413093 L236.305734,142.771027 L236.305734,111.876093 L236.305734,85.0429378 L236.305734,76.2740044 C236.305734,74.9922044 236.596757,73.3172267 236.305734,72.0591156 Z" id="Fill-26" fill="#00BEE6" mask="url(#mask-2)"></path>
                        <path d="M59.3038404,132.101753 L59.3038404,167.72782 L59.3038404,172.848087 C59.3038404,173.175687 60.6997104,172.946598 60.6997104,172.474264 L60.6997104,136.848198 L60.6997104,131.727931 C60.6997104,131.400331 59.3038404,131.62942 59.3038404,132.101753" id="Fill-27" fill="#F2FAFD" mask="url(#mask-2)"></path>
                        <path d="M59.2942456,78.5235822 L59.2942456,118.511871 L59.2942456,124.13596 C59.2942456,124.871471 60.7091896,124.668671 60.7091896,124.032827 L60.7091896,84.0442489 L60.7091896,78.4204489 C60.7091896,77.6849378 59.2942456,77.8877378 59.2942456,78.5235822" id="Fill-28" fill="#F2FAFD" mask="url(#mask-2)"></path>
                        <path d="M68.1084566,111.808724 L68.1084566,142.484969 L68.1084566,146.878102 C68.1084566,147.590213 69.5202216,147.37008 69.5202216,146.763413 L69.5202216,116.087458 L69.5202216,111.694324 C69.5202216,110.981636 68.1084566,111.202058 68.1084566,111.808724" id="Fill-29" fill="#F2FAFD" mask="url(#mask-2)"></path>
                        <path d="M68.1163752,100.192647 L68.1163752,108.02298 C68.1163752,108.450824 69.5122452,108.190247 69.5122452,107.649447 L69.5122452,99.8188244 C69.5122452,99.3912689 68.1163752,99.6518467 68.1163752,100.192647" id="Fill-30" fill="#F2FAFD" mask="url(#mask-2)"></path>
                        <path d="M68.1163752,78.6590133 L68.1163752,95.2987244 C68.1163752,95.7147244 69.5122452,95.4576133 69.5122452,94.9249022 L69.5122452,78.2851911 C69.5122452,77.8691911 68.1163752,78.1260133 68.1163752,78.6590133" id="Fill-31" fill="#F2FAFD" mask="url(#mask-2)"></path>
                        <path d="M76.9232456,161.736004 L76.9232456,172.726493 C76.9232456,173.405671 78.3306756,173.162138 78.3306756,172.595916 L78.3306756,161.605427 C78.3306756,160.926249 76.9232456,161.169493 76.9232456,161.736004" id="Fill-32" fill="#F2FAFD" mask="url(#mask-2)"></path>
                        <path d="M76.9290256,78.6590133 L76.9290256,104.141036 L76.9290256,144.73628 L76.9290256,154.027236 C76.9290256,154.401924 78.3248956,154.158102 78.3248956,153.653413 L78.3248956,128.171391 L78.3248956,87.5761467 L78.3248956,78.2851911 C78.3248956,77.9105022 76.9290256,78.1543244 76.9290256,78.6590133" id="Fill-33" fill="#F2FAFD" mask="url(#mask-2)"></path>
                        <path d="M85.7417049,106.261451 L85.7417049,130.144184 C85.7417049,130.550073 87.1375749,130.29614 87.1375749,129.770362 L87.1375749,105.887629 C87.1375749,105.48174 85.7417049,105.735673 85.7417049,106.261451" id="Fill-34" fill="#F2FAFD" mask="url(#mask-2)"></path>
                        <path d="M85.7356359,78.5364378 L85.7356359,98.1124156 C85.7356359,98.7953489 87.1436439,98.5544156 87.1436439,97.98386 L87.1436439,78.4075933 C87.1436439,77.72466 85.7356359,77.9655933 85.7356359,78.5364378" id="Fill-35" fill="#F2FAFD" mask="url(#mask-2)"></path>
                        <path d="M87.1374593,159.917478 L87.1374593,136.426478 C87.1374593,136.123144 85.7415893,136.344144 85.7415893,136.8003 L85.7415893,160.291589 C85.7415893,160.594922 87.1374593,160.373344 87.1374593,159.917478" id="Fill-36" fill="#F2FAFD" mask="url(#mask-2)"></path>
                        <path d="M94.5543553,78.6590133 L94.5543553,102.031569 C94.5543553,102.357147 95.9502253,102.128636 95.9502253,101.657747 L95.9502253,78.2851911 C95.9502253,77.9599022 94.5543553,78.1881244 94.5543553,78.6590133" id="Fill-37" fill="#F2FAFD" mask="url(#mask-2)"></path>
                        <path d="M95.9501097,169.485796 L95.9501097,152.797262 C95.9501097,152.473707 94.5542397,152.701351 94.5542397,153.171084 L94.5542397,169.859618 C94.5542397,170.183173 95.9501097,169.95524 95.9501097,169.485796" id="Fill-38" fill="#F2FAFD" mask="url(#mask-2)"></path>
                        <path d="M103.367035,164.133724 L103.367035,175.58528 C103.367035,175.814369 104.762905,175.616191 104.762905,175.211458 L104.762905,163.759902 C104.762905,163.531102 103.367035,163.72928 103.367035,164.133724" id="Fill-39" fill="#F2FAFD" mask="url(#mask-2)"></path>
                        <path d="M103.366312,78.5567467 L103.366312,93.8259689 C103.366312,94.4167467 104.763338,94.1275689 104.763338,93.65668 L104.763338,78.3874578 C104.763338,77.79668 103.366312,78.0858578 103.366312,78.5567467" id="Fill-40" fill="#F2FAFD" mask="url(#mask-2)"></path>
                        <path d="M112.179685,78.8057111 L112.179685,86.5384 C112.179685,86.8356667 113.575555,86.6161111 113.575555,86.1645778 L113.575555,78.4318889 C113.575555,78.1346222 112.179685,78.3541778 112.179685,78.8057111" id="Fill-41" fill="#F2FAFD" mask="url(#mask-2)"></path>
                        <path d="M120.991786,78.7042822 L120.991786,82.6684156 C120.991786,83.2557267 122.388523,82.9651044 122.388523,82.4976822 L122.388523,78.5335489 C122.388523,77.9459489 120.991786,78.2365711 120.991786,78.7042822" id="Fill-42" fill="#F2FAFD" mask="url(#mask-2)"></path>
                        <path d="M165.055703,78.6590133 L165.055703,82.7699022 C165.055703,83.0105467 166.451284,82.8089022 166.451284,82.39608 L166.451284,78.2851911 C166.451284,78.0445467 165.055703,78.2461911 165.055703,78.6590133" id="Fill-43" fill="#F2FAFD" mask="url(#mask-2)"></path>
                        <path d="M173.862573,78.5382578 L173.862573,87.9346578 C173.862573,88.61008 175.269425,88.3642356 175.269425,87.8023467 L175.269425,78.4059467 C175.269425,77.7305244 173.862573,77.9763689 173.862573,78.5382578" id="Fill-44" fill="#F2FAFD" mask="url(#mask-2)"></path>
                        <path d="M182.678201,163.143211 L182.678201,172.853056 C182.678201,173.480233 184.079561,173.207233 184.079561,172.699078 L184.079561,162.988944 C184.079561,162.361767 182.678201,162.634767 182.678201,163.143211" id="Fill-45" fill="#F2FAFD" mask="url(#mask-2)"></path>
                        <path d="M182.680744,78.6590133 L182.680744,94.1241022 C182.680744,94.5522356 184.076614,94.2916578 184.076614,93.75028 L184.076614,78.2851911 C184.076614,77.8567689 182.680744,78.1176356 182.680744,78.6590133" id="Fill-46" fill="#F2FAFD" mask="url(#mask-2)"></path>
                        <path d="M191.492122,78.5542044 L191.492122,100.139693 L191.492122,103.220116 C191.492122,103.823316 192.890594,103.539049 192.890594,103.055738 L192.890594,81.4702489 L192.890594,78.3898267 C192.890594,77.7866267 191.492122,78.0708933 191.492122,78.5542044" id="Fill-47" fill="#F2FAFD" mask="url(#mask-2)"></path>
                        <path d="M191.48169,157.553876 L191.48169,173.263653 C191.48169,174.03152 192.900969,173.856453 192.900969,173.177276 L192.900969,157.467787 C192.900969,156.69992 191.48169,156.874698 191.48169,157.553876" id="Fill-48" fill="#F2FAFD" mask="url(#mask-2)"></path>
                        <path d="M200.306073,150.013991 L200.306073,171.68528 L200.306073,174.777836 C200.306073,175.190947 201.701943,174.934991 201.701943,174.404013 L201.701943,152.733013 L201.701943,149.640169 C201.701943,149.226769 200.306073,149.483013 200.306073,150.013991" id="Fill-49" fill="#F2FAFD" mask="url(#mask-2)"></path>
                        <path d="M200.300438,129.924947 L200.300438,143.726036 C200.300438,144.403769 201.707579,144.159369 201.707579,143.594591 L201.707579,129.793791 C201.707579,129.116058 200.300438,129.360169 200.300438,129.924947" id="Fill-50" fill="#F2FAFD" mask="url(#mask-2)"></path>
                        <path d="M200.306073,78.6590133 L200.306073,119.008991 L200.306073,124.760769 C200.306073,125.159724 201.701943,124.908102 201.701943,124.386947 L201.701943,84.0369689 L201.701943,78.2851911 C201.701943,77.8862356 200.306073,78.1378578 200.306073,78.6590133" id="Fill-51" fill="#F2FAFD" mask="url(#mask-2)"></path>
                        <path d="M209.114938,104.189136 L209.114938,121.761091 L209.114938,149.618069 L209.114938,156.066069 C209.114938,156.71318 210.518322,156.450869 210.518322,155.921047 L210.518322,138.349091 L210.518322,110.491824 L210.518322,104.043824 C210.518322,103.396713 209.114938,103.659313 209.114938,104.189136" id="Fill-52" fill="#F2FAFD" mask="url(#mask-2)"></path>
                        <path d="M209.118868,78.6590133 L209.118868,98.23528 C209.118868,98.4481911 210.514449,98.2549244 210.514449,97.8614578 L210.514449,78.2851911 C210.514449,78.07228 209.118868,78.2652578 209.118868,78.6590133" id="Fill-53" fill="#F2FAFD" mask="url(#mask-2)"></path>
                        <path d="M217.931403,145.902987 L217.931403,169.981587 C217.931403,170.36032 219.327273,170.115342 219.327273,169.607764 L219.327273,145.529164 C219.327273,145.150431 217.931403,145.395698 217.931403,145.902987" id="Fill-54" fill="#F2FAFD" mask="url(#mask-2)"></path>
                        <path d="M217.931403,120.062511 L217.931403,139.1494 C217.931403,139.446089 219.327273,139.226533 219.327273,138.775578 L219.327273,119.688689 C219.327273,119.391711 217.931403,119.611267 217.931403,120.062511" id="Fill-55" fill="#F2FAFD" mask="url(#mask-2)"></path>
                        <path d="M217.931403,78.6590133 L217.931403,109.280658 L217.931403,113.602436 C217.931403,113.934947 219.327273,113.704413 219.327273,113.228613 L219.327273,82.6069689 L219.327273,78.2851911 C219.327273,77.9523911 217.931403,78.1832133 217.931403,78.6590133" id="Fill-56" fill="#F2FAFD" mask="url(#mask-2)"></path>
                        <path d="M226.744198,152.852382 L226.744198,176.343671 C226.744198,176.599627 228.139779,176.393071 228.139779,175.969849 L228.139779,152.47856 C228.139779,152.222893 226.744198,152.429449 226.744198,152.852382" id="Fill-57" fill="#F2FAFD" mask="url(#mask-2)"></path>
                        <path d="M226.736857,78.5323356 L226.736857,101.95978 L226.736857,139.285091 L226.736857,147.831869 C226.736857,148.532136 228.147177,148.302758 228.147177,147.711402 L228.147177,124.283958 L228.147177,86.9586467 L228.147177,78.4118689 C228.147177,77.7116022 226.736857,77.94098 226.736857,78.5323356" id="Fill-58" fill="#F2FAFD" mask="url(#mask-2)"></path>
                        <polygon id="Fill-59" fill="#00BEE6" mask="url(#mask-2)" points="183.378679 102.94908 204.030041 144.357547 225.763997 125.534991 223.727992 125.534991 204.395048 142.099591 184.998235 102.94908"></polygon>
                        <polygon id="Fill-60" fill="#00BEE6" mask="url(#mask-2)" points="64.4081873 147.981051 86.7189873 116.575073 109.723387 125.75394 108.528372 126.93174 87.3192403 118.193429 65.5540723 148.962696"></polygon>
                        <path d="M184.206172,77.7192867 L184.206172,122.14722 L184.206172,128.364109 C184.206172,129.049353 185.790181,128.728398 185.790181,128.178642 L185.790181,83.7509978 L185.790181,77.5341089 C185.790181,76.8485756 184.206172,77.1695311 184.206172,77.7192867" id="Fill-61" fill="#00BEE6" mask="url(#mask-2)"></path>
                        <path d="M186.4163,116.538009 L183.580343,116.538009 C181.455904,116.538009 179.733464,114.816231 179.733464,112.69232 L179.733464,93.2056089 C179.733464,91.0816978 181.455904,89.3602089 183.580343,89.3602089 L186.4163,89.3602089 C188.541028,89.3602089 190.263179,91.0816978 190.263179,93.2056089 L190.263179,112.69232 C190.263179,114.816231 188.541028,116.538009 186.4163,116.538009" id="Fill-62" fill="#F2FAFD" mask="url(#mask-2)"></path>
                        <path d="M186.512248,116.01018 C183.883793,116.016247 180.744964,116.102913 180.530526,112.589736 C180.456831,111.384202 180.530526,110.149491 180.530526,108.942513 L180.530526,95.3699356 C180.530526,93.7928911 180.269559,91.8917133 181.511681,90.6818467 C182.57838,89.6427133 184.13609,89.8772911 185.490055,89.8882689 C187.279543,89.9027133 188.919907,90.6110689 189.371325,92.5356467 C189.641829,93.6906244 189.466117,95.0313578 189.466117,96.2039578 L189.466117,103.023469 L189.466117,110.528224 C189.466117,112.800913 189.682,115.819513 186.512248,116.01018 M191.053594,92.9938244 C190.959669,91.2203356 189.883144,89.6820022 188.180067,89.0894911 C186.963666,88.6665578 185.516065,88.8202467 184.249956,88.8318022 C181.475267,88.8578022 179.059227,90.4169356 178.936402,93.3922022 C178.742483,98.1005133 178.936402,102.857069 178.936402,107.569424 C178.936402,109.318358 178.85895,111.087513 178.93987,112.83558 C179.030905,114.805224 180.292679,116.444669 182.231869,116.931158 C183.462142,117.239691 184.873618,117.066069 186.13019,117.066069 C186.138571,117.066069 186.14753,117.064047 186.1562,117.063758 C186.209954,117.067513 186.268043,117.06838 186.332201,117.064624 C189.096197,116.905447 191.032786,114.943602 191.059952,112.183558 C191.081049,110.094024 191.059952,108.003336 191.059952,105.913802 C191.059952,101.626402 191.280459,97.2760244 191.053594,92.9938244" id="Fill-63" fill="#00BEE6" mask="url(#mask-2)"></path>
                        <path d="M224.179612,101.292071 L224.179612,145.720004 L224.179612,151.936893 C224.179612,152.622138 225.76391,152.301471 225.76391,151.751427 L225.76391,107.323782 L225.76391,101.106893 C225.76391,100.421649 224.179612,100.742604 224.179612,101.292071" id="Fill-64" fill="#00BEE6" mask="url(#mask-2)"></path>
                        <path d="M226.38974,140.110822 L223.553783,140.110822 C221.429344,140.110822 219.706904,138.389044 219.706904,136.265133 L219.706904,116.778422 C219.706904,114.654511 221.429344,112.933022 223.553783,112.933022 L226.38974,112.933022 C228.514467,112.933022 230.236907,114.654511 230.236907,116.778422 L230.236907,136.265133 C230.236907,138.389044 228.514467,140.110822 226.38974,140.110822" id="Fill-65" fill="#F2FAFD" mask="url(#mask-2)"></path>
                        <path d="M226.486265,139.582964 C223.857521,139.589031 220.718403,139.675698 220.503965,136.162231 C220.430559,134.956987 220.503965,133.722276 220.503965,132.515298 L220.503965,118.94272 C220.503965,117.365676 220.242998,115.464498 221.48512,114.254631 C222.551819,113.215498 224.109529,113.450076 225.463494,113.461053 C227.253271,113.475498 228.893635,114.183853 229.344764,116.108431 C229.615268,117.263409 229.439845,118.604142 229.439845,119.776742 L229.439845,126.596253 L229.439845,134.101009 C229.439845,136.373698 229.655439,139.392009 226.486265,139.582964 M231.027033,116.566609 C230.933397,114.793409 229.856583,113.254787 228.153795,112.662276 C226.937683,112.239342 225.489505,112.393031 224.223395,112.404876 C221.448706,112.430587 219.032666,113.98972 218.91013,116.964987 C218.715922,121.673587 218.91013,126.429853 218.91013,131.14192 C218.91013,132.891431 218.832679,134.660587 218.913309,136.408364 C219.004344,138.378009 220.266407,140.017742 222.205309,140.503942 C223.435581,140.812476 224.847057,140.638853 226.10363,140.638853 C226.11201,140.638853 226.120969,140.636831 226.129639,140.636542 C226.183393,140.640298 226.241482,140.641164 226.30564,140.637409 C229.069926,140.478231 231.006225,138.516676 231.033391,135.756342 C231.054488,133.666809 231.033391,131.57612 231.033391,129.486587 C231.033391,125.199187 231.253898,120.848809 231.027033,116.566609" id="Fill-66" fill="#00BEE6" mask="url(#mask-2)"></path>
                        <path d="M64.0261871,129.717582 L64.0261871,168.20596 L64.0261871,173.665093 C64.0261871,174.350338 65.6104851,174.029382 65.6104851,173.479627 L65.6104851,134.991538 L65.6104851,129.532404 C65.6104851,128.846871 64.0261871,129.167827 64.0261871,129.717582" id="Fill-67" fill="#00BEE6" mask="url(#mask-2)"></path>
                        <path d="M66.2363146,160.658044 L63.4003576,160.658044 C61.2759186,160.658044 59.5534786,158.936267 59.5534786,156.812356 L59.5534786,146.384911 C59.5534786,144.261 61.2759186,142.539222 63.4003576,142.539222 L66.2363146,142.539222 C68.3610426,142.539222 70.0831936,144.261 70.0831936,146.384911 L70.0831936,156.812356 C70.0831936,158.936267 68.3610426,160.658044 66.2363146,160.658044" id="Fill-68" fill="#F2FAFD" mask="url(#mask-2)"></path>
                        <path d="M66.3202691,160.131313 C66.3121771,160.131602 66.3046631,160.133913 66.2965711,160.134491 C65.1084921,160.158469 63.6736071,160.346824 62.5696271,159.939202 C60.8237781,159.294691 60.3503961,157.624624 60.3503961,155.965536 L60.3503961,147.376291 C60.3503961,145.95178 60.3761171,144.526113 61.6884661,143.602536 C62.8120981,142.811847 64.8301851,142.948491 66.1746131,143.080513 C70.1006781,143.465891 69.2862761,148.275891 69.2862761,151.022936 C69.2862761,153.752069 70.3732051,159.897313 66.3202691,160.131313 M70.8801111,153.130091 L70.8801111,147.27258 C70.8801111,145.635447 70.6977521,144.118202 69.3143091,143.002802 C67.7774071,141.763469 65.7191491,141.982736 63.8672371,142.011047 C61.7792121,142.043402 59.7481201,143.015513 59.0051011,145.093491 C58.5620641,146.332247 58.7565611,147.871158 58.7565611,149.16278 L58.7565611,155.257758 C58.7565611,157.009291 58.6967381,158.694091 60.1099481,160.006224 C61.7118751,161.493424 63.9389091,161.186047 65.9500601,161.186047 C65.9587301,161.186047 65.9676891,161.184313 65.9763591,161.184024 C66.0301131,161.187491 66.0882021,161.188358 66.1520711,161.184602 C68.6553891,161.040158 70.7405241,159.324736 70.8801111,156.738024 C70.9445581,155.542891 70.8801111,154.32638 70.8801111,153.130091" id="Fill-69" fill="#00BEE6" mask="url(#mask-2)"></path>
                        <path d="M106.472369,103.177187 L106.472369,145.745831 L106.472369,151.750676 C106.472369,152.436209 108.056667,152.115253 108.056667,151.565787 L108.056667,108.997142 L108.056667,102.992009 C108.056667,102.306476 106.472369,102.627431 106.472369,103.177187" id="Fill-70" fill="#00BEE6" mask="url(#mask-2)"></path>
                        <path d="M108.682352,144.357547 L105.846684,144.357547 C103.721956,144.357547 101.999516,142.635769 101.999516,140.511858 L101.999516,114.230769 C101.999516,112.106858 103.721956,110.38508 105.846684,110.38508 L108.682352,110.38508 C110.80708,110.38508 112.529231,112.106858 112.529231,114.230769 L112.529231,140.511858 C112.529231,142.635769 110.80708,144.357547 108.682352,144.357547" id="Fill-71" fill="#F2FAFD" mask="url(#mask-2)"></path>
                        <path d="M111.732371,128.259878 L111.732371,137.575967 C111.732371,139.988478 112.215868,143.631944 108.766364,143.8307 C108.757983,143.831278 108.750758,143.8333 108.742377,143.833878 C107.557477,143.857856 106.116523,144.045344 105.015722,143.638589 C103.512633,143.083633 102.846488,141.643522 102.79678,140.146211 C102.734934,138.291256 102.79678,136.423878 102.79678,134.568344 L102.79678,117.166833 C102.79678,115.652767 102.494486,113.565833 103.347036,112.232611 C104.377321,110.621478 106.604933,110.829478 108.282,110.913256 C110.283903,111.0135 111.628331,112.405078 111.732371,114.389456 C111.973108,118.985389 111.732371,123.658456 111.732371,128.259878 M113.326206,114.315211 C113.295861,112.853433 112.766991,111.542456 111.53325,110.677811 C110.112237,109.6823 108.416385,109.856211 106.772842,109.857078 C103.727649,109.858522 101.243405,111.4555 101.202656,114.719656 C101.128094,120.707167 101.202656,126.700456 101.202656,132.688256 C101.202656,135.245789 101.153526,137.808811 101.202656,140.365767 C101.234446,142.005789 101.882962,143.450233 103.353105,144.291767 C104.847813,145.147456 106.741341,144.885722 108.396444,144.885722 C108.404825,144.885722 108.413495,144.8837 108.421876,144.883411 C108.475919,144.887167 108.534297,144.888033 108.598166,144.884278 C111.74711,144.702856 113.326206,142.386544 113.326206,139.463567 L113.326206,131.311411 C113.326206,125.650344 113.443829,119.975411 113.326206,114.315211" id="Fill-72" fill="#00BEE6" mask="url(#mask-2)"></path>
                        <path d="M85.5265155,94.9125378 L85.5265155,139.340471 L85.5265155,145.557071 C85.5265155,146.242604 87.1108135,145.921649 87.1108135,145.371893 L87.1108135,100.944249 L87.1108135,94.72736 C87.1108135,94.0418267 85.5265155,94.3627822 85.5265155,94.9125378" id="Fill-73" fill="#00BEE6" mask="url(#mask-2)"></path>
                        <path d="M87.7366141,131.466429 L84.9006571,131.466429 C82.7762181,131.466429 81.0537781,129.744651 81.0537781,127.62074 L81.0537781,112.663518 C81.0537781,110.539896 82.7762181,108.818118 84.9006571,108.818118 L87.7366141,108.818118 C89.8613421,108.818118 91.5834931,110.539896 91.5834931,112.663518 L91.5834931,127.62074 C91.5834931,129.744651 89.8613421,131.466429 87.7366141,131.466429" id="Fill-74" fill="#F2FAFD" mask="url(#mask-2)"></path>
                        <path d="M90.7864889,114.44342 L90.7864889,119.891576 L90.7864889,126.098064 C90.7864889,128.239887 90.6838939,130.774309 87.8204819,130.939842 C87.8190369,130.939842 87.8175919,130.940131 87.8158579,130.940131 C85.7301449,130.961798 83.3138159,131.262531 82.2245749,129.027398 C81.6867459,127.924131 81.8508979,126.583976 81.8508979,125.388264 L81.8508979,114.186598 C81.8508979,112.764109 81.7058199,111.236753 82.8320529,110.139842 C84.2189639,108.788709 88.3950139,108.977931 89.7293269,110.27822 C90.9156719,111.434642 90.7864889,112.949864 90.7864889,114.44342 Z M92.3806129,115.11162 C92.3806129,113.672664 92.5950509,111.95782 91.9199469,110.638753 C90.6090429,108.077176 87.8245279,108.252242 85.3677389,108.290087 C82.7309029,108.330242 80.3998289,109.956398 80.2567739,112.738109 C80.0588089,116.597664 80.2567739,120.517887 80.2567739,124.382353 C80.2567739,125.957953 79.9585259,128.051242 80.6544379,129.523709 C81.9578279,132.281731 84.8981139,131.994576 87.4505619,131.994576 C87.4589429,131.994576 87.4679019,131.992553 87.4762829,131.992264 C87.5303259,131.99602 87.5884149,131.996887 87.6525729,131.993131 C90.2506829,131.843198 92.2771509,130.04342 92.3806129,127.401242 C92.4485279,125.658953 92.3806129,123.89962 92.3806129,122.156176 L92.3806129,115.11162 Z" id="Fill-75" fill="#00BEE6" mask="url(#mask-2)"></path>
                        <path d="M146.903151,124.96588 L146.903151,163.074369 L146.903151,165.574991 C146.903151,166.260524 148.48716,165.939569 148.48716,165.390102 L148.48716,130.170213 L148.48716,124.780702 C148.48716,124.095458 146.903151,124.416413 146.903151,124.96588" id="Fill-76" fill="#637AAB" mask="url(#mask-2)"></path>
                        <path d="M149.112989,160.211451 L146.277321,160.211451 C144.152593,160.211451 142.430442,158.489673 142.430442,156.365762 L142.430442,136.878762 C142.430442,134.75514 144.152593,133.033362 146.277321,133.033362 L149.112989,133.033362 C151.237717,133.033362 152.960157,134.75514 152.960157,136.878762 L152.960157,156.365762 C152.960157,158.489673 151.237717,160.211451 149.112989,160.211451" id="Fill-77" fill="#D6F3F9" mask="url(#mask-2)"></path>
                        <path d="M149.399157,159.683304 C146.734288,159.683304 143.446913,159.860971 143.227562,156.26286 C143.153867,155.057616 143.227562,153.822904 143.227562,152.615927 L143.227562,139.043349 C143.227562,137.466304 142.966595,135.565127 144.208717,134.354971 C145.275127,133.316127 146.833126,133.550704 148.186802,133.561682 C149.976579,133.576127 151.616943,134.284482 152.067783,136.208771 C152.338865,137.364038 152.162864,138.704771 152.162864,139.877082 L152.162864,146.696882 L152.162864,154.201349 C152.162864,156.476927 152.379614,159.501016 149.197146,159.68446 C148.343151,159.73386 147.944042,160.800438 149.029237,160.738038 C151.793233,160.57886 153.729533,158.617016 153.756988,155.856971 C153.777796,153.767149 153.756988,151.676749 153.756988,149.587216 C153.756988,145.299816 153.977495,140.949149 153.75063,136.667238 C153.656416,134.893749 152.58018,133.355416 150.876814,132.762904 C149.660702,132.339971 148.213101,132.49366 146.946703,132.505216 C144.172014,132.531216 141.755974,134.09006 141.633438,137.065327 C141.439519,141.773927 141.633438,146.530482 141.633438,151.242549 C141.633438,152.991771 141.555697,154.760927 141.636617,156.508993 C141.727941,158.478349 142.989715,160.118082 144.928616,160.604282 C146.158889,160.913104 147.570654,160.739482 148.827226,160.739482 C149.525161,160.739482 150.464411,159.683304 149.399157,159.683304" id="Fill-78" fill="#637AAB" mask="url(#mask-2)"></path>
                        <path d="M166.080728,107.180031 L166.080728,140.356609 L166.080728,145.105653 C166.080728,145.790898 167.664737,145.469942 167.664737,144.920476 L167.664737,111.743898 L167.664737,106.994853 C167.664737,106.309609 166.080728,106.630564 166.080728,107.180031" id="Fill-79" fill="#637AAB" mask="url(#mask-2)"></path>
                        <path d="M168.290567,137.374264 L165.45461,137.374264 C163.330171,137.374264 161.60802,135.652776 161.60802,133.528864 L161.60802,118.571642 C161.60802,116.447731 163.330171,114.726242 165.45461,114.726242 L168.290567,114.726242 C170.415295,114.726242 172.137735,116.447731 172.137735,118.571642 L172.137735,133.528864 C172.137735,135.652776 170.415295,137.374264 168.290567,137.374264" id="Fill-80" fill="#D6F3F9" mask="url(#mask-2)"></path>
                        <path d="M168.576735,136.846147 C166.446516,136.846147 163.903605,137.244236 162.778528,134.935436 C162.240699,133.83188 162.40514,132.492302 162.40514,131.296302 L162.40514,120.094636 C162.40514,118.672147 162.260062,117.144791 163.386006,116.047591 C164.772917,114.696747 168.948967,114.88568 170.28328,116.186258 C171.469914,117.34268 171.340442,118.857613 171.340442,120.351458 L171.340442,125.799613 L171.340442,132.005813 C171.340442,134.147924 171.237847,136.682636 168.374724,136.847591 C167.520729,136.896991 167.12162,137.963569 168.206526,137.90088 C170.804636,137.751236 172.831393,135.951458 172.934566,133.309569 C173.002481,131.566991 172.934566,129.807658 172.934566,128.064213 L172.934566,121.019658 C172.934566,119.580702 173.149004,117.865858 172.4739,116.546502 C171.162996,113.985213 168.378481,114.16028 165.921403,114.198124 C163.284856,114.23828 160.953782,115.864436 160.811016,118.646147 C160.612762,122.505413 160.811016,126.426213 160.811016,130.290391 C160.811016,131.865991 160.512768,133.959569 161.208391,135.431747 C162.51207,138.18948 165.452067,137.902324 168.004804,137.902324 C168.702739,137.902324 169.6417,136.846147 168.576735,136.846147" id="Fill-81" fill="#637AAB" mask="url(#mask-2)"></path>
                        <path d="M203.238123,116.506838 L203.238123,160.934482 L203.238123,167.15166 C203.238123,167.836904 204.822132,167.515949 204.822132,166.966193 L204.822132,122.538549 L204.822132,116.32166 C204.822132,115.636127 203.238123,115.957082 203.238123,116.506838" id="Fill-82" fill="#00BEE6" mask="url(#mask-2)"></path>
                        <path d="M205.447961,150.795753 L202.612004,150.795753 C200.487565,150.795753 198.765414,149.074264 198.765414,146.950353 L198.765414,136.522909 C198.765414,134.398998 200.487565,132.67722 202.612004,132.67722 L205.447961,132.67722 C207.572689,132.67722 209.295129,134.398998 209.295129,136.522909 L209.295129,146.950353 C209.295129,149.074264 207.572689,150.795753 205.447961,150.795753" id="Fill-83" fill="#F2FAFD" mask="url(#mask-2)"></path>
                        <path d="M205.53206,150.269022 C205.523968,150.2696 205.516165,150.271622 205.508073,150.272489 C204.320283,150.296467 202.885398,150.484533 201.781129,150.076911 C200.035569,149.4324 199.562476,147.762333 199.562476,146.103533 L199.562476,137.514 C199.562476,136.089778 199.587908,134.663822 200.900257,133.740533 C202.023889,132.949844 204.042265,133.0862 205.386115,133.218511 C209.312469,133.6036 208.498067,138.413889 208.498067,141.160933 C208.498067,143.889778 209.584707,150.035311 205.53206,150.269022 M210.091902,143.2678 L210.091902,137.410578 C210.091902,135.773444 209.909543,134.255911 208.5261,133.140511 C206.989198,131.901467 204.93094,132.120733 203.079028,132.149044 C200.990714,132.1814 198.959911,133.153222 198.216892,135.2312 C197.773855,136.470244 197.968352,138.009156 197.968352,139.300489 L197.968352,145.395467 C197.968352,147.147289 197.90824,148.832089 199.321739,150.143933 C200.923955,151.631422 203.1507,151.323756 205.16214,151.323756 C205.170521,151.323756 205.17948,151.322022 205.18815,151.321733 C205.241904,151.3252 205.299993,151.326356 205.363862,151.322311 C207.866891,151.178156 209.952315,149.462444 210.091902,146.876022 C210.156638,145.6806 210.091902,144.464089 210.091902,143.2678" id="Fill-84" fill="#00BEE6" mask="url(#mask-2)"></path>
                        <path d="M128.923218,111.691638 L128.923218,150.341504 L128.923218,156.558682 C128.923218,157.243927 130.507516,156.922971 130.507516,156.373504 L130.507516,117.723349 L130.507516,111.50646 C130.507516,110.820927 128.923218,111.141882 128.923218,111.691638" id="Fill-85" fill="#637AAB" mask="url(#mask-2)"></path>
                        <path d="M131.133172,145.980553 L128.297504,145.980553 C126.172776,145.980553 124.450625,144.259064 124.450625,142.135153 L124.450625,131.707709 C124.450625,129.583798 126.172776,127.86202 128.297504,127.86202 L131.133172,127.86202 C133.2579,127.86202 134.98034,129.583798 134.98034,131.707709 L134.98034,142.135153 C134.98034,144.259064 133.2579,145.980553 131.133172,145.980553" id="Fill-86" fill="#D6F3F9" mask="url(#mask-2)"></path>
                        <path d="M131.419369,145.452436 C130.191986,145.452436 128.640345,145.695391 127.466716,145.261769 C125.720867,144.617258 125.247485,142.947191 125.247485,141.288391 L125.247485,132.698858 C125.247485,131.274636 125.272917,129.84868 126.585266,128.925391 C127.709187,128.134702 129.727563,128.271058 131.071413,128.40308 C134.997767,128.788458 134.183076,133.598747 134.183076,136.345791 C134.183076,139.074636 135.270294,145.220169 131.217358,145.45388 C130.363363,145.50328 129.964254,146.569858 131.04916,146.507169 C133.552189,146.363013 135.637613,144.647302 135.7772,142.06088 C135.841647,140.865458 135.7772,139.649236 135.7772,138.452947 L135.7772,132.595436 C135.7772,130.958302 135.594841,129.441058 134.211398,128.325369 C132.674207,127.086036 130.616238,127.305591 128.764326,127.333902 C126.676012,127.366258 124.645209,128.33808 123.90219,130.416058 C123.459153,131.655102 123.65365,133.193724 123.65365,134.485347 L123.65365,140.580324 C123.65365,142.332147 123.593538,144.016947 125.007037,145.328791 C126.608964,146.81628 128.835998,146.508613 130.847149,146.508613 C131.545373,146.508613 132.484334,145.452436 131.419369,145.452436" id="Fill-87" fill="#637AAB" mask="url(#mask-2)"></path>
                        <path d="M179.672485,103.246029 C179.672485,103.246029 174.127731,103.246029 161.786564,98.9620956 C149.445108,94.6778733 143.721752,88.7175178 143.721752,88.7175178 C143.721752,88.7175178 137.998396,94.6778733 125.65694,98.9620956 C113.315773,103.246029 107.771019,103.246029 107.771019,103.246029 C107.771019,103.246029 102.762938,117.401873 109.55964,133.047807 C116.356342,148.69374 123.868319,155.39914 128.8764,159.869118 C133.884481,164.339384 143.721752,168.064896 143.721752,168.064896 C143.721752,168.064896 153.559312,164.339384 158.567104,159.869118 C163.575185,155.39914 171.087451,148.69374 177.884153,133.047807 C184.680566,117.401873 179.672485,103.246029 179.672485,103.246029" id="Fill-88" fill="#65E393" mask="url(#mask-2)"></path>
                        <path d="M180.289442,106.081733 C180.289442,106.081733 174.509731,106.8678 162.812167,102.771356 C151.114603,98.6746222 144.641292,93.4988889 144.641292,93.4988889 C144.641292,93.4988889 140.264676,97.8885556 128.567112,101.985289 C116.869548,106.081733 111.614083,106.081733 111.614083,106.081733 C111.614083,106.081733 106.867258,119.6182 113.309357,134.579467 C119.751456,149.541311 127.396084,155.9532 132.142909,160.227889 C136.889734,164.502578 144.903415,167.540533 144.903415,167.540533 C144.903415,167.540533 153.441342,164.502578 158.188167,160.227889 C162.934992,155.9532 170.841743,149.541311 177.283842,134.579467 C183.725941,119.6182 180.289442,106.081733 180.289442,106.081733" id="Fill-89" fill="#99F7B8" mask="url(#mask-2)"></path>
                        <path d="M176.521142,134.688493 C172.014476,144.604027 165.661389,153.764982 157.106122,160.619738 C153.284675,163.681382 148.606054,165.918538 144.033207,167.690293 C140.045874,166.15716 136.100157,164.248182 132.536498,161.898649 C128.890185,159.495093 125.623329,156.22516 122.720613,152.980071 C118.505837,148.268582 115.093614,142.902182 112.292048,137.246893 C108.843122,130.285827 106.655681,123.056671 106.692384,115.237027 C106.71088,111.352049 107.096695,107.224982 108.333904,103.500916 C111.9071,103.31516 115.563239,102.271116 118.946273,101.318938 C126.674422,99.1433156 134.348817,96.2680044 140.894378,91.5232933 C141.796925,90.86896 142.711321,90.1900711 143.549132,89.43896 C146.418902,92.2229822 150.155094,94.3312933 153.677426,96.0828267 C160.487711,99.4688933 168.127137,101.894116 175.639114,103.13056 C176.742516,103.312271 177.880598,103.501204 179.005097,103.527204 C180.027868,106.487449 180.452698,109.736293 180.654709,112.840693 C181.147454,120.414204 179.65448,127.793871 176.521142,134.688493 M180.370333,103.058916 C180.329295,102.941338 180.124105,102.920538 179.883657,102.954049 C176.140529,102.891649 172.249433,101.723382 168.701091,100.707649 C161.225817,98.56756 153.838688,95.7428044 147.52924,91.10816 C146.435086,90.3041822 145.325904,89.4586044 144.37914,88.4792711 C144.146495,88.2383378 143.282674,88.5691156 143.089622,88.7687378 C140.372155,91.5799156 136.726709,93.7000711 133.283274,95.4596933 C126.57963,98.8862044 119.023725,101.297849 111.59498,102.559716 C110.737806,102.705316 109.876586,102.832138 109.009875,102.907249 C108.79746,102.925738 108.137673,102.959827 108.223217,102.959538 C107.948089,102.960404 107.197556,103.040427 107.082534,103.368027 C105.96815,106.547827 105.535228,110.06736 105.359516,113.41096 C104.948269,121.225693 106.688338,128.672093 109.98814,135.733693 C112.812248,141.777249 116.291519,147.537404 120.653974,152.600471 C123.565071,155.979604 126.892906,159.389071 130.572454,161.93736 C133.09658,163.685427 135.843525,165.113982 138.624861,166.404449 C139.954839,167.021804 141.639131,168.077982 143.113031,168.322671 C144.025693,168.474049 145.218974,167.727849 146.013435,167.391582 C148.40491,166.379027 150.75448,165.26016 153.027465,164.002916 C162.31448,158.865604 169.630515,149.96176 174.709401,140.801671 C179.014923,133.036049 182.065607,124.829582 182.145949,115.863627 C182.184097,111.632271 181.782387,107.087471 180.370333,103.058916" id="Fill-90" fill="#00BEE6" mask="url(#mask-2)"></path>
                        <path d="M165.278927,118.082033 C164.618562,117.806433 163.777572,118.138656 163.305057,118.6107 C157.355414,124.558056 151.405771,130.505411 145.456128,136.452767 C145.057019,136.851722 144.658199,137.250389 144.259379,137.649344 C139.76514,133.156544 135.270901,128.664033 130.776662,124.171811 C129.900992,123.296478 127.257798,124.430944 128.218434,125.390922 C133.084616,130.255233 137.950798,135.119544 142.81698,139.984144 C143.500754,140.667367 144.633056,140.400144 145.260764,139.772678 C151.210407,133.825611 157.16005,127.877967 163.109693,121.930611 C163.951261,121.089367 164.79254,120.248411 165.634108,119.407167 C166.114426,118.927322 165.828605,118.311122 165.278927,118.082033" id="Fill-91" fill="#00BEE6" mask="url(#mask-2)"></path>
                    </g>
                </g>
            </g>
        </g>
    </g>
</svg>