<?xml version="1.0" encoding="UTF-8"?>
<svg width="270px" height="150px" viewBox="0 0 270 150" version="1.1" xmlns="http://www.w3.org/2000/svg" xmlns:xlink="http://www.w3.org/1999/xlink">
    <!-- Generator: Sketch 51.2 (57519) - http://www.bohemiancoding.com/sketch -->
    <title>pic</title>
    <desc>Created with Sketch.</desc>
    <defs>
        <polygon id="path-1" points="0 260 289 260 289 0 0 0"></polygon>
    </defs>
    <g id="Page-1" stroke="none" stroke-width="1" fill="none" fill-rule="evenodd">
        <g id="Desktop" transform="translate(-1271.000000, -1165.000000)">
            <g id="the-octafx-demo" transform="translate(400.000000, 863.000000)">
                <g id="test" transform="translate(813.000000, 236.000000)">
                    <g id="pic" transform="translate(49.000000, 0.000000)">
                        <path d="M14.4231519,212.230633 C10.3349579,211.699367 8.8284009,211.073344 10.7849309,210.335811 C24.3936519,205.208033 85.6524039,205.364033 115.367095,205.369811 C152.743176,205.377033 191.632461,205.241833 225.296337,206.490122 C239.38422,207.012722 271.302536,207.493433 276.777352,209.227922 C291.13545,213.785722 189.298497,215.039789 172.81596,215.101611 C145.338707,215.205322 37.7737739,215.265122 14.4231519,212.230633" id="Fill-4" fill="#D2F0F9"></path>
                        <path d="M257.079025,208.42146 L23.1502872,208.42146 C16.7474922,208.42146 11.5388452,203.214816 11.5388452,196.814771 L11.5388452,196.117971 C11.5388452,195.742127 11.8437402,195.437638 12.2197292,195.437638 L268.024611,195.437638 C268.400889,195.437638 268.705495,195.742127 268.705495,196.117971 L268.705495,196.79946 C268.705495,203.207882 263.490201,208.42146 257.079025,208.42146" id="Fill-6" fill="#D2F0F9"></path>
                        <path d="M246.493533,200.387604 L246.493533,71.3238933 C246.493533,68.98736 244.655204,67.0757822 242.408229,67.0757822 L38.0100892,67.0757822 C35.7628252,67.0757822 33.9244962,68.98736 33.9244962,71.3238933 L33.9244962,200.387604 L246.493533,200.387604 Z" id="Fill-8" fill="#D2F0F9"></path>
                        <path d="M249.990318,195.343604 L249.990318,71.2710267 C249.990318,69.0249156 248.151989,67.1872933 245.904725,67.1872933 L41.5068736,67.1872933 C39.2596096,67.1872933 37.4212806,69.0249156 37.4212806,71.2710267 L37.4212806,195.343604 L249.990318,195.343604 Z" id="Fill-10" fill="#FFFFFF"></path>
                        <path d="M249.282788,83.5859267 L249.282788,110.478016 L249.282788,143.274993 L249.282788,173.631149 L249.282788,192.75126 L249.282788,194.824904 L244.345223,194.824904 L228.913779,194.824904 L205.990588,194.824904 L178.152663,194.824904 L147.51953,194.824904 L116.739007,194.824904 L87.9040318,194.824904 L63.6447938,194.824904 L46.1157878,194.824904 L40.6678488,194.824904 C39.8621168,194.824904 38.9506108,194.712816 38.1286948,194.790527 L38.1286948,184.697038 L38.1286948,158.684038 L38.1286948,126.057504 L38.1286948,95.1645933 L38.1286948,74.85166 C38.1286948,73.6625933 38.0870788,72.4654378 38.1286948,71.2769489 C38.1983438,69.3012378 39.4739898,67.7995933 41.5010358,67.7059933 C41.7510208,67.6944378 42.0047628,67.7059933 42.2553258,67.7059933 L53.2590008,67.7059933 L74.6392208,67.7059933 L103.056302,67.7059933 L135.562444,67.7059933 L168.84195,67.7059933 L199.567274,67.7059933 L224.809112,67.7059933 L241.222578,67.7059933 C244.283955,67.7059933 249.098117,66.8968156 249.282788,71.4020378 C249.448385,75.4487933 249.282788,79.5371489 249.282788,83.5859267 M250.697732,71.2223489 C250.585022,68.1676378 248.132568,66.6683044 245.348631,66.6683044 L234.723257,66.6683044 L213.429159,66.6683044 L184.756602,66.6683044 L151.99325,66.6683044 L118.429079,66.6683044 L87.3526198,66.6683044 L62.0529818,66.6683044 L45.8195628,66.6683044 C42.2111088,66.6683044 36.9157618,66.1315489 36.7137508,71.3301044 C36.5680948,75.0769933 36.7137508,78.8588378 36.7137508,82.6077489 L36.7137508,109.400171 L36.7137508,142.561438 L36.7137508,173.291993 L36.7137508,192.705327 L36.7137508,195.394593 C36.7137508,195.758016 37.0507248,195.862304 37.3613998,195.862304 L43.0662598,195.862304 L58.4979928,195.862304 L81.4208948,195.862304 L109.25882,195.862304 L139.891953,195.862304 L170.672476,195.862304 L199.50774,195.862304 L223.766689,195.862304 L241.295695,195.862304 C244.042929,195.862304 246.823976,195.988549 249.568898,195.862304 C249.645772,195.859127 249.723224,195.859993 249.800676,195.861149 C249.871192,195.866349 249.943442,195.864904 250.016559,195.85566 C250.095745,195.84786 250.168284,195.830816 250.234754,195.804816 C250.490519,195.716704 250.697732,195.537016 250.697732,195.292904 L250.697732,184.526304 L250.697732,158.151327 L250.697732,125.054482 L250.697732,94.1222822 L250.697732,74.2412378 C250.697732,73.2376378 250.735013,72.22566 250.697732,71.2223489" id="Fill-12" fill="#00BEE6"></path>
                        <path d="M260.662712,208.42146 L26.7336849,208.42146 C20.3311789,208.42146 15.1225319,203.214816 15.1225319,196.814771 L15.1225319,196.117971 C15.1225319,195.742127 15.4274269,195.437638 15.8034159,195.437638 L271.608298,195.437638 C271.984287,195.437638 272.289182,195.742127 272.289182,196.117971 L272.289182,196.79946 C272.289182,203.207882 267.073888,208.42146 260.662712,208.42146" id="Fill-14" fill="#F2FAFD"></path>
                        <path d="M259.043589,204.86284 L28.3530964,204.86284 C22.0393134,204.86284 16.9026274,201.083018 16.9026274,196.437396 L16.9026274,195.931551 C16.9026274,195.65884 17.2031874,195.437551 17.5739744,195.437551 L269.837739,195.437551 C270.208526,195.437551 270.509375,195.65884 270.509375,195.931551 L270.509375,196.426129 C270.509375,201.078107 265.366042,204.86284 259.043589,204.86284" id="Fill-16" fill="#FFFFFF"></path>
                        <path d="M270.801988,200.557442 C269.394847,204.808153 265.539876,207.867776 261.025696,207.944042 L253.729024,207.944042 L234.053904,207.944042 L205.19552,207.944042 L170.850471,207.944042 L133.820323,207.944042 L97.8482039,207.944042 L66.1142699,207.944042 L41.9397089,207.944042 L28.6448419,207.944042 C27.2544629,207.944042 25.9007869,207.969176 24.5294819,207.625976 C20.1834999,206.537731 16.8599999,202.772064 16.1710239,198.372864 C16.1028199,197.938376 16.2935599,196.281887 16.0299919,195.984042 C16.0039819,195.954576 15.9811509,195.929442 15.9562969,195.901998 C18.8951379,195.730687 21.9056509,195.914998 24.8444919,195.914998 L45.0496379,195.914998 L73.5328999,195.914998 L107.513231,195.914998 L144.209873,195.914998 L180.84149,195.914998 L214.627035,195.914998 L242.880831,195.914998 L262.53601,195.914998 L268.406467,195.914998 C269.039955,195.914998 270.523392,195.624376 271.105727,195.914998 C272.05567,196.388487 271.068446,199.752309 270.801988,200.557442 M272.343803,195.021753 C271.700489,194.841487 270.90256,194.96022 270.245952,194.96022 L257.116682,194.96022 L233.507694,194.96022 L202.201769,194.96022 L166.502177,194.96022 L128.787677,194.96022 L92.3988199,194.96022 L60.1056709,194.96022 L34.7418749,194.96022 L19.4231409,194.96022 C18.4156869,194.96022 17.4007189,194.923242 16.3935539,194.96022 C16.0184319,194.973798 15.6060289,195.022042 15.2401549,195.151753 C14.7690849,194.715242 14.8054989,194.946353 14.9719629,195.266731 C14.6491499,195.433709 14.3887609,195.687642 14.2647799,196.071576 C13.7755029,197.587953 14.4685249,199.901376 15.0196479,201.303642 C15.7294319,203.109487 16.9010379,204.748931 18.3789839,206.004442 C22.2319319,209.277264 26.8550649,208.89882 31.4940929,208.89882 L49.6915559,208.89882 L77.7508549,208.89882 L112.193875,208.89882 L149.541923,208.89882 L186.452425,208.89882 L219.153931,208.89882 L244.312537,208.89882 L258.478161,208.89882 L260.299728,208.89882 C264.192847,208.832953 267.967187,207.215753 270.470216,204.185598 C271.694998,202.702153 272.572402,200.899487 272.956483,199.01362 C273.174967,197.943287 273.782445,195.424176 272.343803,195.021753" id="Fill-18" fill="#00BEE6"></path>
                        <path d="M114.147341,195.44122 C114.473045,197.40162 116.181612,198.901242 118.234091,198.901242 L169.177565,198.901242 C171.230043,198.901242 172.938612,197.40162 173.264315,195.44122 L114.147341,195.44122 Z" id="Fill-20" fill="#FFFFFF"></path>
                        <path d="M165.105035,198.430556 L152.323143,198.430556 L123.509843,198.430556 L119.352867,198.430556 C117.42148,198.430556 115.73083,197.760333 115.040987,195.911733 L133.931761,195.911733 L165.695751,195.911733 L172.452282,195.911733 C171.468526,199.104822 167.789845,198.430556 165.105035,198.430556 M173.515802,194.970533 L153.479721,194.970533 L121.71602,194.970533 L114.515296,194.970533 C114.069658,194.877222 113.354094,195.185467 113.449753,195.628044 C114.318487,199.652267 118.10352,199.371756 121.263735,199.371756 L134.406299,199.371756 L164.93597,199.371756 C168.442985,199.371756 172.99618,199.878756 173.968376,195.376711 C174.020974,195.134333 173.716368,194.970533 173.515802,194.970533" id="Fill-22" fill="#00BEE6"></path>
                        <mask id="mask-2" fill="white">
                            <use xlink:href="#path-1"></use>
                        </mask>
                        <g id="Clip-25"></g>
                        <polygon id="Fill-24" fill="#FFFFFF" mask="url(#mask-2)" points="47.306121 189.465756 240.105535 189.465756 240.105535 77.0472444 47.306121 77.0472444"></polygon>
                        <path d="M239.407109,88.31082 L239.407109,115.157553 L239.407109,147.637331 L239.407109,175.716464 L239.407109,184.969576 L239.407109,187.850953 C239.407109,188.172776 239.323877,188.670531 239.353066,189.061687 L221.094046,189.061687 L175.106054,189.061687 L119.513725,189.061687 L71.2226917,189.061687 L55.4687237,189.061687 L50.5019697,189.061687 C49.7537487,189.061687 48.7595887,188.893842 48.0044317,189.043198 L48.0044317,178.201776 L48.0044317,151.355042 L48.0044317,118.875264 L48.0044317,90.79642 L48.0044317,81.54302 L48.0044317,78.6619311 C48.0044317,78.3401089 48.0879527,77.8417756 48.0587637,77.4509089 L66.3174947,77.4509089 L112.305487,77.4509089 L167.898105,77.4509089 L216.189138,77.4509089 C223.920755,77.4509089 231.676359,77.62742 239.407109,77.4529311 L239.407109,88.31082 Z M240.804135,77.1527756 C240.79113,77.0952867 240.804135,77.0219089 240.804135,76.9621089 C240.804135,76.9127089 240.79113,76.8713978 240.773212,76.8341311 C240.778703,76.7411089 240.699806,76.6709089 240.498084,76.6503978 C240.397512,76.6293089 240.280756,76.6284422 240.161688,76.6431756 L221.094046,76.6431756 L175.106054,76.6431756 L119.513725,76.6431756 L71.2226917,76.6431756 C63.4613077,76.6431756 55.6609087,76.4135089 47.9024147,76.6431756 C47.7937507,76.6463533 47.6845087,76.6431756 47.5755557,76.6431756 C47.3507137,76.6431756 46.6074057,76.7749089 46.6074057,77.1319756 L46.6074057,88.31082 L46.6074057,115.157553 L46.6074057,147.637331 L46.6074057,175.716464 L46.6074057,184.969576 C46.6074057,186.311176 46.3120477,188.041331 46.6074057,189.35982 C46.6204107,189.417309 46.6074057,189.490687 46.6074057,189.550487 C46.6074057,189.785642 46.8221327,189.86942 47.0368597,189.86942 L66.3174947,189.86942 L112.305487,189.86942 L167.898105,189.86942 L216.189138,189.86942 C223.950233,189.86942 231.750632,190.099087 239.509415,189.86942 C239.61779,189.866242 239.727321,189.86942 239.836274,189.86942 C240.060827,189.86942 240.804135,189.737687 240.804135,189.38062 L240.804135,178.201776 L240.804135,151.355042 L240.804135,118.875264 L240.804135,90.79642 L240.804135,81.54302 C240.804135,80.20142 241.099782,78.4709756 240.804135,77.1527756 Z" id="Fill-26" fill="#00BEE6" mask="url(#mask-2)"></path>
                        <path d="M165.144542,168.448164 C151.497673,182.315409 129.269238,183.704387 113.955417,171.108831 C97.7667926,157.794231 95.4377416,133.83812 108.758041,117.656587 C121.376937,102.326987 143.502199,99.4242311 159.570888,110.460653 C161.052591,111.478409 161.329164,113.55552 160.187036,114.943053 L144.551269,133.938076 C140.983853,138.271987 141.606648,144.675787 145.941937,148.241831 L164.913631,163.845876 C166.331754,165.012409 166.432326,167.139498 165.144542,168.448164" id="Fill-27" fill="#D2F0F9" mask="url(#mask-2)"></path>
                        <path d="M158.89324,166.809067 C146.018579,180.197044 126.983883,179.963333 113.021426,168.288178 C98.2619074,155.946267 96.5177924,133.271667 109.130041,117.695067 C121.07759,102.938622 141.613641,99.7989778 156.301488,109.982889 C157.655742,110.921778 157.87596,112.886511 156.794522,114.222333 L140.420071,134.446867 C137.042817,138.618422 137.508974,144.6796 141.461627,147.985067 L158.758566,162.449444 C160.051552,163.530467 160.108196,165.545756 158.89324,166.809067" id="Fill-28" fill="#F2FAFD" mask="url(#mask-2)"></path>
                        <path d="M136.577296,179.447089 C126.307681,178.914956 116.508269,174.019444 109.845663,166.1998 C103.822614,159.1304 100.594773,149.916578 100.820771,140.6392 C101.060352,130.832289 105.2023,121.344022 112.229624,114.494467 C119.480634,107.426222 129.375994,103.629644 139.49793,104.117578 C144.421045,104.354756 149.291851,105.5912 153.740717,107.708467 C154.789209,108.207378 155.814292,108.754822 156.813076,109.347911 C157.847407,109.962378 159.260328,110.637222 159.842952,111.738756 C160.51112,113.002644 160.116924,114.298022 159.279691,115.342644 C155.847238,119.625422 152.300341,123.821533 148.8124,128.058956 C145.459422,132.132 140.762016,136.324933 141.656182,142.131022 C142.482144,147.493378 148.047128,150.7454 151.917416,153.928667 C155.98249,157.272267 160.232524,160.476044 164.151075,163.990956 C165.556193,165.251089 165.720634,167.1046 164.479379,168.553089 C157.109012,175.938244 147.033894,179.988756 136.577296,179.447089 M165.542899,163.591133 C165.08021,163.168489 164.568102,162.790044 164.084894,162.392244 C161.715094,160.443111 159.345294,158.493978 156.975783,156.544844 L149.239542,150.181778 C147.524327,148.770844 145.604789,147.435022 144.42827,145.513911 C142.122628,141.750267 142.617396,137.079222 145.337175,133.685933 C146.70559,131.978889 148.119378,130.305933 149.509757,128.616511 C153.23699,124.088756 157.050345,119.6182 160.697525,115.025444 C163.697345,111.247356 158.212125,108.7892 155.427032,107.426511 C151.024695,105.272844 146.2114,103.9896 141.323254,103.646111 C131.905033,102.983978 122.287691,105.765689 114.723116,111.424156 C106.712614,117.416 101.281437,126.488556 99.8214092,136.382711 C98.3862352,146.112489 100.829152,156.2392 106.596147,164.214267 C112.652431,172.590311 122.058803,178.251667 132.30183,179.66 C141.846922,180.972422 151.840542,178.664489 159.839484,173.293756 C161.979818,171.856822 163.954266,170.206978 165.772365,168.380044 C165.782769,168.369644 165.786526,168.361267 165.792017,168.352311 C165.8056,168.340756 165.82005,168.329778 165.830743,168.317356 C167.114192,166.844311 166.980385,164.905 165.542899,163.591133" id="Fill-29" fill="#00BEE6" mask="url(#mask-2)"></path>
                        <path d="M170.924831,158.972378 L174.736163,162.1074 C176.643852,163.676356 179.49108,163.218756 180.819902,161.137022 C190.185525,146.4658 188.315117,127.183622 176.306011,114.5846 C174.594553,112.788867 171.698773,112.889111 170.122278,114.804444 L161.348238,125.463578 L159.680997,127.489267 L155.228374,132.898133 C151.660091,137.233489 152.282886,143.639311 156.61962,147.206222 L159.328417,149.434133 L170.924831,158.972378 Z" id="Fill-30" fill="#F0F8FB" mask="url(#mask-2)"></path>
                        <path d="M172.54904,155.970938 L176.020219,158.977404 C177.757398,160.481938 180.232683,160.04456 181.364118,158.10756 C189.050362,144.94636 187.555943,126.549338 176.569608,114.529827 C175.003806,112.816716 172.411187,112.855716 171.033235,114.618227 L163.364909,124.427738 L161.907771,126.291938 L158.016097,131.269782 C154.897498,135.259627 155.571157,141.266782 159.520631,144.687227 L161.987824,146.824138 L172.54904,155.970938 Z" id="Fill-31" fill="#FFFFFF" mask="url(#mask-2)"></path>
                        <path d="M182.096501,157.611451 C181.398855,159.006207 180.620578,160.943784 179.332794,161.890762 C177.966691,162.895518 176.379503,162.530073 175.130156,161.575873 C173.873584,160.615896 172.680303,159.560873 171.459278,158.556407 C167.49073,155.292251 163.522182,152.028096 159.553345,148.763651 C158.136956,147.598851 156.562484,146.497318 155.477867,145.000296 C153.832301,142.729051 153.244475,139.800873 153.869293,137.067696 C154.661731,133.601029 157.762412,130.760096 159.956789,128.094229 C163.357452,123.96254 166.758693,119.83114 170.159356,115.699162 C171.440782,114.142918 173.280845,113.126318 175.194892,114.496518 C176.318235,115.300784 177.258641,116.636896 178.105411,117.721673 C179.036569,118.914207 179.895188,120.162207 180.676933,121.457584 C183.758829,126.563407 185.587621,132.43594 185.970546,138.387051 C186.396532,145.00174 185.062797,151.681718 182.096501,157.611451 M185.133313,127.474562 C184.041471,124.493229 182.580865,121.638429 180.78762,119.017918 C179.33684,116.898629 177.369328,113.65874 174.725845,112.938829 C170.921449,111.902296 168.800189,115.470651 166.756959,117.952784 C164.753611,120.386384 162.750552,122.820273 160.746915,125.253873 C158.785183,127.637207 156.811313,130.011007 154.86143,132.404162 C151.58706,136.422607 151.233324,142.18594 154.691209,146.249162 C156.675772,148.580784 159.53167,150.456829 161.900603,152.405384 C164.730491,154.733251 167.560668,157.060829 170.390556,159.388407 C173.080279,161.601007 176.223732,165.171096 179.969172,162.777073 C181.111011,162.047051 181.746233,160.868096 182.404575,159.72294 C183.270708,158.215518 184.034246,156.648584 184.683629,155.036007 C185.815353,152.225407 186.616461,149.275562 187.058631,146.27834 C187.987477,139.982296 187.321332,133.451096 185.133313,127.474562" id="Fill-32" fill="#00BEE6" mask="url(#mask-2)"></path>
                        <path d="M188.596458,115.011607 C191.035329,113.680118 193.441543,112.159984 195.986766,111.039384 C199.261136,109.59754 202.775376,109.413518 206.290194,109.413518 L226.285815,109.413518 L232.583703,109.413518 C233.149565,109.413518 234.050089,108.558984 233.109394,108.558984 L216.465595,108.558984 L206.893337,108.558984 C203.560878,108.558984 200.262521,108.699673 197.06358,109.768273 C193.779384,110.864896 190.739393,112.882496 187.713563,114.534651 C186.890491,114.983873 188.103135,115.28114 188.596458,115.011607" id="Fill-33" fill="#00BEE6" mask="url(#mask-2)"></path>
                        <path d="M231.435073,105.1427 L201.376761,105.1427 C200.379711,105.1427 199.571089,104.334678 199.571089,103.337722 L199.571089,102.908722 C199.571089,101.911767 200.379711,101.103744 201.376761,101.103744 L231.435073,101.103744 C232.432412,101.103744 233.241034,101.911767 233.241034,102.908722 L233.241034,103.337722 C233.241034,104.334678 232.432412,105.1427 231.435073,105.1427" id="Fill-34" fill="#D2F0F9" mask="url(#mask-2)"></path>
                        <path d="M99.5093759,166.760533 C97.0705049,168.092022 94.6642909,169.611867 92.1190679,170.732756 C88.8444089,172.1746 85.3301689,172.358622 81.8156399,172.358622 L61.8200189,172.358622 L55.5221309,172.358622 C54.9562689,172.358622 54.0557449,173.213156 54.9964399,173.213156 L71.6402389,173.213156 L81.2124969,173.213156 C84.5449559,173.213156 87.8433129,173.072467 91.0422539,172.003867 C94.3264499,170.907244 97.3664409,168.889644 100.392271,167.237489 C101.215343,166.788267 100.002699,166.491 99.5093759,166.760533" id="Fill-35" fill="#00BEE6" mask="url(#mask-2)"></path>
                        <path d="M56.6707903,169.217216 L86.7291023,169.217216 C87.7261523,169.217216 88.5347743,168.408904 88.5347743,167.412238 L88.5347743,166.983238 C88.5347743,165.985993 87.7261523,165.17826 86.7291023,165.17826 L56.6707903,165.17826 C55.6734513,165.17826 54.8648293,165.985993 54.8648293,166.983238 L54.8648293,167.412238 C54.8648293,168.408904 55.6734513,169.217216 56.6707903,169.217216" id="Fill-36" fill="#D2F0F9" mask="url(#mask-2)"></path>
                        <path d="M228.458401,159.670622 L201.639491,159.670622 C198.99832,159.670622 196.857119,157.530533 196.857119,154.890089 L196.857119,131.112511 C196.857119,128.472067 198.99832,126.331689 201.639491,126.331689 L228.458401,126.331689 C231.099861,126.331689 233.241062,128.472067 233.241062,131.112511 L233.241062,154.890089 C233.241062,157.530533 231.099861,159.670622 228.458401,159.670622" id="Fill-37" fill="#D2F0F9" mask="url(#mask-2)"></path>
                        <path d="M199.481932,152.516953 L225.882082,152.516953 L229.720291,152.516953 C230.039058,152.516953 231.306901,151.912598 230.615902,151.912598 L204.21633,151.912598 L200.378121,151.912598 C200.058776,151.912598 198.790933,152.516953 199.481932,152.516953" id="Fill-38" fill="#FFFFFF" mask="url(#mask-2)"></path>
                        <path d="M199.861823,146.560036 L226.261684,146.560036 L230.099893,146.560036 C230.879615,146.560036 231.186244,145.584747 230.236301,145.584747 L203.83644,145.584747 L199.998231,145.584747 C199.21822,145.584747 198.91188,146.560036 199.861823,146.560036" id="Fill-39" fill="#FFFFFF" mask="url(#mask-2)"></path>
                        <path d="M199.663973,140.346093 L226.063834,140.346093 L229.902043,140.346093 C230.453455,140.346093 231.374209,139.514093 230.434092,139.514093 L204.034231,139.514093 L200.196022,139.514093 C199.64461,139.514093 198.723856,140.346093 199.663973,140.346093" id="Fill-40" fill="#FFFFFF" mask="url(#mask-2)"></path>
                        <path d="M199.477424,134.072351 L225.877285,134.072351 L229.715494,134.072351 C230.013453,134.072351 231.29459,133.502951 230.620642,133.502951 L204.220781,133.502951 L200.382572,133.502951 C200.084902,133.502951 198.803765,134.072351 199.477424,134.072351" id="Fill-41" fill="#FFFFFF" mask="url(#mask-2)"></path>
                        <path d="M86.4662857,148.15372 L59.6473747,148.15372 C57.0062037,148.15372 54.8647137,146.013342 54.8647137,143.372898 L54.8647137,119.59532 C54.8647137,116.954876 57.0062037,114.814787 59.6473747,114.814787 L86.4662857,114.814787 C89.1077457,114.814787 91.2486577,116.954876 91.2486577,119.59532 L91.2486577,143.372898 C91.2486577,146.013342 89.1077457,148.15372 86.4662857,148.15372" id="Fill-42" fill="#D2F0F9" mask="url(#mask-2)"></path>
                        <path d="M57.4898163,141.000051 L83.8896773,141.000051 L87.7278863,141.000051 C88.0469423,141.000051 89.3147853,140.395407 88.6234973,140.395407 L62.2239253,140.395407 L58.3857163,140.395407 C58.0666603,140.395407 56.7988173,141.000051 57.4898163,141.000051" id="Fill-43" fill="#FFFFFF" mask="url(#mask-2)"></path>
                        <path d="M57.8696779,135.043133 L84.2695389,135.043133 L88.1077479,135.043133 C88.8874699,135.043133 89.1940989,134.067556 88.2441559,134.067556 L61.8442949,134.067556 L58.0057969,134.067556 C57.2260749,134.067556 56.9197349,135.043133 57.8696779,135.043133" id="Fill-44" fill="#FFFFFF" mask="url(#mask-2)"></path>
                        <path d="M57.6718285,128.828902 L84.0716895,128.828902 L87.9098985,128.828902 C88.4610215,128.828902 89.3820645,127.996902 88.4419475,127.996902 L62.0420865,127.996902 L58.2038775,127.996902 C57.6524655,127.996902 56.7317115,128.828902 57.6718285,128.828902" id="Fill-45" fill="#FFFFFF" mask="url(#mask-2)"></path>
                        <path d="M57.485279,122.555304 L83.88514,122.555304 L87.723349,122.555304 C88.021019,122.555304 89.302156,121.985904 88.628497,121.985904 L62.228636,121.985904 L58.390427,121.985904 C58.092468,121.985904 56.811331,122.555304 57.485279,122.555304" id="Fill-46" fill="#FFFFFF" mask="url(#mask-2)"></path>
                        <path d="M182.555953,94.6254689 L104.312382,94.6254689 C103.315044,94.6254689 102.50671,93.8174467 102.50671,92.8202022 L102.50671,90.36898 C102.50671,89.3717356 103.315044,88.5637133 104.312382,88.5637133 L182.555953,88.5637133 C183.553292,88.5637133 184.361625,89.3717356 184.361625,90.36898 L184.361625,92.8202022 C184.361625,93.8174467 183.553292,94.6254689 182.555953,94.6254689" id="Fill-47" fill="#D2F0F9" mask="url(#mask-2)"></path>
                        <path d="M107.108602,91.8430933 L131.272181,91.8430933 L169.828538,91.8430933 L178.735229,91.8430933 C179.033188,91.8430933 180.314325,91.2736933 179.640666,91.2736933 L155.476798,91.2736933 L116.920152,91.2736933 L108.01375,91.2736933 C107.71608,91.2736933 106.434943,91.8430933 107.108602,91.8430933" id="Fill-48" fill="#FFFFFF" mask="url(#mask-2)"></path>
                    </g>
                </g>
            </g>
        </g>
    </g>
</svg>