<?xml version="1.0" encoding="UTF-8"?>
<svg width="506px" height="351px" viewBox="0 0 506 351" version="1.1" xmlns="http://www.w3.org/2000/svg" xmlns:xlink="http://www.w3.org/1999/xlink">
    <!-- Generator: Sketch 51.2 (57519) - http://www.bohemiancoding.com/sketch -->
    <title>pic</title>
    <desc>Created with Sketch.</desc>
    <defs>
        <polygon id="path-1" points="0.771707317 91.7183797 0.287906191 91.4391076 0.287906191 0.0496577993 0.771707317 0.328929867"></polygon>
        <polygon id="path-3" points="0.499065666 91.9059758 0.0156885553 91.6258549 0.0156885553 0.236405079 0.499065666 0.516101572"></polygon>
        <polygon id="path-5" points="0.650863039 60.606283 0.167061914 60.3270109 0.167061914 0.00212212817 0.650863039 0.281394196"></polygon>
        <polygon id="path-7" points="0.552915572 64.8849178 0.0695384615 64.6052213 0.0695384615 0.0462623942 0.552915572 0.325534462"></polygon>
        <polygon id="path-9" points="0.851846154 42.2193156 0.368469043 41.9400435 0.368469043 0.194386941 0.851846154 0.473659008"></polygon>
        <polygon id="path-11" points="150.79585 87.0713434 150.517272 185.448112 0.0521538462 98.4926372 0.330731707 0.115868198"></polygon>
        <linearGradient x1="-7.26551622e-05%" y1="50.0000181%" x2="100.000043%" y2="50.0000181%" id="linearGradient-13">
            <stop stop-color="#1F6EFD" offset="0%"></stop>
            <stop stop-color="#31B7FD" offset="100%"></stop>
        </linearGradient>
        <linearGradient x1="5.71944921e-05%" y1="50.0000917%" x2="100.000025%" y2="50.0000917%" id="linearGradient-14">
            <stop stop-color="#1F6EFD" offset="0%"></stop>
            <stop stop-color="#31B7FD" offset="100%"></stop>
        </linearGradient>
        <polygon id="path-15" points="58.2685666 77.1877437 0.00636022514 43.5528609 0.00636022514 0.0386227328 58.2685666 33.673081"></polygon>
        <linearGradient x1="1.06254457e-05%" y1="49.9999039%" x2="99.9995929%" y2="49.9999039%" id="linearGradient-17">
            <stop stop-color="#14A2D9" offset="0%"></stop>
            <stop stop-color="#56F0E8" offset="100%"></stop>
        </linearGradient>
        <polygon id="path-18" points="61.8472533 81.8912285 0.0330731707 46.2055212 0.0330731707 0.0381983071 61.8472533 35.7239057"></polygon>
        <linearGradient x1="-0.00035388214%" y1="49.9998762%" x2="99.9998169%" y2="49.9998762%" id="linearGradient-20">
            <stop stop-color="#14A2D9" offset="0%"></stop>
            <stop stop-color="#56F0E8" offset="100%"></stop>
        </linearGradient>
        <polygon id="path-21" points="62.0342439 82.2651475 0.22006379 46.5798646 0.22006379 0.412541717 62.0342439 36.0978247"></polygon>
        <linearGradient x1="-0.000179856362%" y1="50.0000029%" x2="100.000137%" y2="50.0000029%" id="linearGradient-23">
            <stop stop-color="#14A2D9" offset="0%"></stop>
            <stop stop-color="#56F0E8" offset="100%"></stop>
        </linearGradient>
        <path d="M0.0368893058,24.6145647 L0.0368893058,24.6939323 C0.0368893058,17.6030532 1.25974859,11.2774135 3.73006004,6.21401572 C5.73692308,2.10090689 8.53372608,-1.09034946 12.0513546,0.993155985 C19.8142214,5.59180774 18.0774559,16.1553374 26.3478687,20.9352189 C34.2739812,25.5156203 31.75406,7.44230351 41.1527767,12.8741028 C50.1100938,18.0499734 47.5007054,39.3209129 56.3248818,44.4208114 C63.9669043,48.8369601 62.5824953,35.1089129 68.8150919,38.6702684 C71.9307542,40.450734 74.0406529,46.3107787 75.370788,51.7260254 C76.641561,56.8955296 77.2525666,61.90163 77.2525666,66.5741318 L77.2525666,69.2382515 L0.0368893058,24.6145647 Z" id="path-24"></path>
        <linearGradient x1="-0.000415856699%" y1="50.0002724%" x2="100.000155%" y2="50.0002724%" id="linearGradient-26">
            <stop stop-color="#1F6EFD" offset="0%"></stop>
            <stop stop-color="#31B7FD" offset="100%"></stop>
        </linearGradient>
        <polygon id="path-27" points="62.2102101 82.2681185 0.396030019 46.5824111 0.396030019 0.415088271 62.2102101 36.1007956"></polygon>
        <linearGradient x1="0.000307443255%" y1="50.000098%" x2="100.000489%" y2="50.000098%" id="linearGradient-29">
            <stop stop-color="#14A2D9" offset="0%"></stop>
            <stop stop-color="#56F0E8" offset="100%"></stop>
        </linearGradient>
        <path d="M0.153,1.51227273 C0.153,2.55818182 0.96,3.82909091 1.9565,4.35227273 C2.9525,4.875 3.76,4.45136364 3.76,3.40545455 C3.76,2.36 2.9525,1.08818182 1.9565,0.565454545 C1.667,0.413636364 1.393,0.341363636 1.151,0.341363636 C0.559,0.341363636 0.153,0.770454545 0.153,1.51227273" id="path-30"></path>
        <linearGradient x1="-0.00634876629%" y1="49.9996744%" x2="100.007165%" y2="49.9996744%" id="linearGradient-32">
            <stop stop-color="#1F6EFD" offset="0%"></stop>
            <stop stop-color="#31B7FD" offset="100%"></stop>
        </linearGradient>
    </defs>
    <g id="Page-1" stroke="none" stroke-width="1" fill="none" fill-rule="evenodd">
        <g id="Desktop" transform="translate(-1095.000000, -1714.000000)">
            <g id="access-the-demo" transform="translate(0.000000, 1630.000000)">
                <g id="pic" transform="translate(1095.000000, 84.000000)">
                    <polygon id="Fill-1" fill="#F2FAFD" points="244 191.590581 504.974532 343 506 342.40857 245.025468 191"></polygon>
                    <polygon id="Fill-2" fill="#F2FAFD" points="238 147.59041 481.976209 289 483 288.40959 239.023791 147"></polygon>
                    <polygon id="Fill-3" fill="#F2FAFD" points="426.651322 247 412 238.627681 432.348678 227 447 235.371896"></polygon>
                    <g id="Group-386">
                        <path d="M432.582529,75.7764011 L323.020443,12.459736 C321.591089,11.6338037 320.432256,12.5106671 320.432256,14.4180359 L320.432256,16.4709827 L320.432256,16.5130008 L320.432256,94.7066333 L435.170717,161.015075 L435.170717,82.8210178 L435.170717,82.7789996 L435.170717,80.7260528 C435.170717,78.818684 434.011884,76.6023334 432.582529,75.7764011" id="Fill-4" fill="#DCF6FF" opacity="0.3"></path>
                        <path d="M449.35597,63.8286497 L339.793883,0.511560218 C338.364529,-0.314372068 337.20612,0.562915719 337.20612,2.47028452 L337.20612,4.52323132 L337.20612,4.56482503 L337.20612,82.7588819 L451.944157,149.066899 L451.944157,70.8732664 L451.944157,70.8312482 L451.944157,68.7783015 C451.944157,66.8709326 450.785324,64.654582 449.35597,63.8286497" id="Fill-6" fill="#DCF6FF" opacity="0.3"></path>
                        <path d="M295.353209,124.554281 L435.023329,205.271548 C439.380932,207.789241 442.912977,205.116209 442.912977,199.301153 L442.912977,107.036113 C442.912977,101.220633 439.380932,94.4650502 435.023329,91.9473573 L295.353209,11.2305145 C290.996031,8.71282164 287.463986,11.3850054 287.463986,17.2004855 L287.463986,109.465525 C287.463986,115.280581 290.996031,122.036164 295.353209,124.554281" id="Fill-8" fill="#DCF6FF" opacity="0.3"></path>
                        <path d="M290.497347,127.518597 L430.167891,208.235864 C434.525069,210.753557 438.057538,208.080525 438.057538,202.265469 L438.057538,110.000429 C438.057538,104.184949 434.525069,97.4297906 430.167891,94.9116733 L290.497347,14.1948305 C286.140593,11.6771376 282.608124,14.3493214 282.608124,20.1648015 L282.608124,112.429841 C282.608124,118.244897 286.140593,125.00048 290.497347,127.518597" id="Fill-10" fill="#DCF6FF" opacity="0.3"></path>
                        <path d="M282.48287,38.7784121 C287.593947,44.3574871 293.444082,47.7006878 298.530566,47.953221 L306.369755,48.3432682 C314.732179,48.7587809 324.773703,56.5788232 331.35696,67.800637 L354.677785,107.553615 C360.951935,118.248292 370.614814,125.200384 378.179241,124.457215 C386.714239,123.619399 397.351504,131.071464 404.647954,142.997824 L414.308712,158.789429 C419.922247,167.965936 428.07648,174.301337 435.084176,174.93458 L443.625534,175.705762 L443.625534,179.344787 L436.211632,178.675043 C433.413556,178.422934 430.456052,177.378423 427.517204,175.680296 C422.004585,172.494133 416.55684,167.006309 412.351035,160.133585 L402.690277,144.34198 C396.337684,133.956285 387.076348,127.467242 379.644213,128.198951 C370.957842,129.051198 359.858401,121.068176 352.65269,108.784874 L329.331864,69.0314713 C323.600453,59.25992 314.858536,52.4512839 307.576078,52.0900977 L299.736465,51.7000505 C293.893114,51.4114411 287.175868,47.5708135 281.304956,41.1628353 L277.001204,36.4674145 L277.001204,32.7978305 L282.48287,38.7784121 Z" id="Fill-12" fill="#05C14B"></path>
                        <path d="M282.607912,31.2154444 L284.359094,33.1274819 C289.466779,38.7061324 295.311826,42.0493331 300.394493,42.3018664 L308.228171,42.6919135 C316.584235,43.1074262 326.61855,50.9274686 333.196719,62.1492823 L356.500159,101.902261 C362.769221,112.596938 372.424891,119.54903 379.983807,118.80586 C388.512445,117.968044 399.142077,125.420109 406.432591,137.34647 L416.086565,153.138074 C421.695435,162.314581 429.843732,168.649558 436.845916,169.283226 L438.187075,169.404187 L438.187075,173.043212 L437.972947,173.023689 C435.176568,172.771155 432.222032,171.726644 429.28488,170.028517 C423.776501,166.842778 418.332572,161.354955 414.130583,154.481806 L404.47661,138.69105 C398.128257,128.305355 388.874129,121.815887 381.447507,122.547172 C372.767919,123.399419 361.676959,115.416822 354.476336,103.133519 L331.173319,63.3805411 C325.445724,53.6081409 316.711015,46.7999293 309.433221,46.438743 L301.599968,46.0486959 C295.761281,45.7600865 289.0487,41.9194589 283.182028,35.5114807 L282.607912,34.8850284 L282.607912,31.2154444 Z" id="Fill-14" fill-opacity="0.2" fill="#05C14B"></path>
                        <g id="Group-18" transform="translate(292.994371, 50.506651)">
                            <mask id="mask-2" fill="white">
                                <use xlink:href="#path-1"></use>
                            </mask>
                            <g id="Clip-17"></g>
                            <polygon id="Fill-16" mask="url(#mask-2)" points="0.771707317 91.7183797 0.287906191 91.4391076 0.287906191 0.0496577993 0.771707317 0.328929867"></polygon>
                        </g>
                        <g id="Group-21" transform="translate(326.067542, 64.512696)">
                            <mask id="mask-4" fill="white">
                                <use xlink:href="#path-3"></use>
                            </mask>
                            <g id="Clip-20"></g>
                            <polygon id="Fill-19" mask="url(#mask-4)" points="0.499065666 91.9059758 0.0156885553 91.6258549 0.0156885553 0.236405079 0.499065666 0.516101572"></polygon>
                        </g>
                        <g id="Group-24" transform="translate(359.988743, 119.263603)">
                            <mask id="mask-6" fill="white">
                                <use xlink:href="#path-5"></use>
                            </mask>
                            <g id="Clip-23"></g>
                            <polygon id="Fill-22" mask="url(#mask-6)" points="0.650863039 60.606283 0.167061914 60.3270109 0.167061914 0.00212212817 0.650863039 0.281394196"></polygon>
                        </g>
                        <g id="Group-27" transform="translate(394.757974, 135.391778)">
                            <mask id="mask-8" fill="white">
                                <use xlink:href="#path-7"></use>
                            </mask>
                            <g id="Clip-26"></g>
                            <polygon id="Fill-25" mask="url(#mask-8)" points="0.552915572 64.8849178 0.0695384615 64.6052213 0.0695384615 0.0462623942 0.552915572 0.325534462"></polygon>
                        </g>
                        <g id="Group-30" transform="translate(424.439024, 174.438936)">
                            <mask id="mask-10" fill="white">
                                <use xlink:href="#path-9"></use>
                            </mask>
                            <g id="Clip-29"></g>
                            <polygon id="Fill-28" mask="url(#mask-10)" points="0.851846154 42.2193156 0.368469043 41.9400435 0.368469043 0.194386941 0.851846154 0.473659008"></polygon>
                        </g>
                        <path d="M423.862491,170.360715 C423.664052,170.47531 423.550416,170.780472 423.550416,171.198531 C423.550416,172.328777 424.377245,173.762486 425.355448,174.328246 C425.717133,174.536639 426.037264,174.590541 426.236127,174.475946 C426.434142,174.361775 426.548202,174.056189 426.548202,173.638978 C426.548202,172.507884 425.721373,171.075023 424.742746,170.508839 C424.506146,170.372174 424.28693,170.301295 424.107996,170.301295 C424.013441,170.301295 423.930758,170.321243 423.862491,170.360715 M424.742322,175.391007 C423.386746,174.606244 422.324589,172.764662 422.324589,171.198531 C422.324589,170.330581 422.661681,169.637918 423.249789,169.297953 C423.838322,168.958837 424.605365,169.012315 425.355448,169.446078 C426.711872,170.229992 427.77403,172.071999 427.77403,173.638978 C427.77403,174.506929 427.436938,175.199167 426.848829,175.538708 C426.593148,175.686408 426.30397,175.759833 425.996135,175.759833 C425.596713,175.759833 425.166761,175.635901 424.742322,175.391007" id="Fill-31" fill="#FFFFFF"></path>
                        <path d="M393.882468,131.099688 C393.684029,131.214283 393.570392,131.518596 393.570392,131.936656 C393.570392,133.068174 394.397222,134.501035 395.375424,135.06637 C395.736685,135.274763 396.057665,135.328665 396.256528,135.21407 C396.454543,135.0999 396.568179,134.795162 396.568179,134.377528 C396.568179,133.246433 395.741773,131.813148 394.762723,131.247813 C394.526122,131.110723 394.306907,131.040269 394.127548,131.040269 C394.033841,131.040269 393.950734,131.059792 393.882468,131.099688 M394.762723,136.129132 C393.407147,135.345642 392.344565,133.50406 392.344565,131.936656 C392.344565,131.06913 392.681657,130.376467 393.269342,130.036927 C393.857027,129.699084 394.62407,129.751713 395.375424,130.185051 C396.731848,130.968116 397.794006,132.809699 397.794006,134.377528 C397.794006,135.245054 397.456914,135.937292 396.869229,136.276832 C396.613548,136.424532 396.323946,136.498382 396.016535,136.498382 C395.616689,136.498382 395.187162,136.374026 394.762723,136.129132" id="Fill-33" fill="#FFFFFF"></path>
                        <path d="M359.210548,115.102916 C359.012109,115.217511 358.898897,115.522673 358.898897,115.940733 C358.898897,117.071403 359.725302,118.504263 360.703929,119.070447 C361.06519,119.27884 361.385321,119.333591 361.584608,119.218147 C361.782623,119.103977 361.896683,118.79839 361.896683,118.38118 C361.896683,117.250086 361.069854,115.816376 360.091227,115.251041 C359.855051,115.114376 359.635411,115.043497 359.456477,115.043497 C359.361922,115.043497 359.279239,115.063445 359.210548,115.102916 M360.090803,120.133209 C358.735227,119.34887 357.67307,117.506863 357.67307,115.940733 C357.67307,115.072358 358.010162,114.38012 358.597847,114.040155 C359.185531,113.701887 359.952998,113.754941 360.704353,114.188279 C362.060353,114.972193 363.122511,116.813776 363.122511,118.38118 C363.122511,119.24913 362.784995,119.941369 362.19731,120.280909 C361.941629,120.428609 361.652451,120.502035 361.344616,120.502035 C360.945618,120.502035 360.515666,120.378103 360.090803,120.133209" id="Fill-35" fill="#FFFFFF"></path>
                        <path d="M325.137805,60.359055 C324.939365,60.4736499 324.826153,60.7783875 324.826153,61.1960224 C324.826153,62.3271167 325.652559,63.7604021 326.631185,64.325737 C326.993294,64.53413 327.313426,64.5888809 327.511865,64.4734371 C327.70988,64.3592666 327.82394,64.054529 327.82394,63.6368942 C327.82394,62.5062243 326.99711,61.0725145 326.018484,60.5071796 C325.782307,60.3700901 325.562668,60.2996354 325.383733,60.2996354 C325.289178,60.2996354 325.206495,60.3195834 325.137805,60.359055 M326.018484,65.3889232 C324.662484,64.6050091 323.600326,62.7634262 323.600326,61.1960224 C323.600326,60.3284964 323.937418,59.6358337 324.525527,59.2962932 C325.112364,58.9571771 325.880679,59.0119281 326.631185,59.4444178 C327.987185,60.2274831 329.049767,62.0699148 329.049767,63.6368942 C329.049767,64.5044202 328.712251,65.1966584 328.124566,65.5361989 C327.868885,65.683899 327.579707,65.7577491 327.271872,65.7577491 C326.872874,65.7577491 326.442923,65.6338168 326.018484,65.3889232" id="Fill-37" fill="#FFFFFF"></path>
                        <path d="M292.337487,46.4226573 C292.138624,46.5372522 292.025412,46.8415654 292.025412,47.2596247 C292.025412,48.3902946 292.852242,49.8240044 293.830444,50.3893393 C294.191705,50.5977323 294.513108,50.6516343 294.711123,50.5370394 C294.909138,50.4228689 295.023198,50.1181313 295.023198,49.7004965 C295.023198,48.5689778 294.196369,47.1361168 293.217743,46.5707819 C292.981566,46.4336924 292.761926,46.3632377 292.582992,46.3632377 C292.488437,46.3632377 292.405754,46.3827613 292.337487,46.4226573 M293.217743,51.4521011 C291.861743,50.6686114 290.799585,48.8270285 290.799585,47.2596247 C290.799585,46.3920987 291.136677,45.699436 291.724786,45.3598955 C292.311623,45.0212039 293.079938,45.0746815 293.830444,45.5080201 C295.186868,46.2910854 296.249026,48.1326682 296.249026,49.7004965 C296.249026,50.5680225 295.911934,51.2602607 295.324249,51.5998012 C295.068144,51.7475013 294.778966,51.820927 294.471131,51.820927 C294.072133,51.820927 293.642182,51.6969947 293.217743,51.4521011" id="Fill-39" fill="#FFFFFF"></path>
                        <path d="M402.155721,166.229186 C402.16505,162.927155 399.846535,158.900204 396.97553,157.241124 L392.465706,154.635151 L392.465706,274.25697 L300.628295,329.132658 L145.520637,237.989375 L142.640303,239.664583 C141.218156,240.492213 140.508355,241.575771 140.509627,242.661028 C140.509627,242.657632 140.508779,242.654237 140.508779,242.651266 L140.498179,246.277134 C140.495211,247.371728 141.216884,248.468444 142.664048,249.304562 L293.656641,336.564775 C296.52807,338.223855 301.171035,338.220459 304.023383,336.561379 L399.072708,281.271876 L399.082036,277.876047 L401.844494,276.269171 L402.155721,166.229186 Z" id="Fill-41" fill="#8FA4B4"></path>
                        <path d="M228.288875,195.311892 L220.774481,199.683051 L230.227472,205.145833 L237.741866,200.774674 L228.288875,195.311892 Z M248.708166,283.313576 L256.222984,278.942416 L246.769994,273.479634 L239.255176,277.850794 L248.708166,283.313576 Z M304.968174,239.625323 L297.45378,243.996483 L306.90677,249.45969 L314.421164,245.08853 L304.968174,239.625323 Z M328.814354,262.120306 L336.329172,257.749147 L326.876181,252.28594 L319.361363,256.6571 L328.814354,262.120306 Z M250.196459,207.972508 L242.682065,212.343668 L252.135056,217.80645 L259.64945,213.435291 L250.196459,207.972508 Z M172.028868,238.99972 L179.543262,234.628985 L170.090271,229.165778 L162.575877,233.536937 L172.028868,238.99972 Z M210.059622,231.320162 L202.545228,235.691322 L211.998219,241.154104 L219.512613,236.782945 L210.059622,231.320162 Z M201.02895,236.573278 L193.514556,240.944438 L202.967547,246.40722 L210.481941,242.036061 L201.02895,236.573278 Z M181.05954,233.746604 L188.573934,229.375444 L179.121367,223.912662 L171.606549,228.283821 L181.05954,233.746604 Z M350.722361,274.780923 L358.236755,270.409339 L348.783341,264.946557 L341.268947,269.317716 L350.722361,274.780923 Z M292.523757,308.634809 L300.038151,304.26365 L290.585161,298.800867 L283.070343,303.172027 L292.523757,308.634809 Z M310.585101,298.128577 L318.099919,293.757418 L308.646504,288.294211 L301.13211,292.66537 L310.585101,298.128577 Z M301.554429,303.381693 L309.069247,299.010534 L299.615832,293.547327 L292.101438,297.918486 L301.554429,303.381693 Z M215.238965,202.903168 L207.724147,207.274328 L217.177138,212.73711 L224.691956,208.365951 L215.238965,202.903168 Z M291.91784,247.2166 L284.40387,251.58776 L293.85686,257.050967 L301.37083,252.679807 L291.91784,247.2166 Z M237.146549,215.563785 L229.632155,219.934945 L239.085146,225.397727 L246.59954,221.026567 L237.146549,215.563785 Z M337.672027,282.3722 L345.186421,278.00104 L335.733431,272.537833 L328.219037,276.908993 L337.672027,282.3722 Z M339.771326,268.451888 L347.28572,264.080728 L337.826793,258.614551 L330.312399,262.98571 L339.771326,268.451888 Z M299.634489,291.799967 L307.148459,287.428382 L297.689956,281.962205 L290.175562,286.333364 L299.634489,291.799967 Z M182.985416,245.331726 L190.49981,240.960566 L181.041307,235.494389 L173.526913,239.865548 L182.985416,245.331726 Z M241.18402,211.47784 L248.698414,207.10668 L239.239487,201.640502 L231.725093,206.011237 L241.18402,211.47784 Z M281.572722,302.306199 L289.087116,297.935039 L279.628189,292.468861 L272.113795,296.840021 L281.572722,302.306199 Z M290.603393,297.053083 L298.118211,292.681923 L288.659284,287.215745 L281.14489,291.58648 L290.603393,297.053083 Z M192.016511,240.07861 L199.530905,235.70745 L190.071979,230.241272 L182.557585,234.612432 L192.016511,240.07861 Z M361.678909,281.112505 L369.193303,276.741345 L359.734376,271.275167 L352.219982,275.646327 L361.678909,281.112505 Z M303.480305,314.966815 L310.994699,310.595656 L301.535772,305.129478 L294.021378,309.500638 L303.480305,314.966815 Z M242.917817,250.30939 L235.403423,254.680125 L244.86235,260.146727 L252.376744,255.775567 L242.917817,250.30939 Z M283.054654,226.961311 L275.54026,231.332471 L284.999187,236.799073 L292.514005,232.427913 L283.054654,226.961311 Z M261.147071,214.300694 L253.632677,218.671854 L263.091603,224.138456 L270.605997,219.767297 L261.147071,214.300694 Z M221.010234,237.648349 L213.49584,242.019508 L222.954767,247.48611 L230.469161,243.114951 L221.010234,237.648349 Z M321.542072,304.460159 L329.056042,300.089424 L319.59754,294.622821 L312.083146,298.993981 L321.542072,304.460159 Z M211.979562,242.901889 L204.465168,247.273049 L213.924095,252.739226 L221.438489,248.368067 L211.979562,242.901889 Z M233.887146,255.562506 L226.372752,259.933665 L235.831678,265.399843 L243.346072,261.028684 L233.887146,255.562506 Z M312.511401,309.713699 L320.025795,305.34254 L310.566868,299.875937 L303.052474,304.247097 L312.511401,309.713699 Z M317.863742,255.791696 L325.378136,251.420536 L315.919209,245.953934 L308.404815,250.325093 L317.863742,255.791696 Z M259.665138,289.645582 L267.179532,285.274422 L257.720605,279.808245 L250.206211,284.179404 L259.665138,289.645582 Z M326.720992,276.043589 L334.235386,271.672005 L324.776883,266.205827 L317.262489,270.576987 L326.720992,276.043589 Z M228.133686,219.069116 L235.64808,214.697957 L226.189577,209.231779 L218.675183,213.602939 L228.133686,219.069116 Z M231.967206,243.980355 L224.452388,248.351514 L233.911738,253.818116 L241.425708,249.446957 L231.967206,243.980355 Z M294.011626,233.293317 L286.496808,237.664477 L295.956159,243.131079 L303.470553,238.759919 L294.011626,233.293317 Z M253.874789,256.640971 L246.359971,261.012131 L255.819322,266.478733 L263.333292,262.107574 L253.874789,256.640971 Z M272.104042,220.6327 L264.589224,225.00386 L274.048575,230.470462 L281.562969,226.099303 L272.104042,220.6327 Z M222.93611,249.233471 L215.421716,253.60463 L224.881067,259.071233 L232.395461,254.700073 L222.93611,249.233471 Z M348.628999,288.704206 L356.142969,284.333046 L346.684466,278.866444 L339.169648,283.237604 L348.628999,288.704206 Z M248.097161,221.892396 L240.582767,226.263555 L250.041693,231.729733 L257.555663,227.358574 L248.097161,221.892396 Z M270.005168,234.553012 L262.49035,238.924172 L271.949277,244.39035 L279.463247,240.01919 L270.005168,234.553012 Z M304.813408,263.382973 L312.327802,259.011813 L302.869299,253.545211 L295.354481,257.916795 L304.813408,263.382973 Z M280.961716,240.884594 L273.446898,245.256178 L282.906249,250.722356 L290.420219,246.351196 L280.961716,240.884594 Z M259.053708,228.223977 L251.539314,232.595561 L260.998241,238.061739 L268.512635,233.69058 L259.053708,228.223977 Z M282.893104,252.466745 L275.373198,256.8413 L284.826189,262.304083 L292.345671,257.929528 L282.893104,252.466745 Z M273.862009,257.719861 L266.342102,262.094416 L275.795093,267.557199 L283.314999,263.182644 L273.862009,257.719861 Z M219.090718,226.067046 L211.570388,230.441177 L221.023378,235.904384 L228.543284,231.529829 L219.090718,226.067046 Z M206.213806,208.152889 L198.693476,212.527444 L208.146466,217.990226 L215.666373,213.615671 L206.213806,208.152889 Z M228.120965,220.813506 L220.601059,225.188061 L230.05405,230.650843 L237.573956,226.276713 L228.120965,220.813506 Z M197.18271,213.40643 L189.662804,217.780136 L199.115371,223.243767 L206.635701,218.869212 L197.18271,213.40643 Z M328.641356,287.625316 L336.161262,283.250761 L326.708271,277.787979 L319.188365,282.162109 L328.641356,287.625316 Z M319.61026,292.878432 L327.130166,288.503877 L317.677176,283.041095 L310.157269,287.41565 L319.61026,292.878432 Z M219.103014,224.322233 L226.62292,219.947678 L217.164842,214.4815 L209.644511,218.856055 L219.103014,224.322233 Z M317.69032,281.296705 L325.210226,276.92215 L315.751299,271.455973 L308.231393,275.830528 L317.69032,281.296705 Z M308.659648,286.549821 L316.179131,282.175266 L306.721052,276.709089 L299.200722,281.083644 L308.659648,286.549821 Z M210.072343,229.575349 L217.591825,225.201218 L208.133746,219.734616 L200.613416,224.109171 L210.072343,229.575349 Z M239.072001,227.142116 L231.552095,231.516671 L241.010598,236.982849 L248.530504,232.608294 L239.072001,227.142116 Z M330.567232,299.210438 L338.087138,294.835883 L328.628635,289.369705 L321.108305,293.74426 L330.567232,299.210438 Z M230.041329,232.395233 L222.520999,236.769788 L231.979926,242.235965 L239.499832,237.861835 L230.041329,232.395233 Z M339.597904,293.957322 L347.11781,289.582767 L337.658883,284.116589 L330.138977,288.49072 L339.597904,293.957322 Z M251.948913,245.055849 L244.428583,249.430404 L253.88751,254.896582 L261.407416,250.522027 L251.948913,245.055849 Z M260.980009,239.802733 L253.459678,244.177288 L262.918605,249.643466 L270.438087,245.268911 L260.980009,239.802733 Z M286.752065,273.889205 L294.271547,269.51465 L284.813468,264.048472 L277.293138,268.423027 L286.752065,273.889205 Z M295.782737,268.636089 L303.302643,264.261534 L293.843716,258.795356 L286.32381,263.169911 L295.782737,268.636089 Z M250.028549,233.474122 L242.508643,237.848678 L251.96757,243.314855 L259.487476,238.9403 L250.028549,233.474122 Z M262.905461,251.387855 L255.385555,255.76241 L264.844481,261.229012 L272.363964,256.854457 L262.905461,251.387855 Z M271.936132,246.134739 L264.416226,250.509294 L273.875153,255.975472 L281.395059,251.600917 L271.936132,246.134739 Z M240.997877,238.727239 L233.477547,243.101794 L242.936474,248.568396 L250.45638,244.193841 L240.997877,238.727239 Z M201.047183,234.825494 L208.561577,230.454334 L188.152039,218.659546 L180.637645,223.030705 L201.047183,234.825494 Z M277.726905,279.13935 L285.240875,274.76819 L264.831337,262.972977 L257.316943,267.344561 L277.726905,279.13935 Z M268.696234,284.392466 L276.210628,280.021306 L244.844117,261.894087 L237.329299,266.265247 L268.696234,284.392466 Z M237.757555,276.984965 L245.271949,272.613806 L191.997855,241.826395 L184.483461,246.197554 L237.757555,276.984965 Z M237.098635,178.9749 L398.492316,272.245829 L303.443416,327.535756 C300.591491,329.194836 295.947678,329.198231 293.077097,327.539152 L142.083656,240.278514 C139.207138,238.616463 139.19781,235.924332 142.049735,234.264827 L237.098635,178.9749 Z" id="Fill-43" fill="#FFFFFF"></path>
                        <path d="M303.443458,327.535799 C300.590685,329.194878 295.947721,329.198274 293.077139,327.539194 L142.083698,240.278557 C140.636959,239.442438 139.915286,238.345722 139.918678,237.251129 L139.908077,240.876572 C139.905109,241.971591 140.626783,243.068306 142.073522,243.904425 L293.066539,331.165062 C295.937968,332.824142 300.580933,332.820747 303.433282,331.161242 L398.482182,275.871315 L398.492359,272.245447 L303.443458,327.535799 Z" id="Fill-45" fill="#E2F1FB"></path>
                        <g id="Group-54" transform="translate(237.024390, 63.239420)">
                            <path d="M81.0918953,49.2514542 C80.2807546,48.7824638 79.6201392,49.1589294 79.6171711,50.0922414 C79.615051,51.0255533 80.2710023,52.1625896 81.082567,52.6320044 C81.8941317,53.1005703 82.5538991,52.7241047 82.5564432,51.7907927 C82.5594113,50.8574808 81.90346,49.7200201 81.0918953,49.2514542 Z M156.02934,196.907435 L156.308342,98.5306658 L5.84279962,11.5751906 L5.56422176,109.952384 L156.02934,196.907435 Z M156.599216,89.9789137 C159.470646,91.6379935 161.78916,95.6649439 161.779832,98.9669753 L161.468605,209.006112 L0.0749234522,115.735608 L0.386150469,5.69604667 C0.395902814,2.39401524 2.72968143,1.05622563 5.60662326,2.71870085 L156.599216,89.9789137 Z" id="Fill-47" fill="#071C53"></path>
                            <g id="Group-51" transform="translate(5.512195, 11.459492)">
                                <mask id="mask-12" fill="white">
                                    <use xlink:href="#path-11"></use>
                                </mask>
                                <g id="Clip-50"></g>
                                <polygon id="Fill-49" fill="url(#linearGradient-13)" mask="url(#mask-12)" points="150.79585 87.0713434 150.517272 185.448112 0.0521538462 98.4926372 0.330731707 0.115868198"></polygon>
                            </g>
                            <path d="M159.73133,88.1572788 L8.73831332,0.896641596 C7.29115009,0.0609475212 5.98179174,-0.0162979444 5.03623827,0.533757678 L1.9040394,2.3553925 C2.85001689,1.80533688 4.15979925,1.88258235 5.60653846,2.71870085 L156.599131,89.9789137 C159.470561,91.6379935 161.789499,95.6649439 161.779747,98.9669753 L161.46852,209.006112 L164.599871,207.184477 L164.911946,97.1453405 C164.92085,93.8428846 162.602336,89.8163586 159.73133,88.1572788" id="Fill-52" fill="#E2F1FB"></path>
                        </g>
                        <polygon id="Fill-55" fill="#E2F1FB" points="237.741824 200.774716 230.22743 205.145876 220.774439 199.683094 228.288833 195.311934"></polygon>
                        <polygon id="Fill-57" fill="#E2F1FB" points="248.698711 207.10668 241.183893 211.47784 231.72539 206.011237 239.239784 201.640078"></polygon>
                        <polygon id="Fill-59" fill="#E2F1FB" points="224.691786 208.365866 217.177392 212.737026 207.724402 207.274243 215.238796 202.903084"></polygon>
                        <polygon id="Fill-61" fill="#E2F1FB" points="259.649407 213.435375 252.135013 217.806535 242.682023 212.343753 250.196841 207.972593"></polygon>
                        <polygon id="Fill-63" fill="#E2F1FB" points="206.635955 218.86917 199.116049 223.243725 189.663059 217.780518 197.182965 213.405963"></polygon>
                        <polygon id="Fill-65" fill="#E2F1FB" points="226.623429 219.947635 219.103523 224.32219 209.644596 218.856012 217.164502 214.481457"></polygon>
                        <polygon id="Fill-67" fill="#E2F1FB" points="246.59937 221.026525 239.084976 225.397685 229.631985 219.934902 237.146379 215.563743"></polygon>
                        <polygon id="Fill-69" fill="#E2F1FB" points="257.556257 227.358531 250.041439 231.729691 240.582936 226.263513 248.09733 221.892353"></polygon>
                        <polygon id="Fill-71" fill="#E2F1FB" points="292.513878 232.427998 284.99906 236.799158 275.540981 231.332556 283.054951 226.961396"></polygon>
                        <polygon id="Fill-73" fill="#E2F1FB" points="248.531013 232.608294 241.011107 236.982849 231.55218 231.516671 239.072086 227.142116"></polygon>
                        <polygon id="Fill-75" fill="#E2F1FB" points="239.500002 237.861792 231.980096 242.235923 222.521593 236.769745 230.041499 232.39519"></polygon>
                        <polygon id="Fill-77" fill="#E2F1FB" points="303.470383 238.759962 295.955989 243.131121 286.497486 237.664519 294.011456 233.29336"></polygon>
                        <polygon id="Fill-79" fill="#E2F1FB" points="279.463841 240.019148 271.949023 244.390307 262.490944 238.92413 270.004914 234.55297"></polygon>
                        <polygon id="Fill-81" fill="#E2F1FB" points="250.456889 244.193374 242.936983 248.567929 233.478056 243.101751 240.997962 238.727196"></polygon>
                        <polygon id="Fill-83" fill="#E2F1FB" points="314.421461 245.088657 306.906643 249.459817 297.453653 243.99661 304.968471 239.625451"></polygon>
                        <polygon id="Fill-85" fill="#E2F1FB" points="270.438596 245.268953 262.91869 249.643508 253.459763 244.177331 260.979669 239.802776"></polygon>
                        <polygon id="Fill-87" fill="#E2F1FB" points="290.420304 246.351154 282.90591 250.722313 273.447407 245.256136 280.961377 240.884552"></polygon>
                        <polygon id="Fill-89" fill="#E2F1FB" points="241.425878 249.446872 233.911484 253.818032 224.452981 248.351429 231.966951 243.98027"></polygon>
                        <polygon id="Fill-91" fill="#E2F1FB" points="261.407585 250.522027 253.887679 254.896582 244.429176 249.430404 251.949083 245.055849"></polygon>
                        <polygon id="Fill-93" fill="#E2F1FB" points="325.377967 251.420621 317.863573 255.791781 308.40507 250.325178 315.91904 245.954019"></polygon>
                        <polygon id="Fill-95" fill="#E2F1FB" points="281.395102 251.600917 273.87562 255.975472 264.416269 250.509294 271.936175 246.134739"></polygon>
                        <polygon id="Fill-97" fill="#E2F1FB" points="301.371424 252.679807 293.856606 257.050967 284.403615 251.58776 291.918433 247.2166"></polygon>
                        <polygon id="Fill-99" fill="#E2F1FB" points="272.364472 256.854033 264.844566 261.228588 255.385639 255.76241 262.905546 251.387855"></polygon>
                        <polygon id="Fill-101" fill="#E2F1FB" points="336.329045 257.749274 328.814651 262.120434 319.36166 256.657227 326.876054 252.286067"></polygon>
                        <polygon id="Fill-103" fill="#E2F1FB" points="292.34618 257.92957 284.826274 262.304125 275.373283 256.841343 282.893189 252.466788"></polygon>
                        <polygon id="Fill-105" fill="#E2F1FB" points="312.327887 259.011813 304.813493 263.382973 295.35499 257.916795 302.86896 253.545211"></polygon>
                        <polygon id="Fill-107" fill="#E2F1FB" points="243.345945 261.028641 235.831551 265.399801 226.373048 259.933623 233.887442 255.562463"></polygon>
                        <polygon id="Fill-109" fill="#E2F1FB" points="283.315169 263.182686 275.795687 267.557241 266.342696 262.094459 273.862178 257.719904"></polygon>
                        <polygon id="Fill-111" fill="#E2F1FB" points="347.285508 264.080856 339.771114 268.452015 330.312611 262.985837 337.826581 258.614678"></polygon>
                        <polygon id="Fill-113" fill="#E2F1FB" points="303.303067 264.261576 295.783161 268.636131 286.324234 263.169953 293.843716 258.795398"></polygon>
                        <polygon id="Fill-115" fill="#E2F1FB" points="294.272056 269.51465 286.75215 273.889205 277.293223 268.423027 284.813129 264.048472"></polygon>
                        <polygon id="Fill-117" fill="#E2F1FB" points="358.236628 270.409509 350.722234 274.781093 341.269244 269.317886 348.783638 264.946726"></polygon>
                        <polygon id="Fill-119" fill="#E2F1FB" points="334.235471 271.67243 326.721077 276.043589 317.262574 270.576987 324.776544 266.205827"></polygon>
                        <polygon id="Fill-121" fill="#E2F1FB" points="285.241045 274.76819 277.726651 279.13935 257.317537 267.344137 264.831507 262.972977"></polygon>
                        <polygon id="Fill-123" fill="#E2F1FB" points="369.193091 276.741515 361.678697 281.112674 352.220194 275.646497 359.734588 271.275337"></polygon>
                        <polygon id="Fill-125" fill="#E2F1FB" points="325.210226 276.922235 317.69032 281.29679 308.231817 275.830612 315.751723 271.456057"></polygon>
                        <polygon id="Fill-127" fill="#E2F1FB" points="345.186591 278.001125 337.672197 282.372285 328.219206 276.909078 335.7336 272.537918"></polygon>
                        <polygon id="Fill-129" fill="#E2F1FB" points="276.210416 280.021264 268.696022 284.392423 237.329935 266.265205 244.843905 261.894469"></polygon>
                        <polygon id="Fill-131" fill="#E2F1FB" points="316.179639 282.175309 308.659733 286.549864 299.200806 281.083686 306.720713 276.709131"></polygon>
                        <polygon id="Fill-133" fill="#E2F1FB" points="336.161347 283.250888 328.641441 287.625443 319.18845 282.162661 326.708356 277.788106"></polygon>
                        <polygon id="Fill-135" fill="#E2F1FB" points="356.143054 284.332664 348.62866 288.704248 339.170157 283.237646 346.684551 278.866487"></polygon>
                        <polygon id="Fill-137" fill="#E2F1FB" points="267.179829 285.27438 259.665011 289.64554 250.206508 284.179362 257.720902 279.808202"></polygon>
                        <polygon id="Fill-139" fill="#E2F1FB" points="307.148629 287.428425 299.634235 291.800009 290.175732 286.333407 297.690126 281.962247"></polygon>
                        <polygon id="Fill-141" fill="#E2F1FB" points="327.130717 288.504004 319.610811 292.878559 310.157821 287.415777 317.677727 283.041222"></polygon>
                        <polygon id="Fill-143" fill="#E2F1FB" points="347.11781 289.582852 339.597904 293.957407 330.139401 288.491229 337.659307 284.116674"></polygon>
                        <polygon id="Fill-145" fill="#E2F1FB" points="298.117999 292.681923 290.603605 297.053083 281.145102 291.58648 288.659072 287.215321"></polygon>
                        <polygon id="Fill-147" fill="#E2F1FB" points="318.099707 293.757502 310.585313 298.128662 301.132322 292.665455 308.646716 288.294296"></polygon>
                        <polygon id="Fill-149" fill="#E2F1FB" points="338.087223 294.835968 330.567317 299.210523 321.10839 293.744345 328.628296 289.36979"></polygon>
                        <polygon id="Fill-151" fill="#E2F1FB" points="289.086988 297.935039 281.572594 302.306199 272.114092 296.840021 279.628486 292.468861"></polygon>
                        <polygon id="Fill-153" fill="#E2F1FB" points="309.06912 299.010576 301.554726 303.381736 292.101735 297.918953 299.616129 293.547794"></polygon>
                        <polygon id="Fill-155" fill="#E2F1FB" points="329.056212 300.089084 321.541818 304.460244 312.083315 298.994066 319.597709 294.622906"></polygon>
                        <polygon id="Fill-157" fill="#E2F1FB" points="300.038066 304.263692 292.523672 308.634852 283.070682 303.172069 290.585076 298.80091"></polygon>
                        <polygon id="Fill-159" fill="#E2F1FB" points="320.025583 305.342158 312.511189 309.713742 303.052686 304.24714 310.566656 299.87598"></polygon>
                        <polygon id="Fill-161" fill="#E2F1FB" points="310.994996 310.595656 303.480178 314.966815 294.022099 309.500638 301.536069 305.129478"></polygon>
                        <polygon id="Fill-163" fill="#E2F1FB" points="215.666542 213.616053 208.146636 217.990184 198.693645 212.527402 206.213552 208.152847"></polygon>
                        <polygon id="Fill-165" fill="#E2F1FB" points="235.64825 214.697872 228.133856 219.069032 218.675353 213.602854 226.189747 209.231694"></polygon>
                        <polygon id="Fill-167" fill="#E2F1FB" points="270.606294 219.767339 263.091476 224.138499 253.633397 218.671896 261.147367 214.300737"></polygon>
                        <polygon id="Fill-169" fill="#E2F1FB" points="217.592418 225.201133 210.072512 229.575264 200.614009 224.109086 208.133492 219.734531"></polygon>
                        <polygon id="Fill-171" fill="#E2F1FB" points="281.5628 226.099345 274.048406 230.470505 264.589903 225.003903 272.103873 220.632743"></polygon>
                        <polygon id="Fill-173" fill="#E2F1FB" points="237.574126 226.276288 230.05422 230.650843 220.601229 225.188061 228.121135 220.813506"></polygon>
                        <polygon id="Fill-175" fill="#E2F1FB" points="188.574315 229.375359 181.059921 233.746519 171.606931 228.283737 179.121325 223.912577"></polygon>
                        <polygon id="Fill-177" fill="#E2F1FB" points="208.561832 230.454249 201.047014 234.825409 180.637899 223.03062 188.151869 218.659461"></polygon>
                        <polygon id="Fill-179" fill="#E2F1FB" points="228.543539 231.529829 221.023633 235.904384 211.570642 230.441177 219.090548 226.066622"></polygon>
                        <polygon id="Fill-181" fill="#E2F1FB" points="268.51272 233.690495 260.998326 238.061654 251.539823 232.595477 259.053793 228.223893"></polygon>
                        <polygon id="Fill-183" fill="#E2F1FB" points="179.543728 234.628857 172.02891 238.999593 162.57592 233.53681 170.090738 229.165651"></polygon>
                        <polygon id="Fill-185" fill="#E2F1FB" points="199.530821 235.707323 192.016427 240.078482 182.557924 234.612305 190.071894 230.241145"></polygon>
                        <polygon id="Fill-187" fill="#E2F1FB" points="219.512486 236.782902 211.998092 241.154062 202.545101 235.69128 210.059919 231.32012"></polygon>
                        <polygon id="Fill-189" fill="#E2F1FB" points="259.487518 238.940258 251.967612 243.314813 242.508685 237.848635 250.028591 233.47408"></polygon>
                        <polygon id="Fill-191" fill="#E2F1FB" points="190.500191 240.960439 182.985373 245.331599 173.527295 239.865421 181.041265 235.494261"></polygon>
                        <polygon id="Fill-193" fill="#E2F1FB" points="210.481899 242.036018 202.967505 246.407178 193.514514 240.944396 201.028908 236.573236"></polygon>
                        <polygon id="Fill-195" fill="#E2F1FB" points="230.469373 243.114908 222.954555 247.486068 213.496476 242.019466 221.010446 237.648306"></polygon>
                        <polygon id="Fill-197" fill="#E2F1FB" points="221.438362 248.367982 213.923968 252.739142 204.465465 247.272964 211.979435 242.901804"></polygon>
                        <polygon id="Fill-199" fill="#E2F1FB" points="232.395249 254.699988 224.880855 259.071148 215.421928 253.60497 222.936322 249.23381"></polygon>
                        <polygon id="Fill-201" fill="#E2F1FB" points="252.376956 255.775567 244.862562 260.146727 235.404059 254.680125 242.918029 250.308965"></polygon>
                        <polygon id="Fill-203" fill="#E2F1FB" points="263.333462 262.107531 255.819068 266.478691 246.360565 261.012089 253.874535 256.640929"></polygon>
                        <polygon id="Fill-205" fill="#E2F1FB" points="245.271821 272.613721 237.757427 276.98488 184.483758 246.197469 191.998152 241.82631"></polygon>
                        <polygon id="Fill-207" fill="#E2F1FB" points="256.222942 278.942374 248.708548 283.313533 239.255557 277.850751 246.769951 273.479592"></polygon>
                        <path d="M318.10594,116.125443 C319.039621,116.664888 319.799032,116.231549 319.802,115.158177 C319.804968,114.08438 319.050645,112.775876 318.116964,112.236431 C317.183707,111.696986 316.423872,112.130324 316.42048,113.203697 C316.417936,114.277493 317.172683,115.585998 318.10594,116.125443" id="Fill-209" fill="#FFFFFF"></path>
                        <polygon id="Fill-211" fill="#E2F6FF" opacity="0.6" points="10.9447602 199.534587 271.329409 350.999788 272.352558 350.408987 11.9679084 198.942938"></polygon>
                        <polygon id="Fill-213" fill="#E2F6FF" opacity="0.6" points="-0.000127204503 120.067126 260.384522 271.532751 261.40767 270.941102 1.02302101 119.475901"></polygon>
                        <polygon id="Fill-216" fill="#E2F6FF" opacity="0.6" points="254.729773 350.614367 240.19369 342.21371 260.382317 330.546674 274.9184 338.947331"></polygon>
                        <polygon id="Fill-218" fill="#E2F6FF" opacity="0.6" points="47.7830994 210.740824 13.9335572 191.179047 60.9462214 164.009864 94.7957636 183.571642"></polygon>
                        <polygon id="Fill-220" fill="#E2F6FF" opacity="0.6" points="85.6972495 258.773456 34.2018987 229.014003 105.723054 187.681313 157.218405 217.441189"></polygon>
                        <polygon id="Fill-222" fill="#E2F6FF" opacity="0.6" points="79.3283321 258.803717 27.8329812 229.044265 99.3537129 187.711574 150.849064 217.471451"></polygon>
                        <path d="M192.121328,105.171611 C192.476229,105.376609 192.834945,105.599008 193.197478,105.839233 C201.234683,111.161106 206.53911,122.096008 212.157733,133.672641 C217.970131,145.649084 223.979696,158.032126 233.373324,164.418883 C234.389264,165.108999 235.367467,165.722719 236.307508,166.265984 C249.925174,174.135684 255.699835,167.349118 255.757925,167.273995 L256.976968,168.868986 C256.712382,169.195369 250.70621,176.253992 236.379167,167.974721 C235.375523,167.394107 234.329902,166.737945 233.24188,165.996473 C223.221557,159.188262 217.017793,146.401591 211.017557,134.035525 C205.599917,122.874404 200.48672,112.334218 193.08893,107.434224 C192.758198,107.214796 192.430011,107.011496 192.106063,106.824749 C183.294183,101.732066 177.04081,108.258034 169.833403,115.769095 C161.450626,124.511414 151.945482,134.41666 136.089441,126.308432 C134.877182,125.686649 133.707748,125.048313 132.574356,124.392999 C118.887152,116.482979 110.542536,106.051446 102.447666,95.9322896 C94.9006225,86.4968833 87.0974743,76.7414601 74.8705775,69.0012098 C74.4851478,68.7575895 74.1009902,68.5254287 73.7198008,68.3051518 C61.0735531,60.9965423 50.4557932,66.1885411 50.3480934,66.2466874 L49.3609865,64.4674952 C49.8218908,64.2332122 60.4922285,58.9970732 73.7002961,66.6295193 C74.1128627,66.8680466 74.5262773,67.1184577 74.9430841,67.3824504 C87.5240334,75.3455242 95.4832191,85.2957588 103.179092,94.9187612 C111.443568,105.250554 119.28615,115.055635 132.490825,122.686808 C133.623369,123.341273 134.794499,123.979184 136.009302,124.600544 C151.174198,132.358195 160.463519,122.672378 168.656761,114.127417 C175.795902,106.685113 182.553005,99.6417696 192.121328,105.171611" id="Fill-224" fill="#05C14B"></path>
                        <path d="M153.200863,110.015793 C178.334353,124.540063 172.108964,176.940501 193.299538,189.186878 C215.415313,201.967607 212.563812,157.61725 233.323163,169.314421 C254.137636,181.335428 255.676811,248.758411 256.233542,252.203474 L49.7657936,132.883846 C50.0672683,130.583884 56.8336998,93.5837304 72.4141313,96.4923192 C86.4782852,99.1182406 92.4755535,139.367797 112.334296,152.121363 C127.802788,162.055045 129.253343,96.1756977 153.200863,110.015793" id="Fill-226" fill="url(#linearGradient-14)"></path>
                        <path d="M193.178016,100.786021 C195.435472,102.090281 197.261704,105.256072 197.254072,107.852284 C197.246864,110.452739 195.409183,111.497251 193.151727,110.192991 C190.890879,108.886184 189.068462,105.726336 189.075671,103.126304 C189.082879,100.529668 190.917592,99.4796391 193.178016,100.786021" id="Fill-229" fill="#E2F1FB"></path>
                        <polygon id="Fill-231" fill="#F2FAFD" points="72.6575583 147.025581 72.0601212 146.729332 72.0601212 39.5363938 72.6575583 39.8330674"></polygon>
                        <polygon id="Fill-233" fill="#F2FAFD" points="112.9216 170.038236 112.324162 169.741563 112.324162 62.5490489 112.9216 62.8452979"></polygon>
                        <polygon id="Fill-235" fill="#F2FAFD" points="148.606364 190.64652 148.008926 190.349847 148.008926 83.1569082 148.606364 83.4535817"></polygon>
                        <polygon id="Fill-237" fill="#F2FAFD" points="193.153168 216.298169 192.555731 216.00192 192.555731 108.808981 193.153168 109.105655"></polygon>
                        <polygon id="Fill-239" fill="#F2FAFD" points="233.415556 240.019997 232.818119 239.723748 232.818119 132.530809 233.415556 132.827483"></polygon>
                        <polygon id="Fill-241" fill="#C3D4DC" points="74.5573576 153.430122 69.5862056 150.557185 69.5862056 149.209633 74.5573576 152.082146"></polygon>
                        <polygon id="Fill-243" fill="#C3D4DC" points="114.809357 175.564088 109.838629 172.691151 109.838629 171.3436 114.809357 174.216112"></polygon>
                        <polygon id="Fill-245" fill="#C3D4DC" points="150.793094 195.420884 145.822366 192.548371 145.822366 191.20082 150.793094 194.072908"></polygon>
                        <path d="M369.821269,227.016996 L272.605652,170.894345 C272.54417,170.858693 272.506433,170.792907 272.506433,170.722028 L272.506433,103.551154 C272.506433,102.116171 274.057904,101.218935 275.300268,101.93579 L368.01751,155.461805 C369.317964,156.212614 370.118504,157.600061 370.118504,159.102528 L370.118504,226.845103 C370.118504,226.997472 369.953562,227.093392 369.821269,227.016996" id="Fill-247" fill="#DDE1E7"></path>
                        <path d="M283.731721,111.075839 C283.732993,110.563981 283.373429,109.9405 282.928637,109.683723 L282.928213,109.682874 C282.483845,109.425247 282.121736,109.631943 282.12004,110.1438 C282.118768,110.655657 282.478333,111.279139 282.923549,111.535916 C283.36834,111.792694 283.730025,111.586847 283.731721,111.075839" id="Fill-249" fill="#FFFFFF"></path>
                        <path d="M280.493434,108.293983 C280.049066,108.035933 279.686957,108.242628 279.685261,108.754061 C279.683989,109.265918 280.043554,109.889399 280.488346,110.146601 C280.933137,110.403379 281.294822,110.197108 281.296518,109.686099 C281.298214,109.174242 280.93865,108.550761 280.493434,108.293983 Z" id="Fill-251" fill="#FFFFFF"></path>
                        <path d="M278.721814,108.160841 C278.723086,107.648984 278.363522,107.025502 277.918306,106.7683 L277.918306,106.767876 C277.473938,106.51025 277.111829,106.716945 277.110133,107.228802 C277.108861,107.74066 277.468426,108.364141 277.913642,108.620918 C278.358433,108.877696 278.719694,108.671849 278.721814,108.160841" id="Fill-253" fill="#FFFFFF"></path>
                        <polygon id="Fill-255" fill="#FFFFFF" points="370.118589 236.546243 272.506517 180.194827 272.506517 107.290811 370.118589 163.642651"></polygon>
                        <g id="Group-268" transform="translate(379.917448, 159.584039)">
                            <path d="M58.2683546,37.4943548 L0.00657223265,3.85947207 L0.00657223265,1.18134631 C0.00657223265,0.416106892 0.833825516,-0.0622207981 1.49613696,0.320186699 L57.0734803,32.405067 C57.8129625,32.8316148 58.2683546,33.6210464 58.2683546,34.4754152 L58.2683546,37.4943548 Z" id="Fill-257" fill="#DDE1E7"></path>
                            <path d="M6.70622139,5.8779555 C6.70749343,5.57236904 6.49251782,5.20014776 6.22708443,5.04693011 L6.22708443,5.04650568 C5.96122702,4.8928636 5.74540338,5.01637146 5.74455535,5.32153349 C5.74370732,5.62711995 5.95825891,5.99891681 6.22369231,6.15255889 C6.4891257,6.30620097 6.70537336,6.18311753 6.70622139,5.8779555" id="Fill-259" fill="#FFFFFF"></path>
                            <path d="M5.25324916,5.04858537 C5.25409719,4.74299891 5.03912158,4.37077763 4.77368818,4.21755998 L4.77368818,4.21671112 C4.50783077,4.06349347 4.29200713,4.1865769 4.2911591,4.49216336 C4.29031107,4.79732539 4.50486266,5.16954667 4.77029606,5.32318875 C5.03572946,5.47683083 5.25197711,5.3537474 5.25324916,5.04858537" id="Fill-261" fill="#FFFFFF"></path>
                            <path d="M3.71619475,4.13798017 C3.71704278,3.83239371 3.50249118,3.46017243 3.23663377,3.30695478 L3.23663377,3.30653035 C2.97120038,3.15288827 2.75495272,3.27639613 2.75410469,3.58155816 C2.75325666,3.88714462 2.96780826,4.25894148 3.23366567,4.41258356 C3.49867505,4.56622563 3.7149227,4.4431422 3.71619475,4.13798017" id="Fill-263" fill="#FFFFFF"></path>
                            <g id="Group-267" transform="translate(0.000000, 3.819831)">
                                <mask id="mask-16" fill="white">
                                    <use xlink:href="#path-15"></use>
                                </mask>
                                <g id="Clip-266"></g>
                                <polygon id="Fill-265" fill-opacity="0.8" fill="url(#linearGradient-17)" mask="url(#mask-16)" points="58.2685666 77.1877437 0.00636022514 43.5528609 0.00636022514 0.0386227328 58.2685666 33.673081"></polygon>
                            </g>
                        </g>
                        <g id="Group-302" transform="translate(194.622889, 51.779927)">
                            <path d="M61.8472533,39.9692231 L0.0330731707,4.28351572 L0.0330731707,1.44241052 C0.0330731707,0.630059855 0.91078424,0.122446796 1.61337711,0.528197703 L60.5794484,34.5692557 C61.3638762,35.0221179 61.8472533,35.8595097 61.8472533,36.7660828 L61.8472533,39.9692231 Z" id="Fill-269" fill="#DDE1E7"></path>
                            <path d="M7.14143039,6.42508259 C7.14227842,6.1008214 6.91458236,5.70610556 6.6330364,5.54355054 L6.6330364,5.54270169 C6.35106642,5.37972225 6.12209831,5.51086977 6.12125028,5.83470653 C6.11997824,6.15896771 6.3476743,6.55368356 6.62964428,6.716663 C6.91119024,6.87921802 7.14015835,6.74891935 7.14143039,6.42508259" id="Fill-271" fill="#FFFFFF"></path>
                            <path d="M5.59941501,5.54516336 C5.60026304,5.22090218 5.37299099,4.82618634 5.09102101,4.66320689 L5.09102101,4.66278247 C4.80905103,4.49980302 4.58008293,4.63095054 4.5792349,4.9547873 C4.57838687,5.27904849 4.80565891,5.67376433 5.08762889,5.83674377 C5.36917486,5.99929879 5.59814296,5.86900012 5.59941501,5.54516336" id="Fill-273" fill="#FFFFFF"></path>
                            <path d="M3.96878049,4.57900085 C3.96962852,4.25473966 3.74193246,3.86044825 3.46038649,3.6974688 L3.46038649,3.69661995 C3.17841651,3.53406493 2.94944841,3.66478803 2.94860038,3.98862479 C2.94775235,4.31288597 3.17502439,4.70760181 3.45699437,4.87058126 C3.73854034,5.03313628 3.96750844,4.90283761 3.96878049,4.57900085" id="Fill-275" fill="#FFFFFF"></path>
                            <g id="Group-279" transform="translate(0.000000, 4.244256)">
                                <mask id="mask-19" fill="white">
                                    <use xlink:href="#path-18"></use>
                                </mask>
                                <g id="Clip-278"></g>
                                <polygon id="Fill-277" fill-opacity="0.8" fill="url(#linearGradient-20)" mask="url(#mask-19)" points="61.8472533 81.8912285 0.0330731707 46.2055212 0.0330731707 0.0381983071 61.8472533 35.7239057"></polygon>
                            </g>
                            <polygon id="Fill-280" fill="#FFFFFF" points="36.2974233 35.5745079 5.59958462 17.8339407 5.59958462 16.451162 36.2974233 34.1921536"></polygon>
                            <polygon id="Fill-282" fill="#FFFFFF" points="44.2042432 46.8255221 13.5068285 29.0845306 13.5068285 27.7021763 44.2042432 45.4431678"></polygon>
                            <polygon id="Fill-284" fill="#FFFFFF" points="14.436651 36.8411637 5.59933021 31.7344745 5.59933021 30.3516958 14.436651 35.4588094"></polygon>
                            <polygon id="Fill-286" fill="#FFFFFF" points="36.2974233 49.4748718 15.5660574 37.4937606 15.5660574 36.1118307 36.2974233 48.0925175"></polygon>
                            <polygon id="Fill-288" fill="#FFFFFF" points="19.154666 29.2769227 5.59933021 21.4432988 5.59933021 20.0609445 19.154666 27.8945684"></polygon>
                            <polygon id="Fill-290" fill="#FFFFFF" points="34.1711576 37.955281 20.6162458 30.1216571 20.6162458 28.7393028 34.1711576 36.5729267"></polygon>
                            <polygon id="Fill-292" fill="#FFFFFF" points="11.9782968 28.2017677 5.59941501 24.5152067 5.59941501 23.1328524 11.9782968 26.8194134"></polygon>
                            <polygon id="Fill-294" fill="#FFFFFF" points="32.0448495 43.3310561 25.6659677 39.644495 25.6659677 38.2625652 32.0448495 41.9487018"></polygon>
                            <polygon id="Fill-296" fill="#FFFFFF" points="44.2042432 50.3581016 33.5067685 44.1759178 33.5067685 42.7935635 44.2042432 48.9757473"></polygon>
                            <polygon id="Fill-298" fill="#FFFFFF" points="44.2042432 40.1441289 37.4272113 36.2271047 37.4272113 34.8451748 44.2042432 38.7617746"></polygon>
                            <polygon id="Fill-300" fill="#FFFFFF" points="24.403463 38.91478 5.5992454 28.0477861 5.5992454 26.6658562 24.403463 37.5324258"></polygon>
                        </g>
                        <g id="Group-336" transform="translate(204.375235, 92.100363)">
                            <path d="M62.0344135,39.919056 L0.220233396,4.23334861 L0.220233396,1.39224341 C0.220233396,0.579892745 1.09794447,0.0722796856 1.80053734,0.478030593 L60.7666086,34.5190886 C61.5510364,34.9719508 62.0344135,35.8093426 62.0344135,36.7159157 L62.0344135,39.919056 Z" id="Fill-303" fill="#DDE1E7"></path>
                            <path d="M7.32859062,6.37491548 C7.32943865,6.05065429 7.10174259,5.65593845 6.82019662,5.49295901 L6.82019662,5.49253458 C6.53822664,5.32955514 6.30925854,5.46070266 6.30841051,5.78453942 C6.30713846,6.1088006 6.53483452,6.50351644 6.8168045,6.66649589 C7.09835047,6.82905091 7.32731857,6.69875224 7.32859062,6.37491548" id="Fill-305" fill="#FFFFFF"></path>
                            <path d="M5.78657523,5.49457183 C5.78742326,5.17073507 5.5597272,4.77601923 5.27818124,4.61303978 L5.27818124,4.61261536 C4.99621126,4.44963591 4.76724315,4.58078343 4.76639512,4.90419577 C4.76554709,5.22845695 4.99281914,5.62359722 5.27478912,5.78615224 C5.55633508,5.94913168 5.78530319,5.81883301 5.78657523,5.49457183" id="Fill-307" fill="#FFFFFF"></path>
                            <path d="M4.15594071,4.52883374 C4.15678874,4.20457255 3.92909268,3.80985671 3.64754672,3.64730169 L3.64754672,3.64645284 C3.36557674,3.48389782 3.13660863,3.61462092 3.1357606,3.93845768 C3.13448856,4.26271886 3.36218462,4.6574347 3.6441546,4.82041415 C3.92570056,4.98296917 4.15466867,4.8526705 4.15594071,4.52883374" id="Fill-309" fill="#FFFFFF"></path>
                            <g id="Group-313" transform="translate(0.000000, 3.819831)">
                                <mask id="mask-22" fill="white">
                                    <use xlink:href="#path-21"></use>
                                </mask>
                                <g id="Clip-312"></g>
                                <polygon id="Fill-311" fill-opacity="0.8" fill="url(#linearGradient-23)" mask="url(#mask-22)" points="62.0342439 82.2651475 0.22006379 46.5798646 0.22006379 0.412541717 62.0342439 36.0978247"></polygon>
                            </g>
                            <polygon id="Fill-314" fill="#FFFFFF" points="36.4845835 35.5243407 5.78674484 17.7833492 5.78674484 16.4009949 36.4845835 34.1419865"></polygon>
                            <polygon id="Fill-316" fill="#FFFFFF" points="44.3918274 46.775355 13.6939887 29.0343635 13.6939887 27.6520092 44.3918274 45.3925763"></polygon>
                            <polygon id="Fill-318" fill="#FFFFFF" points="14.6238113 36.7909966 5.78649043 31.683883 5.78649043 30.3015287 14.6238113 35.4086423"></polygon>
                            <polygon id="Fill-320" fill="#FFFFFF" points="36.4845835 49.4247047 15.7532176 37.4440179 15.7532176 36.0616636 36.4845835 48.041926"></polygon>
                            <polygon id="Fill-322" fill="#FFFFFF" points="19.3414023 29.2267556 5.78649043 21.3931317 5.78649043 20.0107774 19.3414023 27.8439769"></polygon>
                            <polygon id="Fill-324" fill="#FFFFFF" points="34.3583178 37.9051139 20.803406 30.07149 20.803406 28.6891357 34.3583178 36.5223352"></polygon>
                            <polygon id="Fill-326" fill="#FFFFFF" points="12.165457 28.1512186 5.78657523 24.4646576 5.78657523 23.0827277 12.165457 26.7688643"></polygon>
                            <polygon id="Fill-328" fill="#FFFFFF" points="32.2320098 43.2804646 25.853128 39.5943279 25.853128 38.2123981 32.2320098 41.8981103"></polygon>
                            <polygon id="Fill-330" fill="#FFFFFF" points="44.3918274 50.3079345 33.6939287 44.1257507 33.6939287 42.7433964 44.3918274 48.9255802"></polygon>
                            <polygon id="Fill-332" fill="#FFFFFF" points="44.3918274 40.0939618 37.6143715 36.1769376 37.6143715 34.7950077 44.3918274 38.7116075"></polygon>
                            <polygon id="Fill-334" fill="#FFFFFF" points="24.5906657 38.8646129 5.78644803 27.997619 5.78644803 26.6152647 24.5906657 37.4822586"></polygon>
                        </g>
                        <g id="Group-373" transform="translate(280.697936, 146.426844)">
                            <mask id="mask-25" fill="white">
                                <use xlink:href="#path-24"></use>
                            </mask>
                            <g id="Clip-372"></g>
                            <path d="M0.0368893058,24.6145647 L0.0368893058,24.6939323 C0.0368893058,17.6030532 1.25974859,11.2774135 3.73006004,6.21401572 C5.73692308,2.10090689 8.53372608,-1.09034946 12.0513546,0.993155985 C19.8142214,5.59180774 18.0774559,16.1553374 26.3478687,20.9352189 C34.2739812,25.5156203 31.75406,7.44230351 41.1527767,12.8741028 C50.1100938,18.0499734 47.5007054,39.3209129 56.3248818,44.4208114 C63.9669043,48.8369601 62.5824953,35.1089129 68.8150919,38.6702684 C71.9307542,40.450734 74.0406529,46.3107787 75.370788,51.7260254 C76.641561,56.8955296 77.2525666,61.90163 77.2525666,66.5741318 L77.2525666,69.2382515 L0.0368893058,24.6145647 Z" id="Fill-371" fill="url(#linearGradient-26)" opacity="0.7" mask="url(#mask-25)"></path>
                        </g>
                        <g id="Group-370" transform="translate(353.628518, 183.776300)">
                            <path d="M62.2103797,39.9219421 L0.396199625,4.2362347 L0.396199625,1.3951295 C0.396199625,0.582778839 1.27433471,0.0751657799 1.97692758,0.480916687 L60.9429989,34.5219747 C61.7270026,34.9748369 62.2103797,35.8122287 62.2103797,36.7188018 L62.2103797,39.9219421 Z" id="Fill-337" fill="#DDE1E7"></path>
                            <path d="M7.50498086,6.37780157 C7.50582889,6.05354039 7.27813283,5.65882455 6.99616285,5.4958451 L6.99616285,5.49542068 C6.71461689,5.33244123 6.48522477,5.46358875 6.48437674,5.78742551 C6.48352871,6.11126227 6.71122477,6.50640254 6.99277073,6.66938198 C7.27474071,6.831937 7.50370882,6.70121391 7.50455685,6.37780157 L7.50498086,6.37780157 Z" id="Fill-339" fill="#FFFFFF"></path>
                            <path d="M5.96296548,5.49788235 C5.96381351,5.17319674 5.73611745,4.77890532 5.45457148,4.61592588 L5.45457148,4.61550145 C5.1726015,4.45252201 4.9436334,4.5832451 4.94236135,4.90708186 C4.94151332,5.23134305 5.16920938,5.62648331 5.45117936,5.78946276 C5.73272533,5.95159335 5.96169343,5.82171911 5.96296548,5.49788235" id="Fill-341" fill="#FFFFFF"></path>
                            <path d="M4.33190694,4.53171983 C4.33317899,4.20745865 4.10548293,3.81274281 3.82351295,3.65018779 L3.82351295,3.64933894 C3.54196698,3.48635949 3.31257486,3.61750701 3.31172683,3.94134377 C3.3108788,4.26560496 3.53857486,4.6603208 3.82012083,4.82330024 C4.10166679,4.98585526 4.33105891,4.85555659 4.33190694,4.53171983" id="Fill-343" fill="#FFFFFF"></path>
                            <g id="Group-347" opacity="0.8" transform="translate(0.000000, 3.819831)">
                                <mask id="mask-28" fill="white">
                                    <use xlink:href="#path-27"></use>
                                </mask>
                                <g id="Clip-346"></g>
                                <polygon id="Fill-345" fill="url(#linearGradient-29)" mask="url(#mask-28)" points="62.2102101 82.2681185 0.396030019 46.5824111 0.396030019 0.415088271 62.2102101 36.1007956"></polygon>
                            </g>
                            <polygon id="Fill-348" fill="#FFFFFF" points="36.6605921 35.5272268 5.96317749 17.7866597 5.96317749 16.403881 36.6605921 34.1448726"></polygon>
                            <polygon id="Fill-350" fill="#FFFFFF" points="44.5677936 46.7782411 13.869955 29.0372496 13.869955 27.6548953 44.5677936 45.3954624"></polygon>
                            <polygon id="Fill-352" fill="#FFFFFF" points="14.8002015 36.7938827 5.96288068 31.686769 5.96288068 30.3044148 14.8002015 35.4115284"></polygon>
                            <polygon id="Fill-354" fill="#FFFFFF" points="36.6605921 49.4275908 15.9296503 37.4464796 15.9296503 36.0645497 36.6605921 48.0452365"></polygon>
                            <polygon id="Fill-356" fill="#FFFFFF" points="19.5177925 29.2296417 5.96288068 21.3960178 5.96288068 20.0136635 19.5177925 27.8472874"></polygon>
                            <polygon id="Fill-358" fill="#FFFFFF" points="34.5347081 37.908 20.9793722 30.0743761 20.9793722 28.6920218 34.5347081 36.5256457"></polygon>
                            <polygon id="Fill-360" fill="#FFFFFF" points="12.3418473 28.1541047 5.96296548 24.4675437 5.96296548 23.0856138 12.3418473 26.7717504"></polygon>
                            <polygon id="Fill-362" fill="#FFFFFF" points="32.4084424 43.2837751 26.0295606 39.5967896 26.0295606 38.2148597 32.4084424 41.9009964"></polygon>
                            <polygon id="Fill-364" fill="#FFFFFF" points="44.5677936 50.310863 33.8703189 44.1286792 33.8703189 42.7463249 44.5677936 48.9280843"></polygon>
                            <polygon id="Fill-366" fill="#FFFFFF" points="44.5677936 40.0968479 37.7907617 36.1798237 37.7907617 34.7978938 44.5677936 38.7140692"></polygon>
                            <polygon id="Fill-368" fill="#FFFFFF" points="24.7670559 38.8675415 5.96283827 28.0005475 5.96283827 26.6181932 24.7670559 37.4851872"></polygon>
                        </g>
                        <polygon id="Fill-374" fill="#00BEE6" points="349.277657 212.5861 349.55143 212.732102 349.55143 171.795825 349.277657 171.649823"></polygon>
                        <polygon id="Fill-376" fill="#00BEE6" points="334.329475 203.947128 334.602788 204.093131 334.602788 163.156854 334.329475 163.010851"></polygon>
                        <polygon id="Fill-378" fill="#00BEE6" points="319.270709 195.244747 319.544481 195.390325 319.544481 154.454473 319.270709 154.30847"></polygon>
                        <polygon id="Fill-380" fill="#00BEE6" points="304.212409 186.542367 304.485722 186.687945 304.485722 145.752092 304.212409 145.60609"></polygon>
                        <polygon id="Fill-382" fill="#00BEE6" points="289.154068 177.839561 289.427381 177.985564 289.427381 137.049711 289.154068 136.903709"></polygon>
                        <path d="M326.999485,171.673378 C332.084273,174.612102 335.195271,174.315852 338.212138,174.028092 C341.053886,173.757308 343.99231,173.477612 348.598809,175.885378 C353.578866,178.484561 357.815624,185.490979 357.857177,185.561434 L358.042896,185.441322 C357.999646,185.370018 353.678933,178.229906 348.585665,175.56621 C343.913868,173.124065 340.946186,173.406733 338.076029,173.680487 C334.695781,174.001778 331.501676,174.305242 325.710903,170.572843 C319.9761,166.87652 316.497905,159.186776 313.429732,152.402333 C310.696532,146.358511 308.11428,140.649562 304.395669,138.816044 C301.449188,137.362386 299.47455,139.146671 297.384156,141.035365 C295.183943,143.023799 292.909102,145.079717 289.335504,143.379044 C283.378517,140.546427 280.873012,134.678742 280.847995,134.619747 L280.620299,134.655399 C280.644044,134.712696 282.912948,140.036267 288.227976,143.10826 C288.590933,143.317926 288.967459,143.516982 289.359248,143.703729 C293.049451,145.459578 295.361181,143.370555 297.597012,141.350713 C299.649669,139.495973 301.588265,137.744369 304.415597,139.138607 C307.982836,140.897851 310.404385,146.253254 313.209669,152.454961 C316.313035,159.317499 319.830663,167.095524 325.695215,170.875458 C326.143823,171.164917 326.578862,171.430607 326.999485,171.673378" id="Fill-384" fill="#CFD2D3"></path>
                    </g>
                    <g id="Group-389" opacity="0.7" transform="translate(303.000000, 137.000000)">
                        <mask id="mask-31" fill="white">
                            <use xlink:href="#path-30"></use>
                        </mask>
                        <g id="Clip-388"></g>
                        <path d="M0.153,1.51227273 C0.153,2.55818182 0.96,3.82909091 1.9565,4.35227273 C2.9525,4.875 3.76,4.45136364 3.76,3.40545455 C3.76,2.36 2.9525,1.08818182 1.9565,0.565454545 C1.667,0.413636364 1.393,0.341363636 1.151,0.341363636 C0.559,0.341363636 0.153,0.770454545 0.153,1.51227273" id="Fill-387" fill="url(#linearGradient-32)" mask="url(#mask-31)"></path>
                    </g>
                </g>
            </g>
        </g>
    </g>
</svg>