<svg width="48" height="46" viewBox="0 0 48 46" fill="none" xmlns="http://www.w3.org/2000/svg">
<g clip-path="url(#clip0_30_1139)">
<path d="M8.48504 37.4636C10.559 38.6287 13.0126 38.8969 15.2779 38.2157L30.1886 34.7294C32.537 34.3319 34.6174 33.0036 35.9598 31.0397C37.1249 28.9657 37.3931 26.5122 36.7081 24.231L33.2219 9.32034C32.8243 6.97192 31.4961 4.89163 29.5322 3.54926C27.4582 2.38415 25.0046 2.11598 22.7234 2.80089L7.81262 6.2872C5.48016 6.68102 3.38388 8.013 2.04149 9.97689C0.892333 12.0471 0.608181 14.5044 1.29309 16.7857L4.77937 31.6963C5.19288 34.041 6.52114 36.1212 8.48504 37.4636Z" fill="url(#paint0_linear_30_1139)"/>
<g filter="url(#filter0_b_30_1139)">
<mask id="path-2-outside-1_30_1139" maskUnits="userSpaceOnUse" x="10.4626" y="7.67163" width="38" height="38" fill="black">
<rect fill="white" x="10.4626" y="7.67163" width="38" height="38"/>
<path d="M44.7604 11.1771C42.846 9.42371 40.3053 8.52911 37.7288 8.69014H21.0176C18.4233 8.52911 15.8826 9.42371 13.9682 11.1771C12.2147 13.0916 11.3201 15.6322 11.4812 18.2265V34.9376C11.3201 37.5319 12.2147 40.0726 13.9682 41.987C15.8826 43.7404 18.4233 44.635 21.0176 44.474H37.7288C40.3053 44.635 42.8639 43.7404 44.7783 41.987C46.5139 40.0726 47.4263 37.5319 47.2653 34.9376V18.2265C47.4085 15.6322 46.5139 13.0916 44.7604 11.1771Z"/>
</mask>
<path d="M44.7604 11.1771C42.846 9.42371 40.3053 8.52911 37.7288 8.69014H21.0176C18.4233 8.52911 15.8826 9.42371 13.9682 11.1771C12.2147 13.0916 11.3201 15.6322 11.4812 18.2265V34.9376C11.3201 37.5319 12.2147 40.0726 13.9682 41.987C15.8826 43.7404 18.4233 44.635 21.0176 44.474H37.7288C40.3053 44.635 42.8639 43.7404 44.7783 41.987C46.5139 40.0726 47.4263 37.5319 47.2653 34.9376V18.2265C47.4085 15.6322 46.5139 13.0916 44.7604 11.1771Z" fill="url(#paint1_linear_30_1139)" fill-opacity="0.3"/>
<path d="M44.2766 11.7054C44.5683 11.9727 45.0215 11.9528 45.2887 11.661C45.556 11.3692 45.5361 10.916 45.2443 10.6488L44.2766 11.7054ZM37.7288 8.69014V9.40656C37.7437 9.40656 37.7587 9.40609 37.7735 9.40516L37.7288 8.69014ZM21.0176 8.69014L20.9733 9.40518C20.988 9.4061 21.0028 9.40656 21.0176 9.40656V8.69014ZM13.9682 11.1771L13.4843 10.6488C13.4688 10.663 13.454 10.6778 13.4398 10.6932L13.9682 11.1771ZM11.4812 18.2265H12.1976C12.1976 18.2117 12.1971 18.1969 12.1962 18.1822L11.4812 18.2265ZM11.4812 34.9376L12.1962 34.982C12.1971 34.9672 12.1976 34.9524 12.1976 34.9376H11.4812ZM13.9682 41.987L13.4398 42.4709C13.454 42.4864 13.4688 42.5012 13.4843 42.5154L13.9682 41.987ZM21.0176 44.474V43.7576C21.0028 43.7576 20.988 43.7581 20.9733 43.759L21.0176 44.474ZM37.7288 44.474L37.7735 43.759C37.7587 43.7581 37.7437 43.7576 37.7288 43.7576V44.474ZM44.7783 41.987L45.2622 42.5154C45.2786 42.5004 45.2942 42.4846 45.3091 42.4682L44.7783 41.987ZM47.2653 34.9376H46.5489C46.5489 34.9524 46.5494 34.9672 46.5503 34.982L47.2653 34.9376ZM47.2653 18.2265L46.55 18.1871C46.5493 18.2002 46.5489 18.2134 46.5489 18.2265H47.2653ZM45.2887 10.6932C45.0215 10.4015 44.5683 10.3816 44.2766 10.6488C43.9848 10.916 43.9649 11.3692 44.2321 11.661L45.2887 10.6932ZM45.2443 10.6488C43.1864 8.76397 40.4549 7.80195 37.6842 7.97512L37.7735 9.40516C40.1557 9.25628 42.5056 10.0834 44.2766 11.7054L45.2443 10.6488ZM37.7288 7.97372H21.0176V9.40656H37.7288V7.97372ZM21.062 7.9751C18.2743 7.80207 15.5428 8.76348 13.4843 10.6488L14.452 11.7054C16.2225 10.0839 18.5722 9.25616 20.9733 9.40518L21.062 7.9751ZM13.4398 10.6932C11.5545 12.7517 10.5931 15.4833 10.7661 18.2709L12.1962 18.1822C12.0472 15.7812 12.875 13.4314 14.4965 11.661L13.4398 10.6932ZM10.7647 18.2265V34.9376H12.1976V18.2265H10.7647ZM10.7661 34.8932C10.5931 37.6809 11.5545 40.4125 13.4398 42.4709L14.4965 41.5032C12.875 39.7327 12.0472 37.383 12.1962 34.982L10.7661 34.8932ZM13.4843 42.5154C15.5428 44.4007 18.2743 45.3621 21.062 45.1891L20.9733 43.759C18.5722 43.908 16.2225 43.0802 14.452 41.4587L13.4843 42.5154ZM21.0176 45.1904H37.7288V43.7576H21.0176V45.1904ZM37.6842 45.189C40.4537 45.3621 43.2034 44.401 45.2622 42.5154L44.2944 41.4587C42.5244 43.0799 40.1569 43.908 37.7735 43.759L37.6842 45.189ZM45.3091 42.4682C47.172 40.4133 48.1536 37.684 47.9804 34.8932L46.5503 34.982C46.6991 37.3799 45.8557 39.7319 44.2475 41.5059L45.3091 42.4682ZM47.9817 34.9376V18.2265H46.5489V34.9376H47.9817ZM47.9807 18.266C48.1343 15.4818 47.1742 12.7518 45.2887 10.6932L44.2321 11.661C45.8535 13.4313 46.6827 15.7826 46.55 18.1871L47.9807 18.266Z" fill="url(#paint2_linear_30_1139)" mask="url(#path-2-outside-1_30_1139)"/>
</g>
<path d="M35.3939 28.1252C35.3939 29.6682 35.2396 30.9798 34.931 32.0599C34.6224 33.1401 34.1903 34.0196 33.6503 34.6831C33.0948 35.3621 32.4313 35.8404 31.6443 36.149C30.8573 36.4576 29.9932 36.6119 29.0211 36.6119C28.0644 36.6119 27.2003 36.4576 26.4133 36.149C25.6264 35.8404 24.9474 35.3621 24.3919 34.6831C23.8364 34.0042 23.389 33.1246 23.0803 32.0599C22.7717 30.9798 22.6174 29.6682 22.6174 28.1252V24.9773C22.6174 23.4343 22.7717 22.1227 23.0803 21.0425C23.389 19.9624 23.821 19.0983 24.3765 18.4348C24.932 17.7713 25.611 17.2929 26.3979 16.9997C27.1694 16.7066 28.049 16.5522 29.0057 16.5522C29.9778 16.5522 30.8419 16.7066 31.6289 16.9997C32.4158 17.2929 33.0948 17.7713 33.6503 18.4348C34.2058 19.0983 34.6378 19.9624 34.9464 21.0425C35.255 22.1227 35.4093 23.4188 35.4093 24.9773V28.1252H35.3939ZM32.1535 24.4835C32.1535 23.496 32.0609 22.6627 31.9375 21.9838C31.7986 21.3049 31.598 20.7648 31.3203 20.3482C31.0579 19.9315 30.7185 19.6384 30.3327 19.4532C29.9469 19.2526 29.4995 19.16 29.0057 19.16C28.5119 19.16 28.0644 19.2526 27.6786 19.4378C27.2929 19.6229 26.9534 19.9161 26.6911 20.3327C26.4288 20.7494 26.2127 21.2894 26.0739 21.9684C25.935 22.6473 25.8733 23.4806 25.8733 24.4681V28.5881C25.8733 29.5756 25.9504 30.4089 26.0893 31.0878C26.2282 31.7822 26.4442 32.3377 26.7065 32.7697C26.9688 33.2018 27.3083 33.5104 27.6941 33.711C28.0798 33.9116 28.5273 34.0042 29.0365 34.0042C29.5457 34.0042 29.9932 33.9116 30.379 33.711C30.7648 33.5104 31.0888 33.2018 31.3511 32.7697C31.6134 32.3377 31.814 31.7822 31.9529 31.0878C32.0918 30.3934 32.1535 29.5602 32.1535 28.5881V24.4835Z" fill="white"/>
</g>
<defs>
<filter id="filter0_b_30_1139" x="5.01499" y="2.22386" width="48.7163" height="48.7165" filterUnits="userSpaceOnUse" color-interpolation-filters="sRGB">
<feFlood flood-opacity="0" result="BackgroundImageFix"/>
<feGaussianBlur in="BackgroundImageFix" stdDeviation="2.86567"/>
<feComposite in2="SourceAlpha" operator="in" result="effect1_backgroundBlur_30_1139"/>
<feBlend mode="normal" in="SourceGraphic" in2="effect1_backgroundBlur_30_1139" result="shape"/>
</filter>
<linearGradient id="paint0_linear_30_1139" x1="-3.58212" y1="105.388" x2="27.9403" y2="8.6714" gradientUnits="userSpaceOnUse">
<stop stop-color="#010C48"/>
<stop offset="1" stop-color="#0C34F0"/>
</linearGradient>
<linearGradient id="paint1_linear_30_1139" x1="59.4627" y1="54.5224" x2="11.4626" y2="12.2537" gradientUnits="userSpaceOnUse">
<stop stop-color="#0C34F0"/>
<stop offset="1" stop-color="#5DC2FB"/>
</linearGradient>
<linearGradient id="paint2_linear_30_1139" x1="17.1647" y1="12.8448" x2="40.0147" y2="41.145" gradientUnits="userSpaceOnUse">
<stop stop-color="white" stop-opacity="0.25"/>
<stop offset="1" stop-color="white" stop-opacity="0"/>
</linearGradient>
<clipPath id="clip0_30_1139">
<rect width="48" height="44.4179" fill="white" transform="translate(0 0.791016)"/>
</clipPath>
</defs>
</svg>
