<svg width="48" height="46" viewBox="0 0 48 46" fill="none" xmlns="http://www.w3.org/2000/svg">
<g clip-path="url(#clip0_30_1151)">
<path d="M8.48504 37.4636C10.559 38.6287 13.0126 38.8969 15.2779 38.2157L30.1886 34.7294C32.537 34.3319 34.6174 33.0036 35.9598 31.0397C37.1249 28.9657 37.3931 26.5122 36.7081 24.231L33.2219 9.32034C32.8243 6.97192 31.4961 4.89163 29.5322 3.54926C27.4582 2.38415 25.0046 2.11598 22.7234 2.80089L7.81262 6.2872C5.48016 6.68102 3.38388 8.013 2.04149 9.97689C0.892333 12.0471 0.608181 14.5044 1.29309 16.7857L4.77937 31.6963C5.19288 34.041 6.52114 36.1212 8.48504 37.4636Z" fill="url(#paint0_linear_30_1151)"/>
<g filter="url(#filter0_b_30_1151)">
<mask id="path-2-outside-1_30_1151" maskUnits="userSpaceOnUse" x="10.4626" y="7.67163" width="38" height="38" fill="black">
<rect fill="white" x="10.4626" y="7.67163" width="38" height="38"/>
<path d="M44.7604 11.1771C42.846 9.42371 40.3053 8.52911 37.7288 8.69014H21.0176C18.4233 8.52911 15.8826 9.42371 13.9682 11.1771C12.2147 13.0916 11.3201 15.6322 11.4812 18.2265V34.9376C11.3201 37.5319 12.2147 40.0726 13.9682 41.987C15.8826 43.7404 18.4233 44.635 21.0176 44.474H37.7288C40.3053 44.635 42.8639 43.7404 44.7783 41.987C46.5139 40.0726 47.4263 37.5319 47.2653 34.9376V18.2265C47.4085 15.6322 46.5139 13.0916 44.7604 11.1771Z"/>
</mask>
<path d="M44.7604 11.1771C42.846 9.42371 40.3053 8.52911 37.7288 8.69014H21.0176C18.4233 8.52911 15.8826 9.42371 13.9682 11.1771C12.2147 13.0916 11.3201 15.6322 11.4812 18.2265V34.9376C11.3201 37.5319 12.2147 40.0726 13.9682 41.987C15.8826 43.7404 18.4233 44.635 21.0176 44.474H37.7288C40.3053 44.635 42.8639 43.7404 44.7783 41.987C46.5139 40.0726 47.4263 37.5319 47.2653 34.9376V18.2265C47.4085 15.6322 46.5139 13.0916 44.7604 11.1771Z" fill="url(#paint1_linear_30_1151)" fill-opacity="0.3"/>
<path d="M44.2766 11.7054C44.5683 11.9727 45.0215 11.9528 45.2887 11.661C45.556 11.3692 45.5361 10.916 45.2443 10.6488L44.2766 11.7054ZM37.7288 8.69014V9.40656C37.7437 9.40656 37.7587 9.40609 37.7735 9.40516L37.7288 8.69014ZM21.0176 8.69014L20.9733 9.40518C20.988 9.4061 21.0028 9.40656 21.0176 9.40656V8.69014ZM13.9682 11.1771L13.4843 10.6488C13.4688 10.663 13.454 10.6778 13.4398 10.6932L13.9682 11.1771ZM11.4812 18.2265H12.1976C12.1976 18.2117 12.1971 18.1969 12.1962 18.1822L11.4812 18.2265ZM11.4812 34.9376L12.1962 34.982C12.1971 34.9672 12.1976 34.9524 12.1976 34.9376H11.4812ZM13.9682 41.987L13.4398 42.4709C13.454 42.4864 13.4688 42.5012 13.4843 42.5154L13.9682 41.987ZM21.0176 44.474V43.7576C21.0028 43.7576 20.988 43.7581 20.9733 43.759L21.0176 44.474ZM37.7288 44.474L37.7735 43.759C37.7587 43.7581 37.7437 43.7576 37.7288 43.7576V44.474ZM44.7783 41.987L45.2622 42.5154C45.2786 42.5004 45.2942 42.4846 45.3091 42.4682L44.7783 41.987ZM47.2653 34.9376H46.5489C46.5489 34.9524 46.5494 34.9672 46.5503 34.982L47.2653 34.9376ZM47.2653 18.2265L46.55 18.1871C46.5493 18.2002 46.5489 18.2134 46.5489 18.2265H47.2653ZM45.2887 10.6932C45.0215 10.4015 44.5683 10.3816 44.2766 10.6488C43.9848 10.916 43.9649 11.3692 44.2321 11.661L45.2887 10.6932ZM45.2443 10.6488C43.1864 8.76397 40.4549 7.80195 37.6842 7.97512L37.7735 9.40516C40.1557 9.25628 42.5056 10.0834 44.2766 11.7054L45.2443 10.6488ZM37.7288 7.97372H21.0176V9.40656H37.7288V7.97372ZM21.062 7.9751C18.2743 7.80207 15.5428 8.76348 13.4843 10.6488L14.452 11.7054C16.2225 10.0839 18.5722 9.25616 20.9733 9.40518L21.062 7.9751ZM13.4398 10.6932C11.5545 12.7517 10.5931 15.4833 10.7661 18.2709L12.1962 18.1822C12.0472 15.7812 12.875 13.4314 14.4965 11.661L13.4398 10.6932ZM10.7647 18.2265V34.9376H12.1976V18.2265H10.7647ZM10.7661 34.8932C10.5931 37.6809 11.5545 40.4125 13.4398 42.4709L14.4965 41.5032C12.875 39.7327 12.0472 37.383 12.1962 34.982L10.7661 34.8932ZM13.4843 42.5154C15.5428 44.4007 18.2743 45.3621 21.062 45.1891L20.9733 43.759C18.5722 43.908 16.2225 43.0802 14.452 41.4587L13.4843 42.5154ZM21.0176 45.1904H37.7288V43.7576H21.0176V45.1904ZM37.6842 45.189C40.4537 45.3621 43.2034 44.401 45.2622 42.5154L44.2944 41.4587C42.5244 43.0799 40.1569 43.908 37.7735 43.759L37.6842 45.189ZM45.3091 42.4682C47.172 40.4133 48.1536 37.684 47.9804 34.8932L46.5503 34.982C46.6991 37.3799 45.8557 39.7319 44.2475 41.5059L45.3091 42.4682ZM47.9817 34.9376V18.2265H46.5489V34.9376H47.9817ZM47.9807 18.266C48.1343 15.4818 47.1742 12.7518 45.2887 10.6932L44.2321 11.661C45.8535 13.4313 46.6827 15.7826 46.55 18.1871L47.9807 18.266Z" fill="url(#paint2_linear_30_1151)" mask="url(#path-2-outside-1_30_1151)"/>
</g>
<path d="M20.0598 20.1343H38.6867" stroke="white" stroke-width="2.14925" stroke-linecap="round"/>
<path d="M20.0598 26.582H38.6867" stroke="white" stroke-width="2.14925" stroke-linecap="round"/>
<path d="M20.0598 33.0298L38.6867 33.0298" stroke="white" stroke-width="2.14925" stroke-linecap="round"/>
<path d="M35.1045 17.985V22.2835" stroke="white" stroke-width="2.14925" stroke-linecap="round"/>
<path d="M22.9253 24.4329V28.7314" stroke="white" stroke-width="2.14925" stroke-linecap="round"/>
<path d="M29.373 30.8806V35.1791" stroke="white" stroke-width="2.14925" stroke-linecap="round"/>
</g>
<defs>
<filter id="filter0_b_30_1151" x="5.01499" y="2.22386" width="48.7163" height="48.7165" filterUnits="userSpaceOnUse" color-interpolation-filters="sRGB">
<feFlood flood-opacity="0" result="BackgroundImageFix"/>
<feGaussianBlur in="BackgroundImageFix" stdDeviation="2.86567"/>
<feComposite in2="SourceAlpha" operator="in" result="effect1_backgroundBlur_30_1151"/>
<feBlend mode="normal" in="SourceGraphic" in2="effect1_backgroundBlur_30_1151" result="shape"/>
</filter>
<linearGradient id="paint0_linear_30_1151" x1="-3.58212" y1="105.388" x2="27.9403" y2="8.6714" gradientUnits="userSpaceOnUse">
<stop stop-color="#010C48"/>
<stop offset="1" stop-color="#0C34F0"/>
</linearGradient>
<linearGradient id="paint1_linear_30_1151" x1="59.4627" y1="54.5224" x2="11.4626" y2="12.2537" gradientUnits="userSpaceOnUse">
<stop stop-color="#0C34F0"/>
<stop offset="1" stop-color="#5DC2FB"/>
</linearGradient>
<linearGradient id="paint2_linear_30_1151" x1="17.1647" y1="12.8448" x2="40.0147" y2="41.145" gradientUnits="userSpaceOnUse">
<stop stop-color="white" stop-opacity="0.25"/>
<stop offset="1" stop-color="white" stop-opacity="0"/>
</linearGradient>
<clipPath id="clip0_30_1151">
<rect width="48" height="44.4179" fill="white" transform="translate(0 0.791016)"/>
</clipPath>
</defs>
</svg>
