<svg xmlns="http://www.w3.org/2000/svg" viewBox="0 0 120 120"><path fill="#F1C02C" d="M99 122H21v-13c0-11 9-20 20-20h38c11 0 20 9 20 20v13z"/><path d="M79 91c9.9 0 18 8.1 18 18v11H23v-11c0-9.9 8.1-18 18-18h38m0-2H41c-11 0-20 9-20 20v13h78v-13c0-11-9-20-20-20z"/><path fill="#FFF" d="M60 98.6c-4.9 0-8.9-4-8.9-8.9V75.9c0-4.9 4-8.9 8.9-8.9s8.9 4 8.9 8.9v13.8c0 4.9-4 8.9-8.9 8.9z"/><path d="M60 69c3.8 0 6.9 3.1 6.9 6.9v13.8c0 3.8-3.1 6.9-6.9 6.9-3.8 0-6.9-3.1-6.9-6.9V75.9c0-3.8 3.1-6.9 6.9-6.9m0-2c-4.9 0-8.9 4-8.9 8.9v13.8c0 4.9 4 8.9 8.9 8.9s8.9-4 8.9-8.9V75.9c0-4.9-4-8.9-8.9-8.9z"/><circle fill="#FFF" cx="86" cy="59" r="6"/><path d="M86 66c-3.9 0-7-3.1-7-7s3.1-7 7-7 7 3.1 7 7-3.1 7-7 7zm0-12c-2.8 0-5 2.2-5 5s2.2 5 5 5 5-2.2 5-5-2.2-5-5-5z"/><path fill="#FFF" d="M33 29v24.1c-2.8.5-5 2.9-5 5.9 0 3.1 2.4 5.7 5.4 6 2.2 12.5 13.1 22 26.2 22h.8C75.1 87 87 75.7 87 60.4V29H33z"/><path d="M85 31v29.4C85 74.2 74.2 85 60.4 85h-.8c-12 0-22.2-8.6-24.2-20.4-.2-.9-.9-1.6-1.8-1.6-2.1-.2-3.6-1.9-3.6-4 0-2 1.4-3.6 3.3-3.9 1-.2 1.7-1 1.7-2V31h50m2-2H33v24.1c-2.8.5-5 2.9-5 5.9 0 3.1 2.4 5.7 5.4 6 2.2 12.5 13.1 22 26.2 22h.8C75.1 87 87 75.7 87 60.4V29z"/><path fill="#FFF" d="M56 78c-7.7 0-14-6.3-14-14"/><path d="M56 79c-8.3 0-15-6.7-15-15 0-.6.4-1 1-1s1 .4 1 1c0 7.2 5.8 13 13 13 .6 0 1 .4 1 1s-.4 1-1 1z"/><circle cx="55" cy="55" r="2"/><circle cx="74" cy="55" r="2"/><path fill="#FFF" d="M65 66c2.2 0 4-1.8 4-4s-1.8-4-4-4v-7"/><path d="M65 67c-.6 0-1-.4-1-1s.4-1 1-1c1.7 0 3-1.3 3-3s-1.3-3-3-3c-.6 0-1-.4-1-1v-7c0-.6.4-1 1-1s1 .4 1 1v6.1c2.3.5 4 2.5 4 4.9 0 2.8-2.2 5-5 5z"/><path fill="#006ADD" d="M89 27c1.7 0 3-1.3 3-3v-8H48c-3.3 0-6 2.7-6 6h-5c-5 0-9 4-9 9v21c0 3.3 2.7 6 6 6V41c0-3 2.3-5.6 5.2-5.9C43.6 42.7 53.9 48 66 48c16 0 29-9.4 29-21h-6z"/><path d="M34 59c-3.9 0-7-3.1-7-7V31c0-5.5 4.5-10 10-10h4.1c.5-3.4 3.4-6 6.9-6h44c.6 0 1 .4 1 1v8c0 .7-.2 1.4-.5 2H95c.6 0 1 .4 1 1 0 12.1-13.5 22-30 22-11.8 0-22.4-5-27.3-12.8-2.1.5-3.7 2.5-3.7 4.8v17c0 .6-.4 1-1 1zm3-36c-4.4 0-8 3.6-8 8v21c0 2.4 1.7 4.4 4 4.9V41c0-3.5 2.6-6.5 6.1-6.9.4 0 .8.1 1 .5C44.4 42.1 54.6 47 66 47c15 0 27.2-8.4 28-19h-5c-.6 0-1-.4-1-1s.4-1 1-1c1.1 0 2-.9 2-2v-7H48c-2.8 0-5 2.2-5 5 0 .6-.4 1-1 1h-5z"/></svg>