<svg width="116" height="91" viewBox="0 0 116 91" fill="none" xmlns="http://www.w3.org/2000/svg">
<path d="M5 46.0901C14.0022 46.7728 18.3366 45.4074 24.338 40.6288C30.3395 35.8501 38.008 29.0234 46.01 28.6821C52.4115 28.409 60.9025 28.5683 64.3478 28.6821H72.3497" stroke="#1FC853"/>
<path d="M5 66.6569C6.43966 66.6569 10.9063 65.3506 14.9644 66.1866C17.5886 66.7272 21.4584 68.136 24.4298 68.3898C34.301 69.2332 39.5994 66.6569 42.6922 66.6569" stroke="#1FC853"/>
<path d="M42.104 65.1971C42.104 63.8042 44.4273 63.0949 45.7891 63.3875V63.3875C47.1773 63.6857 48.834 62.9983 50.4906 62.9983C52.1428 62.9983 53.795 62.7501 55.181 62.4529C56.9233 62.0794 58.7223 63.3576 58.7223 65.1395V65.1395C58.7223 66.1741 58.0964 67.1045 57.1036 67.3958C55.594 67.8387 53.1762 68.3898 50.4906 68.3898C47.2757 68.3898 44.365 67.4446 42.9711 66.9077C42.4353 66.7013 42.104 66.1799 42.104 65.6057V65.1971Z" stroke="#1FC853"/>
<path d="M40.5259 57.1284C40.5259 55.6086 42.7257 54.6362 44.2097 54.9643V54.9643C45.8941 55.3367 47.9757 54.9643 50.0572 54.9643C52.014 54.9643 53.9708 54.5982 55.5977 54.1667C57.5095 53.6596 59.5886 55.0404 59.5886 57.0182V57.0182C59.5886 58.1296 58.9115 59.1261 57.8441 59.4358C56.1068 59.9399 53.2449 60.5914 50.0572 60.5914C46.4928 60.5914 43.3357 59.7768 41.7029 59.2646C40.9849 59.0393 40.5259 58.365 40.5259 57.6125V57.1284Z" stroke="#1FC853"/>
<path d="M43.1255 49.3112C43.1255 47.8043 45.368 46.7541 46.8419 47.0678V47.0678C48.476 47.4156 50.6853 47.0678 52.6569 47.0678C54.6153 47.0678 56.5737 46.7177 58.2014 46.3053C60.124 45.8181 62.1882 47.2123 62.1882 49.1957V49.1957C62.1882 50.3217 61.5022 51.3313 60.4205 51.6442C58.6811 52.1473 55.8304 52.7931 52.6569 52.7931C49.0882 52.7931 45.9277 51.9765 44.2966 51.4644C43.5824 51.2402 43.1255 50.5692 43.1255 49.8206V49.3112Z" stroke="#1FC853"/>
<rect x="62.4412" y="19.9585" width="30.3547" height="48.5606" rx="4.5" transform="rotate(17.6187 62.4412 19.9585)" fill="white" stroke="#1FC853" stroke-linecap="round" stroke-linejoin="round"/>
<rect x="61.3665" y="56.7597" width="8.10297" height="8.10297" rx="1.5" transform="rotate(17.6187 61.3665 56.7597)" fill="white" stroke="#1FC853" stroke-linecap="round" stroke-linejoin="round"/>
<rect x="62.6821" y="59.3" width="4.0572" height="4.0572" rx="0.5" transform="rotate(17.6187 62.6821 59.3)" fill="white" stroke="#1FC853" stroke-linecap="round" stroke-linejoin="round"/>
<circle cx="82.4741" cy="33.7548" r="3.04004" transform="rotate(-72.3814 82.4741 33.7548)" stroke="#1FC853"/>
<path d="M70.8545 28.477C70.0809 27.5567 69.0459 26.8375 67.8153 26.4468C66.7613 26.112 65.6854 26.0568 64.6677 26.2397" stroke="#1FC853" stroke-linecap="round"/>
<path d="M69.307 29.7802C68.7715 29.1431 68.0549 28.6452 67.203 28.3746C66.4733 28.1429 65.7285 28.1047 65.0239 28.2313" stroke="#1FC853" stroke-linecap="round"/>
<path d="M67.7599 31.0835C67.4623 30.7295 67.0642 30.4529 66.5909 30.3026C66.1856 30.1739 65.7718 30.1526 65.3803 30.223" stroke="#1FC853" stroke-linecap="round"/>
<path d="M70.7705 67.7114L78.8096 42.3976" stroke="#1FC853" stroke-linecap="round" stroke-linejoin="round"/>
<path d="M74.6265 68.9359L78.3002 57.3679" stroke="#1FC853" stroke-linecap="round" stroke-linejoin="round"/>
<path d="M70.8364 40.2487C76.0251 39.5462 75.9382 35.6003 72.404 34.8158C70.1597 34.3177 66.8323 32.0879 62.3166 31.8925C59.7213 31.7802 44.5664 32.9255 41.1005 33.3587L22.471 58.9201C30.2694 58.9201 30.7026 59.7866 38.501 53.2879C44.7397 48.089 45.4329 44.1898 48.4656 41.5903C51.4983 38.9909 56.88 40.5876 62.536 39.5557C66.1508 38.8963 69.2179 40.4678 70.8364 40.2487Z" fill="white"/>
<path d="M41.1005 33.3587C42.7473 33.1528 47.0333 31.8801 51.357 31.5641C56.1327 31.2149 60.9544 31.8336 62.3166 31.8925C66.8323 32.0879 70.1597 34.3177 72.404 34.8158C75.9382 35.6003 76.0251 39.5462 70.8364 40.2487C69.2179 40.4678 65.9313 38.703 62.3166 39.3624C56.6605 40.3943 51.2788 38.7976 48.2461 41.397C45.2134 43.9965 44.7397 48.089 38.501 53.2879C30.7026 59.7866 30.2694 58.9201 22.471 58.9201" stroke="#1FC853" stroke-linecap="round" stroke-linejoin="round"/>
<path d="M96 20V28" stroke="#1FC853" stroke-linecap="round"/>
<path d="M92 24L100 24" stroke="#1FC853" stroke-linecap="round"/>
<g opacity="0.6">
<path d="M113 68V72" stroke="#1FC853" stroke-linecap="round"/>
<path d="M111 70L115 70" stroke="#1FC853" stroke-linecap="round"/>
</g>
<path d="M24 86V90" stroke="#1FC853" stroke-linecap="round"/>
<path d="M22 88L26 88" stroke="#1FC853" stroke-linecap="round"/>
<path d="M93 55V59" stroke="#1FC853" stroke-linecap="round"/>
<path d="M91 57L95 57" stroke="#1FC853" stroke-linecap="round"/>
<path d="M3 19V23" stroke="#1FC853" stroke-linecap="round"/>
<path d="M1 21L5 21" stroke="#1FC853" stroke-linecap="round"/>
<path d="M53.5 1V6" stroke="#1FC853" stroke-linecap="round"/>
<path d="M51 3.5L56 3.5" stroke="#1FC853" stroke-linecap="round"/>
<g opacity="0.2">
<path d="M49.5 78V83" stroke="#1FC853" stroke-linecap="round"/>
<path d="M47 80.5L52 80.5" stroke="#1FC853" stroke-linecap="round"/>
</g>
<path opacity="0.2" d="M89 3.5L93 6V1L89 3.5Z" stroke="#1FC853" stroke-linejoin="round"/>
<path opacity="0.6" d="M113 41.5L109 39L109 44L113 41.5Z" stroke="#1FC853" stroke-linejoin="round"/>
<path d="M88.5 85L91 81L86 81L88.5 85Z" stroke="#1FC853" stroke-linejoin="round"/>
<path opacity="0.6" d="M30.5 16L28 20L33 20L30.5 16Z" stroke="#1FC853" stroke-linejoin="round"/>
</svg>
